<?xml version="1.0" encoding="UTF-8" standalone="no"?>
<svg
   xmlns:dc="http://purl.org/dc/elements/1.1/"
   xmlns:cc="http://creativecommons.org/ns#"
   xmlns:rdf="http://www.w3.org/1999/02/22-rdf-syntax-ns#"
   xmlns:svg="http://www.w3.org/2000/svg"
   xmlns="http://www.w3.org/2000/svg"
   xmlns:sodipodi="http://sodipodi.sourceforge.net/DTD/sodipodi-0.dtd"
   xmlns:inkscape="http://www.inkscape.org/namespaces/inkscape"
   version="1.1"
   id="Ebene_2"
   x="0px"
   y="0px"
   width="11.3cm"
   height="2cm"
   viewBox="0 0 427.08666 75.590553"
   enable-background="new 0 0 700 400"
   xml:space="preserve"
   sodipodi:docname="neuromod.svg"
   inkscape:version="1.0.1 (3bc2e813f5, 2020-09-07)"
   inkscape:export-filename="C:\Users\49152\Documents\UniMainz\Conferences\OHBM2021\OSR\OSR_sponsors_banner.png"
   inkscape:export-xdpi="300"
   inkscape:export-ydpi="300"><metadata
   id="metadata53"><rdf:RDF><cc:Work
       rdf:about=""><dc:format>image/svg+xml</dc:format><dc:type
         rdf:resource="http://purl.org/dc/dcmitype/StillImage" /><dc:title></dc:title></cc:Work></rdf:RDF></metadata><defs
   id="defs51"><clipPath
     clipPathUnits="userSpaceOnUse"
     id="clipPath1177"><rect
       style="opacity:0.606452;fill:#e0e2e3;stroke-width:1.81001;stroke-miterlimit:10"
       id="rect1179"
       width="241.84261"
       height="112.85989"
       x="1851.4395"
       y="1187.7159" /></clipPath><clipPath
     clipPathUnits="userSpaceOnUse"
     id="clipPath1181"><rect
       style="opacity:0.606452;fill:#e0e2e3;stroke-width:2.2168;stroke-miterlimit:10"
       id="rect1183"
       width="362.76392"
       height="112.85989"
       x="940.49902"
       y="1047.9846" /></clipPath><clipPath
     clipPathUnits="userSpaceOnUse"
     id="clipPath1195"><rect
       style="opacity:0.606452;fill:#e0e2e3;stroke-width:1.81001;stroke-miterlimit:10"
       id="rect1197"
       width="241.84261"
       height="112.85989"
       x="-5.3742852"
       y="863.91559" /></clipPath><clipPath
     clipPathUnits="userSpaceOnUse"
     id="clipPath1209"><rect
       style="opacity:0.680645;fill:#e0e2e3;stroke-width:2.95423;stroke-miterlimit:10"
       id="rect1211"
       width="386.94818"
       height="187.90884"
       x="642.2265"
       y="-575.04797" /></clipPath><clipPath
     clipPathUnits="userSpaceOnUse"
     id="clipPath1335"><rect
       style="opacity:0.680645;fill:#e0e2e3;stroke:#732829;stroke-width:4.15379;stroke-miterlimit:4;stroke-dasharray:none;stroke-opacity:1"
       id="rect1337"
       width="491.07074"
       height="150.9537"
       x="-523.89929"
       y="-5.173327" /></clipPath><clipPath
     clipPathUnits="userSpaceOnUse"
     id="clipPath1339"><rect
       style="opacity:0.680645;fill:#e0e2e3;stroke:#732829;stroke-width:4.39931;stroke-miterlimit:4;stroke-dasharray:none;stroke-opacity:1"
       id="rect1341"
       width="264.71393"
       height="314.11636"
       x="-38.302242"
       y="-315.71609" /></clipPath><clipPath
     clipPathUnits="userSpaceOnUse"
     id="clipPath1335-4"><rect
       style="opacity:0.680645;fill:#e0e2e3;stroke:#732829;stroke-width:4.15379;stroke-miterlimit:4;stroke-dasharray:none;stroke-opacity:1"
       id="rect1337-3"
       width="491.07074"
       height="150.9537"
       x="-523.89929"
       y="-5.173327" /></clipPath><clipPath
     clipPathUnits="userSpaceOnUse"
     id="clipPath1339-6"><rect
       style="opacity:0.680645;fill:#e0e2e3;stroke:#732829;stroke-width:4.39931;stroke-miterlimit:4;stroke-dasharray:none;stroke-opacity:1"
       id="rect1341-0"
       width="264.71393"
       height="314.11636"
       x="-38.302242"
       y="-315.71609" /></clipPath><clipPath
     clipPathUnits="userSpaceOnUse"
     id="clipPath997"><path
       d="M 0,1.2207e-4 H 960 V 540.00012 H 0 Z"
       clip-rule="evenodd"
       id="path995" /></clipPath><clipPath
     clipPathUnits="userSpaceOnUse"
     id="clipPath1007"><path
       d="M 0,2.4414e-4 H 960 V 540.00024 H 0 Z"
       clip-rule="evenodd"
       id="path1005" /></clipPath><clipPath
     clipPathUnits="userSpaceOnUse"
     id="clipPath1019"><path
       d="M -9.1553e-5,1.8311e-4 H 959.99991 V 540.00018 H -9.1553e-5 Z"
       clip-rule="evenodd"
       id="path1017" /></clipPath><clipPath
     clipPathUnits="userSpaceOnUse"
     id="clipPath1047"><path
       d="M -1.2207e-4,540 H 960 V 1.8311e-4 L -1.8311e-4,1.2207e-4"
       clip-rule="evenodd"
       id="path1045" /></clipPath><clipPath
     clipPathUnits="userSpaceOnUse"
     id="clipPath1057"><path
       d="M -1.2207e-4,540 H 960 V 1.8311e-4 L -1.8311e-4,1.2207e-4"
       clip-rule="evenodd"
       id="path1055" /></clipPath><clipPath
     clipPathUnits="userSpaceOnUse"
     id="clipPath1083"><path
       d="M -1.2207e-4,540 H 960 V 2.4414e-4 L -1.8311e-4,1.2207e-4"
       clip-rule="evenodd"
       id="path1081" /></clipPath><clipPath
     clipPathUnits="userSpaceOnUse"
     id="clipPath1093"><path
       d="M -1.2207e-4,540 H 960 V 2.4414e-4 L -1.8311e-4,1.2207e-4"
       clip-rule="evenodd"
       id="path1091" /></clipPath><clipPath
     clipPathUnits="userSpaceOnUse"
     id="clipPath1121"><path
       d="M -1.2207e-4,540 H 960 V 1.8311e-4 L -1.8311e-4,1.2207e-4"
       clip-rule="evenodd"
       id="path1119" /></clipPath><clipPath
     clipPathUnits="userSpaceOnUse"
     id="clipPath1131"><path
       d="M -1.2207e-4,540 H 960 V 1.8311e-4 L -1.8311e-4,1.2207e-4"
       clip-rule="evenodd"
       id="path1129" /></clipPath><clipPath
     clipPathUnits="userSpaceOnUse"
     id="clipPath1159"><path
       d="M -1.8311e-4,540 H 960 V 1.8311e-4 L -1.8311e-4,1.2207e-4"
       clip-rule="evenodd"
       id="path1157" /></clipPath><clipPath
     clipPathUnits="userSpaceOnUse"
     id="clipPath1169"><path
       d="M -1.8311e-4,540 H 960 V 1.8311e-4 L -1.8311e-4,1.2207e-4"
       clip-rule="evenodd"
       id="path1167" /></clipPath><clipPath
     clipPathUnits="userSpaceOnUse"
     id="clipPath1047-8"><path
       d="M -1.2207e-4,540 H 960 V 1.8311e-4 L -1.8311e-4,1.2207e-4"
       clip-rule="evenodd"
       id="path1045-5" /></clipPath><clipPath
     clipPathUnits="userSpaceOnUse"
     id="clipPath1057-7"><path
       d="M -1.2207e-4,540 H 960 V 1.8311e-4 L -1.8311e-4,1.2207e-4"
       clip-rule="evenodd"
       id="path1055-4" /></clipPath><clipPath
     clipPathUnits="userSpaceOnUse"
     id="clipPath1047-8-6"><path
       d="M -1.2207e-4,540 H 960 V 1.8311e-4 L -1.8311e-4,1.2207e-4"
       clip-rule="evenodd"
       id="path1045-5-6" /></clipPath><clipPath
     clipPathUnits="userSpaceOnUse"
     id="clipPath1057-7-5"><path
       d="M -1.2207e-4,540 H 960 V 1.8311e-4 L -1.8311e-4,1.2207e-4"
       clip-rule="evenodd"
       id="path1055-4-3" /></clipPath><clipPath
     clipPathUnits="userSpaceOnUse"
     id="clipPath1159-4"><path
       d="M -1.8311e-4,540 H 960 V 1.8311e-4 L -1.8311e-4,1.2207e-4"
       clip-rule="evenodd"
       id="path1157-6" /></clipPath><clipPath
     clipPathUnits="userSpaceOnUse"
     id="clipPath1169-3"><path
       d="M -1.8311e-4,540 H 960 V 1.8311e-4 L -1.8311e-4,1.2207e-4"
       clip-rule="evenodd"
       id="path1167-3" /></clipPath><clipPath
     clipPathUnits="userSpaceOnUse"
     id="clipPath1159-4-0"><path
       d="M -1.8311e-4,540 H 960 V 1.8311e-4 L -1.8311e-4,1.2207e-4"
       clip-rule="evenodd"
       id="path1157-6-5" /></clipPath><clipPath
     clipPathUnits="userSpaceOnUse"
     id="clipPath1169-3-1"><path
       d="M -1.8311e-4,540 H 960 V 1.8311e-4 L -1.8311e-4,1.2207e-4"
       clip-rule="evenodd"
       id="path1167-3-2" /></clipPath><clipPath
     clipPathUnits="userSpaceOnUse"
     id="clipPath1093-8"><path
       d="M -1.2207e-4,540 H 960 V 2.4414e-4 L -1.8311e-4,1.2207e-4"
       clip-rule="evenodd"
       id="path1091-3" /></clipPath><clipPath
     clipPathUnits="userSpaceOnUse"
     id="clipPath1169-0"><path
       d="M -1.8311e-4,540 H 960 V 1.8311e-4 L -1.8311e-4,1.2207e-4"
       clip-rule="evenodd"
       id="path1167-2" /></clipPath><clipPath
     clipPathUnits="userSpaceOnUse"
     id="clipPath1169-3-9"><path
       d="M -1.8311e-4,540 H 960 V 1.8311e-4 L -1.8311e-4,1.2207e-4"
       clip-rule="evenodd"
       id="path1167-3-0" /></clipPath><clipPath
     clipPathUnits="userSpaceOnUse"
     id="clipPath1169-3-1-0"><path
       d="M -1.8311e-4,540 H 960 V 1.8311e-4 L -1.8311e-4,1.2207e-4"
       clip-rule="evenodd"
       id="path1167-3-2-9" /></clipPath><clipPath
     clipPathUnits="userSpaceOnUse"
     id="clipPath1169-3-9-2"><path
       d="M -1.8311e-4,540 H 960 V 1.8311e-4 L -1.8311e-4,1.2207e-4"
       clip-rule="evenodd"
       id="path1167-3-0-6" /></clipPath><clipPath
     clipPathUnits="userSpaceOnUse"
     id="clipPath1169-3-1-0-3"><path
       d="M -1.8311e-4,540 H 960 V 1.8311e-4 L -1.8311e-4,1.2207e-4"
       clip-rule="evenodd"
       id="path1167-3-2-9-7" /></clipPath><clipPath
     clipPathUnits="userSpaceOnUse"
     id="clipPath1169-0-4"><path
       d="M -1.8311e-4,540 H 960 V 1.8311e-4 L -1.8311e-4,1.2207e-4"
       clip-rule="evenodd"
       id="path1167-2-9" /></clipPath><clipPath
     clipPathUnits="userSpaceOnUse"
     id="clipPath1169-3-1-0-3-3"><path
       d="M -1.8311e-4,540 H 960 V 1.8311e-4 L -1.8311e-4,1.2207e-4"
       clip-rule="evenodd"
       id="path1167-3-2-9-7-7" /></clipPath><clipPath
     clipPathUnits="userSpaceOnUse"
     id="clipPath1169-0-4-9"><path
       d="M -1.8311e-4,540 H 960 V 1.8311e-4 L -1.8311e-4,1.2207e-4"
       clip-rule="evenodd"
       id="path1167-2-9-5" /></clipPath><clipPath
     clipPathUnits="userSpaceOnUse"
     id="clipPath1169-3-9-2-5"><path
       d="M -1.8311e-4,540 H 960 V 1.8311e-4 L -1.8311e-4,1.2207e-4"
       clip-rule="evenodd"
       id="path1167-3-0-6-8" /></clipPath><clipPath
     clipPathUnits="userSpaceOnUse"
     id="clipPath1093-8-3"><path
       d="M -1.2207e-4,540 H 960 V 2.4414e-4 L -1.8311e-4,1.2207e-4"
       clip-rule="evenodd"
       id="path1091-3-1" /></clipPath><clipPath
     clipPathUnits="userSpaceOnUse"
     id="clipPath1169-3-9-2-3"><path
       d="M -1.8311e-4,540 H 960 V 1.8311e-4 L -1.8311e-4,1.2207e-4"
       clip-rule="evenodd"
       id="path1167-3-0-6-3" /></clipPath></defs><sodipodi:namedview
   pagecolor="#ffffff"
   bordercolor="#666666"
   borderopacity="1"
   objecttolerance="10"
   gridtolerance="10"
   guidetolerance="10"
   inkscape:pageopacity="1"
   inkscape:pageshadow="2"
   inkscape:window-width="1920"
   inkscape:window-height="1017"
   id="namedview49"
   showgrid="false"
   inkscape:zoom="0.50497619"
   inkscape:cx="991.60763"
   inkscape:cy="371.50658"
   inkscape:window-x="-8"
   inkscape:window-y="-8"
   inkscape:window-maximized="1"
   inkscape:current-layer="Ebene_2"
   inkscape:document-rotation="0"
   showguides="true"
   inkscape:guide-bbox="true"
   units="cm"><sodipodi:guide
     position="904.44521,-203.05414"
     orientation="0,-1"
     id="guide1201" /></sodipodi:namedview>



<path
   style="fill:none;stroke:#000000;stroke-width:1px;stroke-linecap:butt;stroke-linejoin:miter;stroke-opacity:1"
   d="m 2697.8887,935.12475 -16.1229,45.68139 c 0,0 0,51.05566 24.1843,51.05566 24.1842,0 48.3685,-5.3743 55.0863,-13.4357"
   id="path1053" /><g
   id="g1001"
   transform="matrix(1.3333333,0,0,-1.3333333,-163.07614,1589.7047)"><g
     id="g1003"
     clip-path="url(#clipPath1007)"><g
       id="g1009"
       transform="matrix(171.72,0,0,165,74.88,218.76)" /></g></g><g
   id="g1489"
   transform="matrix(1.1598981,0,0,1.1598981,-525.48782,-399.05029)"><path
     inkscape:connector-curvature="0"
     id="path24"
     style="fill:#36ad5d;fill-opacity:1;fill-rule:evenodd;stroke:none;stroke-width:1.89753"
     d="m 762.31597,384.92783 c 0.7532,0 1.5369,-0.18648 2.1907,-0.77963 0.5369,-0.4898 1.0048,-1.11438 1.3494,-1.91198 0.3285,-0.75942 0.5513,-1.58847 0.6667,-2.48043 0.1057,-0.82007 0.1779,-1.66261 0.1779,-2.5029 0,-0.83581 -0.072,-1.68057 -0.1779,-2.50065 -0.1154,-0.89196 -0.3382,-1.72102 -0.6667,-2.48042 -0.3446,-0.7976 -0.8125,-1.42222 -1.3494,-1.90975 -0.6538,-0.59763 -1.4375,-0.78187 -2.1907,-0.78187 h -16.1171 c -0.7501,0 -1.5578,0.17524 -2.21,0.78187 -0.5289,0.49205 -0.9872,1.1189 -1.3301,1.90975 -0.3286,0.7594 -0.5481,1.58846 -0.6667,2.48267 -0.1058,0.81783 -0.1763,1.66259 -0.1763,2.4984 0,0.84029 0.071,1.68283 0.1763,2.5029 0.1186,0.88971 0.3381,1.72101 0.6667,2.48043 0.3429,0.79085 0.8012,1.4177 1.3301,1.91198 0.6522,0.60663 1.4599,0.77963 2.21,0.77963 z m 8.2629,-7.67494 c 0,1.67834 -0.1779,3.3297 -0.5016,4.93164 -0.3285,1.61992 -0.8157,3.13874 -1.4696,4.51375 -0.6362,1.33682 -1.415,2.45571 -2.3365,3.32745 -0.9504,0.8942 -2.0017,1.29639 -3.117,1.29639 h -18.1957 c -1.0706,-0.0832 -2.0658,-0.54597 -2.9552,-1.46041 -0.8702,-0.89196 -1.601,-2.01084 -2.1955,-3.32744 -0.6186,-1.36379 -1.0754,-2.86239 -1.3879,-4.44859 -0.3093,-1.57049 -0.4823,-3.19041 -0.4823,-4.83279 0,-1.67609 0.1778,-3.32745 0.5032,-4.92939 0.3285,-1.61992 0.8141,-3.13873 1.4679,-4.51376 0.6346,-1.33682 1.4135,-2.4557 2.3382,-3.32745 0.9487,-0.89421 2,-1.29637 3.1154,-1.29637 h 18.1941 c 1.0705,0.0831 2.0657,0.54596 2.9552,1.46038 0.8702,0.89198 1.6009,2.0131 2.1971,3.32747 0.6186,1.36377 1.0753,2.86236 1.3862,4.44858 0.3109,1.57049 0.484,3.1904 0.484,4.83054 m -43.1334,-11.44501 c 0.3653,-0.77736 0.8141,-1.42444 1.3589,-1.903 0.5545,-0.48755 1.1571,-0.71896 1.7965,-0.71896 1.0497,0 1.9295,0.57067 2.5786,1.84008 0.6603,1.2874 0.9359,2.80172 0.9359,4.42613 v 18.67285 c 0,0.86948 -0.1875,1.63113 -0.5817,2.26248 -0.3847,0.61786 -0.8558,0.93466 -1.4167,0.93466 -0.5593,0 -1.0321,-0.3168 -1.4183,-0.93466 -0.3926,-0.63135 -0.5801,-1.393 -0.5801,-2.26248 V 374.1838 c 0,-0.28082 0,-2.3209 -0.1107,-2.4939 -0.1602,0.0561 -0.9407,1.46939 -1.0577,1.68058 l -8.7773,15.98796 c -0.3574,0.65156 -0.7917,1.14811 -1.3077,1.47389 -0.532,0.337 -1.0929,0.48979 -1.6683,0.48979 -0.5753,0 -1.1362,-0.15273 -1.6667,-0.48979 -0.5176,-0.32578 -0.9519,-0.82233 -1.3109,-1.47389 l -8.7757,-15.9902 c -0.1121,-0.2067 -0.8846,-1.65586 -1.0321,-1.68731 -0.133,0.18197 -0.1362,2.22205 -0.1362,2.50287 v 13.94118 c 0,0.87173 -0.1875,1.63113 -0.5817,2.26248 -0.3846,0.61786 -0.8574,0.93466 -1.4167,0.93466 -0.5593,0 -1.0321,-0.3168 -1.4183,-0.93466 -0.3926,-0.63135 -0.5801,-1.393 -0.5801,-2.26248 v -18.67285 c 0,-1.62441 0.274,-3.13873 0.9359,-4.42613 0.6474,-1.26941 1.5273,-1.84008 2.5769,-1.84008 0.6395,0 1.2324,0.25163 1.7629,0.78861 0.5224,0.53022 0.9936,1.16156 1.4151,1.87829 l 9.1732,16.74961 c 0.1474,0.24041 0.3173,0.4561 0.4871,0.6583 0.1667,0.19546 0.3558,0.32354 0.5674,0.32354 0.2131,0 0.4022,-0.12804 0.5673,-0.32354 0.1715,-0.2022 0.3381,-0.41789 0.4856,-0.65381 l 9.1603,-16.79904 z m 50.9524,19.11995 h 20.4201 c 0.7532,0 1.5368,-0.18648 2.1923,-0.77963 0.5353,-0.4898 1.0032,-1.11438 1.3494,-1.91198 0.3269,-0.75942 0.5497,-1.58847 0.665,-2.48043 0.109,-0.82007 0.1795,-1.66261 0.1795,-2.5029 0,-0.83581 -0.071,-1.68057 -0.1795,-2.50065 -0.1153,-0.89196 -0.3381,-1.72102 -0.665,-2.48042 -0.3462,-0.7976 -0.8141,-1.42222 -1.3494,-1.90975 -0.6555,-0.59763 -1.4391,-0.78187 -2.1923,-0.78187 h -22.4185 c -0.5609,0 -1.0321,-0.31903 -1.4183,-0.93467 -0.3942,-0.63134 -0.5801,-1.39298 -0.5801,-2.26248 0,-0.86951 0.1859,-1.63115 0.5801,-2.26248 0.3862,-0.61787 0.8574,-0.93465 1.4183,-0.93465 h 23.2582 c 1.1138,0 2.1651,0.40216 3.1154,1.29637 0.9215,0.87175 1.702,1.99063 2.3382,3.32745 0.6522,1.37503 1.1394,2.89384 1.468,4.51376 0.3237,1.60194 0.5032,3.2533 0.5032,4.92939 0,1.64238 -0.1747,3.2623 -0.4824,4.83279 -0.3141,1.5862 -0.7708,3.0848 -1.3878,4.44859 -0.5946,1.3166 -1.3286,2.43548 -2.1972,3.32744 -0.8894,0.91444 -1.8846,1.37727 -2.9583,1.46041 h -23.6573 c -0.5609,0 -1.0321,-0.3168 -1.4183,-0.93466 -0.3942,-0.63135 -0.5801,-1.393 -0.5801,-2.26248 v -10.87209 c 0,-0.86949 0.1859,-1.62891 0.5801,-2.26025 0.3862,-0.61785 0.8574,-0.9369 1.4183,-0.9369 0.5593,0 1.032,0.31905 1.4167,0.9369 0.3942,0.63134 0.5817,1.39076 0.5817,2.26025 z" /><path
     inkscape:connector-curvature="0"
     id="path28"
     style="fill:#36ad5d;fill-opacity:1;fill-rule:evenodd;stroke:none;stroke-width:1.89753"
     d="m 669.86717,384.14775 c 0.6506,0.60663 1.4599,0.77963 2.2099,0.77963 h 16.1172 c 0.7516,0 1.5368,-0.18424 2.1907,-0.77963 0.5369,-0.4898 1.0048,-1.11438 1.351,-1.91198 0.3285,-0.75718 0.5481,-1.58847 0.665,-2.48043 0.1074,-0.82007 0.1779,-1.66261 0.1779,-2.50065 0,-0.83804 -0.071,-1.68057 -0.1779,-2.50065 -0.117,-0.89421 -0.3365,-1.72326 -0.665,-2.48267 -0.3462,-0.7976 -0.8141,-1.41995 -1.351,-1.90974 -0.6539,-0.5954 -1.4391,-0.78189 -2.1907,-0.78189 h -16.1172 c -0.75,0 -1.5593,0.17526 -2.2099,0.78189 -0.5289,0.49204 -0.9872,1.11889 -1.3302,1.90974 -0.3285,0.75941 -0.5497,1.58846 -0.665,2.48267 -0.1074,0.82008 -0.1779,1.66261 -0.1779,2.50065 0,0.83804 0.071,1.68058 0.1779,2.50065 0.1153,0.89196 0.3365,1.72325 0.665,2.48043 0.343,0.79085 0.8013,1.4177 1.3302,1.91198 m -15.2278,-3.69817 c 0.6667,0.67852 1.3222,1.38401 1.9696,2.10522 0.7773,0.8695 1.5369,1.77943 2.2741,2.72083 0.2981,0.34374 0.5561,0.74817 0.7756,1.20875 0.2308,0.48755 0.335,1.0425 0.335,1.64239 0,0.86724 -0.1875,1.62891 -0.5802,2.26024 -0.3862,0.61786 -0.8589,0.93466 -1.4182,0.93466 -0.5385,0 -1.0129,-0.39993 -1.4087,-0.92118 -1.093,-1.28291 -2.2084,-2.51637 -3.3462,-3.70491 -1.1378,-1.18629 -2.327,-2.25125 -3.5609,-3.18815 -1.2276,-0.9324 -2.5113,-1.67834 -3.8334,-2.22879 -1.3478,-0.56169 -2.7324,-0.8268 -4.1267,-0.8268 l -7.9295,-10e-4 c -0.3366,0.0831 -0.6042,0.33028 -0.8237,0.72571 -0.2436,0.43138 -0.3398,0.95039 -0.3398,1.51432 v 5.43681 c 0,0.87622 -0.1971,1.63563 -0.601,2.26247 -0.3846,0.59314 -0.8477,0.93241 -1.3974,0.93241 -0.5593,0 -1.0321,-0.3168 -1.4167,-0.93466 -0.3942,-0.63134 -0.5817,-1.39299 -0.5817,-2.26022 v -6.14046 c 0,-1.06273 0.125,-2.09848 0.3846,-3.0848 0.2452,-0.93242 0.5849,-1.79293 1.0321,-2.5321 0.4391,-0.72347 0.9567,-1.2874 1.5448,-1.69407 0.6154,-0.42687 1.2725,-0.6201 1.9488,-0.6201 h 21.1428 c 0.391,0 0.7196,-0.22467 1,-0.6336 0.2981,-0.43586 0.4327,-0.97508 0.4327,-1.60417 0,-0.61561 -0.149,-1.13463 -0.4343,-1.5705 -0.2756,-0.42464 -0.6041,-0.66728 -0.9984,-0.66728 h -24.0547 c -0.5593,0 -1.0321,-0.3168 -1.4167,-0.93466 -0.3942,-0.63134 -0.5817,-1.39297 -0.5817,-2.26249 0,-0.8695 0.1875,-1.63113 0.5817,-2.2625 0.3846,-0.61561 0.8574,-0.93465 1.4167,-0.93465 h 23.8961 c 0.7404,0 1.4551,0.2202 2.1298,0.68303 0.6538,0.44936 1.2372,1.06721 1.7404,1.84909 0.5064,0.78861 0.8958,1.70755 1.1747,2.72531 0.2933,1.07621 0.4247,2.21306 0.4247,3.37465 0,1.16382 -0.1314,2.30067 -0.4247,3.37462 -0.2789,1.02004 -0.6683,1.93672 -1.1747,2.72758 -0.5032,0.78187 -1.0866,1.39749 -1.7404,1.8491 -0.641,0.43811 -1.3141,0.65829 -2.0145,0.68075 m -58.4765,-3.1949 c 0,0.83805 0.072,1.68057 0.1795,2.50065 0.1154,0.89196 0.3365,1.72327 0.6651,2.48044 0.3429,0.79085 0.8013,1.41771 1.3317,1.91197 0.6491,0.60665 1.4584,0.77964 2.2084,0.77964 h 15.8783 c 0.7516,0 1.5369,-0.18423 2.1908,-0.77964 0.5352,-0.48979 1.0032,-1.11439 1.3493,-1.91197 0.3286,-0.75717 0.5497,-1.58848 0.6651,-2.48044 0.109,-0.82008 0.1795,-1.6626 0.1795,-2.50065 v -10.80691 c 0,-0.87175 0.1875,-1.63117 0.5801,-2.26474 0.3862,-0.61561 0.8574,-0.93466 1.4183,-0.93466 0.5593,0 1.0321,0.31905 1.4183,0.93466 0.3926,0.63357 0.5801,1.39299 0.5801,2.26474 v 10.80691 c 0,1.67609 -0.1779,3.32747 -0.5016,4.92941 -0.3285,1.61991 -0.8157,3.13871 -1.4696,4.51373 -0.6362,1.33682 -1.4134,2.45797 -2.3381,3.32747 -0.9471,0.8942 -2,1.29637 -3.1154,1.29637 h -18.1957 c -1.0689,-0.0832 -2.0658,-0.54597 -2.9536,-1.4604 -0.8702,-0.89196 -1.6026,-2.01084 -2.1971,-3.32744 -0.6186,-1.36154 -1.0754,-2.86013 -1.3879,-4.44635 -0.3093,-1.57273 -0.4823,-3.19264 -0.4823,-4.83279 v -10.80691 c 0,-0.87175 0.1875,-1.63117 0.5817,-2.26474 0.3846,-0.61561 0.8574,-0.93466 1.4183,-0.93466 0.5577,0 1.0321,0.31905 1.4151,0.93466 0.3958,0.63357 0.5817,1.39299 0.5817,2.26474 z m -36.1029,3.19715 v 3.00392 c 0,0.4134 0.1154,0.74818 0.3125,1.02678 0.2324,0.32801 0.5288,0.44485 0.8413,0.44485 h 25.1317 c 0.5593,0 1.0337,0.31905 1.4183,0.9369 0.3926,0.6291 0.5801,1.39299 0.5801,2.2625 0,0.86723 -0.1875,1.62888 -0.5801,2.26022 -0.3846,0.61786 -0.859,0.93466 -1.4183,0.93466 h -25.332 c -0.6234,0 -1.2244,-0.22468 -1.7901,-0.61786 -0.6009,-0.41565 -1.1282,-0.99531 -1.5817,-1.72327 -0.484,-0.77513 -0.8542,-1.68058 -1.133,-2.6579 -0.3173,-1.1099 -0.4456,-2.30069 -0.4456,-3.50496 v -5.75619 c 0,-0.88749 0.1187,-1.90751 0.6571,-2.4108 0.5433,-0.50551 1.359,-0.59538 1.9792,-0.59538 h 26.7679 c 0.5609,0 1.0336,0.31903 1.4183,0.9369 0.3942,0.63134 0.5817,1.39074 0.5817,2.26248 0,0.86725 -0.1875,1.63115 -0.5817,2.26025 -0.3847,0.61786 -0.8574,0.9369 -1.4183,0.9369 z m -3.9969,-14.06923 c 0,-0.8695 0.1875,-1.63113 0.5818,-2.2625 0.3846,-0.61561 0.8574,-0.93465 1.4167,-0.93465 h 28.2839 c 0.5593,0 1.0337,0.31904 1.4183,0.93465 0.3926,0.63137 0.5801,1.393 0.5801,2.2625 0,0.86952 -0.1859,1.63115 -0.5801,2.26249 -0.3846,0.61786 -0.859,0.93466 -1.4183,0.93466 h -28.2839 c -0.5593,0 -1.0321,-0.3168 -1.4167,-0.93466 -0.3943,-0.63134 -0.5818,-1.39297 -0.5818,-2.26249 m -7.8205,0 c 0,-0.8695 0.1891,-1.63113 0.5817,-2.2625 0.3846,-0.61561 0.859,-0.93465 1.4183,-0.93465 0.5593,0 1.032,0.31904 1.4167,0.93465 0.3942,0.63137 0.5817,1.393 0.5817,2.2625 v 18.60769 c 0,1.71878 -0.3478,3.24208 -1.1202,4.50026 -0.7532,1.23123 -1.6891,1.83111 -2.7933,1.83111 -0.3814,0 -0.758,-0.0877 -1.1234,-0.26063 -0.3526,-0.16851 -0.6891,-0.4044 -0.9968,-0.7167 l -18.2694,-17.90446 c -0.4119,-0.38418 -0.8286,-0.7639 -1.2533,-1.11663 -0.2179,-0.182 -0.5224,-0.39992 -0.7772,-0.39992 -0.4311,0 -0.601,0.53922 -0.6763,1.11215 -0.1442,1.0964 -0.157,2.37707 -0.157,3.49145 v 12.59961 c 0,0.8695 -0.1875,1.62891 -0.5818,2.26025 -0.3862,0.61786 -0.8574,0.93466 -1.4167,0.93466 -0.5609,0 -1.032,-0.3168 -1.4182,-0.93466 -0.3943,-0.63134 -0.5818,-1.39299 -0.5818,-2.26025 v -18.60993 c 0,-1.71652 0.3478,-3.23982 1.1202,-4.50026 0.7532,-1.23124 1.6907,-1.83111 2.7933,-1.83111 0.383,0 0.758,0.0875 1.1218,0.26062 0.3558,0.16852 0.6923,0.40668 0.9984,0.71897 l 18.2694,17.90445 c 0.4135,0.38195 0.8302,0.76165 1.2533,1.11438 0.2179,0.18199 0.524,0.40218 0.7772,0.40218 0.4327,0 0.601,-0.53921 0.6763,-1.1144 0.1442,-1.09418 0.1571,-2.37481 0.1571,-3.49146 z m 148.2146,10.87208 c 0,1.67609 -0.1795,3.32747 -0.5032,4.92941 -0.3286,1.61991 -0.8141,3.13871 -1.4696,4.51373 -0.6346,1.33682 -1.4135,2.45797 -2.3366,3.32747 -0.9487,0.8942 -2,1.29637 -3.1154,1.29637 h -18.1973 c -1.0689,-0.0832 -2.0657,-0.54597 -2.9535,-1.4604 -0.8686,-0.89196 -1.601,-2.01084 -2.1956,-3.32744 -0.6186,-1.36154 -1.0753,-2.86013 -1.3894,-4.44635 -0.3093,-1.57273 -0.4808,-3.19264 -0.4808,-4.83279 0,-1.67831 0.1779,-3.3297 0.5016,-4.93164 0.3286,-1.61991 0.8157,-3.13872 1.468,-4.5115 0.6378,-1.33906 1.4167,-2.45796 2.3382,-3.32745 0.9503,-0.89645 2,-1.29864 3.1154,-1.29864 h 18.1973 c 1.0689,0.0831 2.0641,0.54823 2.9551,1.4604 0.8686,0.89423 1.601,2.0131 2.1956,3.32745 0.6186,1.36378 1.0753,2.86239 1.3862,4.4486 0.3093,1.57049 0.484,3.1904 0.484,4.83278" /><path
     inkscape:connector-curvature="0"
     id="path32"
     style="fill:#36ad5d;fill-opacity:1;fill-rule:evenodd;stroke:none;stroke-width:0.942957"
     d="m 508.11347,379.16109 c 0.628,0.30835 1.2928,0.32438 1.7737,-0.0226 0.7959,-0.57425 0.7874,-1.9274 -0.02,-3.02217 -0.7271,-0.98539 -1.8548,-1.4248 -2.6545,-1.08157 -1.2701,-0.89581 -3.1136,-2.7459 -4.166,-4.19616 0.4659,-0.72325 0.2207,-1.88402 -0.6308,-2.75437 -0.9496,-0.97219 -2.2961,-1.21077 -3.0052,-0.53184 -0.71,0.68082 -0.5149,2.01887 0.4356,2.99106 0.8176,0.83735 1.9293,1.12966 2.6752,0.76191 1.4512,1.07969 3.3202,2.97598 4.0057,4.40738 -0.2791,0.60539 -0.1848,1.45499 0.2801,2.22255 v -9.4e-4 c 0.2932,0.95616 -0.5696,1.88874 -1.9595,1.75296 h 9e-4 c -1.0759,-0.4366 -2.2074,-0.32532 -2.9052,0.39133 -1.0033,1.0316 -0.7261,2.92976 0.6186,4.23859 1.3465,1.30695 3.2522,1.53136 4.2555,0.49977 0.8619,-0.88639 0.7789,-2.41114 -0.1131,-3.65207 v -0.004 -9.4e-4 c -0.3979,-0.59595 -0.3809,-2.07358 1.4135,-1.99908 m -8.1811,-6.70725 c 1.5248,1.48233 1.8378,3.63133 0.7006,4.80059 -1.1353,1.16739 -3.2937,0.91561 -4.8175,-0.56671 -1.5248,-1.48139 -1.8379,-3.63133 -0.7016,-4.8006 1.1372,-1.16833 3.2947,-0.91561 4.8185,0.56672 m 5.0241,-7.07878 c -0.728,-0.74305 -1.7303,-0.95993 -2.2414,-0.48562 -0.5102,0.47619 -0.3319,1.46535 0.3951,2.20934 0.7279,0.744 1.7303,0.96088 2.2404,0.48563 0.5102,-0.47525 0.3338,-1.46442 -0.3941,-2.20935 m -20.5084,5.68415 c 1.7049,1.65771 1.9076,4.21596 0.4507,5.71337 -1.4559,1.49836 -4.0188,1.36729 -5.7237,-0.29042 -1.7058,-1.65962 -1.9067,-4.21692 -0.4507,-5.71338 1.4559,-1.49836 4.0188,-1.36824 5.7237,0.29043 m -9.3796,-7.39367 c -1.7049,-1.65867 -4.2678,-1.78879 -5.7237,-0.29138 -1.1052,1.13626 -1.2551,2.8845 -0.5168,4.38758 v -0.002 c -0.039,1.83406 -1.0004,3.12685 -3.3314,2.52147 v 9.4e-4 c -1.4842,-0.6148 -3.1495,-0.39226 -4.2179,0.70627 -1.4559,1.49743 -1.2541,4.05567 0.4508,5.71433 1.2635,1.22961 2.9986,1.61811 4.4055,1.12871 2.1914,-0.72701 4.2602,0.68648 4.3611,2.7921 v -9.4e-4 c -0.2951,1.35125 0.166,2.91468 1.3362,4.05283 1.7058,1.65772 4.2688,1.78785 5.7247,0.29044 1.4569,-1.49743 1.2541,-4.05662 -0.4507,-5.71339 -1.4927,-1.45121 -3.6427,-1.73221 -5.1307,-0.77699 -1.7407,0.22914 -3.652,-1.30882 -3.6454,-3.06839 l -0.011,0.0113 c 0.1999,-0.81282 0.1197,-1.70768 -0.2273,-2.5441 -0.2753,-1.81707 1.1919,-3.78313 3.0081,-2.87978 1.5342,0.72418 3.3041,0.53466 4.4224,-0.61575 1.456,-1.49742 1.2542,-4.05567 -0.4516,-5.71338 m -9.1354,-3.78691 c -1.206,-0.82886 -2.6129,-0.84206 -3.1438,-0.0292 -0.5319,0.81282 0.016,2.14334 1.2211,2.9722 1.2051,0.82886 2.6129,0.84206 3.1438,0.0283 0.5319,-0.81189 -0.016,-2.1424 -1.2211,-2.97125 m 4.2537,27.44382 c -1.0146,-0.98633 -2.5366,-1.06271 -3.4022,-0.17162 -0.8666,0.89015 -0.7459,2.4102 0.2678,3.39559 1.0137,0.98727 2.5365,1.06271 3.4031,0.17256 0.8647,-0.89015 0.745,-2.41114 -0.2687,-3.39653 m 23.3287,-8.16696 c -1.8567,-1.80387 -4.4837,-2.11316 -5.868,-0.69024 -1.3833,1.42293 -1.0033,4.04152 0.8534,5.84539 1.8567,1.80483 4.4837,2.11318 5.868,0.6893 1.3843,-1.42291 1.0024,-4.03962 -0.8534,-5.84445 m -6.5335,12.65046 c -0.3828,1.82934 1.3881,3.99531 3.2664,3.88782 0.7478,-0.17634 1.6021,-0.0924 2.4319,0.23668 2.2905,0.21876 3.7049,-1.6068 3.6031,-3.43802 v 9.4e-4 c -1.1702,-1.53419 -1.3041,-3.46348 -0.2254,-4.57428 1.224,-1.25696 3.5484,-0.98445 5.19,0.61104 1.6417,1.59642 1.9793,3.91232 0.7554,5.17023 -0.761,0.78171 -1.9454,0.97313 -3.1278,0.62329 -2.6592,-0.0443 -4.0755,1.96512 -3.4201,4.01134 0.9118,1.55494 0.9137,3.33618 -0.1321,4.41021 -1.3305,1.36729 -3.8548,1.0712 -5.6398,-0.6629 -1.3767,-1.33806 -1.9095,-3.14099 -1.4701,-4.52431 h -9e-4 c 0.3291,-2.09808 -1.5417,-4.03868 -3.8605,-3.73694 -1.2692,0.20274 -2.6949,-0.23479 -3.7756,-1.28619 -1.7058,-1.65772 -1.9076,-4.21596 -0.4516,-5.71338 1.4559,-1.49835 4.0198,-1.36823 5.7237,0.29044 1.3616,1.32391 1.7652,3.22208 1.1316,4.69403 m 18.9836,5.18155 c -0.843,-0.88166 -2.0378,-1.12683 -2.6667,-0.54597 -0.6299,0.58086 -0.4573,1.76899 0.3857,2.6516 0.8439,0.8826 2.0377,1.12683 2.6676,0.54597 0.6299,-0.58086 0.4564,-1.76805 -0.3866,-2.6516 m -27.4372,-2.40737 c -1.0137,-0.98633 -2.5375,-1.06271 -3.4031,-0.1735 -0.8657,0.89015 -0.7459,2.4102 0.2678,3.39653 1.0136,0.98445 2.5375,1.06271 3.4031,0.17256 0.8656,-0.89015 0.7449,-2.4102 -0.2678,-3.39559 m 12.497,-29.91436 c -1.5238,-1.48045 -3.6822,-1.7341 -4.8185,-0.56673 -1.1363,1.17021 -0.8232,3.31921 0.7006,4.8006 1.5248,1.48139 3.6823,1.73504 4.8185,0.56671 1.1372,-1.16926 0.8232,-3.31826 -0.7006,-4.80058 m 4.7384,-2.77608 c 1.0306,0.9656 1.3277,2.29516 0.6657,2.97033 -0.6629,0.67515 -2.0368,0.44036 -3.0674,-0.52524 -0.7158,-0.67044 -1.0778,-1.51721 -1.01,-2.19803 -0.8543,-1.39181 -3.1287,-3.0995 -4.7195,-3.89441 -0.6421,0.38566 -1.6643,0.20274 -2.5318,-0.45639 -1.1249,-0.18011 -1.4984,0.44035 -1.5097,1.02877 0.7685,1.19472 0.8657,2.53277 0.133,3.35126 -0.9656,1.07875 -3.008,0.84584 -4.562,-0.51863 -1.554,-1.3654 -2.0302,-3.3475 -1.0656,-4.42623 0.9505,-1.06083 2.942,-0.85244 4.4857,0.45262 0.9363,0.11125 1.3974,-0.48562 1.4135,-1.24942 -0.3159,-0.71099 -0.2905,-1.4248 0.1395,-1.86328 0.6629,-0.67516 2.0359,-0.43942 3.0656,0.52616 0.8288,0.77512 1.1834,1.78597 0.9476,2.50355 1.125,1.27488 3.2438,2.91185 4.6818,3.65679 0.7006,-0.52616 1.967,-0.26214 2.9336,0.64215 m -20.499,-8.48755 c -1.108,-0.76096 -2.4913,-0.70156 -3.0901,0.13484 -0.5987,0.83641 -0.1857,2.13109 0.9223,2.893 1.1079,0.76191 2.4903,0.70061 3.09,-0.13485 0.5979,-0.8364 0.1858,-2.13203 -0.9222,-2.89299 m 22.8601,6.03021 c -0.7279,-0.744 -1.7303,-0.95993 -2.2414,-0.48468 -0.5101,0.47431 -0.3328,1.46347 0.3942,2.20746 0.7279,0.744 1.7303,0.96182 2.2414,0.48562 0.5092,-0.4743 0.3329,-1.46346 -0.3942,-2.2084 m 12.5678,28.31229 c -0.7252,-0.98162 -1.8784,-1.37577 -2.5762,-0.87884 -0.6987,0.49694 -0.677,1.69544 0.048,2.67894 0.7242,0.98256 1.8784,1.37578 2.5771,0.8779 0.6969,-0.49694 0.6761,-1.69544 -0.049,-2.678" /></g></svg>
