<?xml version="1.0" encoding="UTF-8" standalone="no"?>
<svg
   xmlns:dc="http://purl.org/dc/elements/1.1/"
   xmlns:cc="http://creativecommons.org/ns#"
   xmlns:rdf="http://www.w3.org/1999/02/22-rdf-syntax-ns#"
   xmlns:svg="http://www.w3.org/2000/svg"
   xmlns="http://www.w3.org/2000/svg"
   xmlns:sodipodi="http://sodipodi.sourceforge.net/DTD/sodipodi-0.dtd"
   xmlns:inkscape="http://www.inkscape.org/namespaces/inkscape"
   version="1.1"
   id="layer"
   x="0px"
   y="0px"
   viewBox="-153 -46 610 130"
   xml:space="preserve"
   sodipodi:docname="crowdcast-logo.svg"
   width="610"
   height="130"
   inkscape:version="1.0.1 (3bc2e813f5, 2020-09-07)"><metadata
   id="metadata16"><rdf:RDF><cc:Work
       rdf:about=""><dc:format>image/svg+xml</dc:format><dc:type
         rdf:resource="http://purl.org/dc/dcmitype/StillImage" /><dc:title></dc:title></cc:Work></rdf:RDF></metadata><defs
   id="defs14" /><sodipodi:namedview
   pagecolor="#ffffff"
   bordercolor="#666666"
   borderopacity="1"
   objecttolerance="10"
   gridtolerance="10"
   guidetolerance="10"
   inkscape:pageopacity="0"
   inkscape:pageshadow="2"
   inkscape:window-width="1920"
   inkscape:window-height="1001"
   id="namedview12"
   showgrid="false"
   inkscape:zoom="1.2730061"
   inkscape:cx="326"
   inkscape:cy="147.94378"
   inkscape:window-x="-9"
   inkscape:window-y="-9"
   inkscape:window-maximized="1"
   inkscape:current-layer="layer" />
<style
   type="text/css"
   id="style2">
	.st0{fill:#3E5667;}
	.st1{fill:#EC5F3E;}
	.st2{fill:#F9CA3F;}
</style>
<path
   class="st0"
   d="m 328.2,46.4 c -3.6,0 -6.8,-0.8 -9.7,-2.3 -2.9,-1.6 -5.1,-3.8 -6.8,-6.7 -1.7,-3 -2.5,-6.4 -2.5,-10.4 0,-3.8 0.8,-7 2.3,-9.8 1.6,-2.9 3.8,-5 6.6,-6.6 2.9,-1.5 6.1,-2.3 9.8,-2.3 2.8,0 5.2,0.4 7.2,1.1 2.1,0.7 3.7,1.6 4.8,2.6 l -3.8,6.9 c -2.2,-2.2 -4.7,-3.3 -7.5,-3.3 -3.4,0 -6,1 -7.8,3.1 -1.7,2.1 -2.6,4.8 -2.6,8.2 0,3.9 0.9,6.9 2.7,9.1 1.8,2.2 4.4,3.2 7.7,3.2 1.6,0 3.2,-0.2 4.8,-0.7 1.6,-0.5 2.8,-1 3.6,-1.7 l 3.1,6 c -1.2,0.9 -2.8,1.7 -4.9,2.5 -2.2,0.7 -4.5,1.1 -7,1.1 z m 36,0 c -3.3,0 -6.3,-0.8 -9.1,-2.3 -2.7,-1.6 -5,-3.8 -6.7,-6.7 -1.6,-2.9 -2.5,-6.3 -2.5,-10.1 0,-3.8 0.7,-7.1 2.1,-10 1.5,-2.9 3.6,-5.1 6.3,-6.7 2.7,-1.6 5.9,-2.4 9.5,-2.4 2.1,0 4.1,0.4 5.9,1.1 1.8,0.7 3.4,1.7 4.7,2.8 1.3,1.1 2.1,2.1 2.5,3.2 l 0.2,-6.1 h 8.2 v 36.4 h -8.1 L 377,39.2 c -0.9,1.9 -2.5,3.6 -4.9,5.1 -2.3,1.4 -4.9,2.1 -7.9,2.1 z m 1.4,-7.1 c 3,0 5.5,-1 7.6,-3.1 2.1,-2.1 3.1,-4.9 3.1,-8.2 v -0.6 c 0,-2.3 -0.5,-4.3 -1.4,-6.1 -0.9,-1.8 -2.2,-3.2 -3.9,-4.2 -1.7,-1 -3.4,-1.5 -5.4,-1.5 -3.4,0 -6,1.1 -7.8,3.3 -1.8,2.2 -2.8,5 -2.8,8.5 0,3.5 0.9,6.4 2.7,8.6 1.9,2.2 4.5,3.3 7.9,3.3 z m 43.8,7.1 c -2.5,0 -5.2,-0.3 -7.9,-1 -2.7,-0.7 -4.6,-1.5 -5.8,-2.4 l 2.9,-6.7 c 3.2,2.2 6.8,3.3 10.9,3.3 4.1,0 6.1,-1.2 6.1,-3.6 0,-1.1 -0.4,-1.9 -1.3,-2.5 -0.8,-0.6 -2.4,-1.3 -4.5,-2.1 l -3,-1.1 c -3.2,-1.3 -5.7,-2.8 -7.5,-4.5 -1.8,-1.8 -2.8,-4.1 -2.8,-7.1 0,-3.3 1.3,-5.9 3.9,-7.8 C 403,9 406.6,8 410.9,8 c 2.2,0 4.3,0.2 6.3,0.7 2.1,0.5 3.7,1.1 4.8,1.8 l -3.1,6.8 c -0.7,-0.7 -1.8,-1.3 -3.3,-1.7 -1.5,-0.5 -3.1,-0.8 -5,-0.8 -3.8,0 -5.6,1.1 -5.6,3.4 0,1.3 0.5,2.2 1.5,2.9 1,0.6 2.6,1.3 4.9,2.1 0.2,0.1 1,0.3 2.5,0.9 3.4,1.3 5.9,2.8 7.5,4.5 1.6,1.7 2.5,3.9 2.5,6.5 0,3.6 -1.4,6.3 -4.1,8.2 -2.8,2.2 -6.2,3.1 -10.4,3.1 z m 26.5,-30.2 h -6.4 v -7 h 6.4 V -5.6 l 8.6,-1.9 V 9.2 h 8.4 v 7 h -8.4 v 29.4 h -8.6 z"
   id="path4" />
<path
   class="st1"
   d="m 114.3,46.4 c -3.6,0 -6.8,-0.8 -9.7,-2.3 -2.9,-1.6 -5.1,-3.8 -6.8,-6.7 -1.7,-3 -2.5,-6.4 -2.5,-10.4 0,-3.8 0.8,-7 2.3,-9.8 1.6,-2.9 3.8,-5 6.6,-6.6 2.9,-1.5 6.1,-2.3 9.8,-2.3 2.8,0 5.2,0.4 7.2,1.1 2.1,0.7 3.7,1.6 4.8,2.6 l -3.8,6.9 c -2.2,-2.2 -4.7,-3.3 -7.5,-3.3 -3.4,0 -6,1 -7.8,3.1 -1.7,2.1 -2.6,4.8 -2.6,8.2 0,3.9 0.9,6.9 2.7,9.1 1.8,2.2 4.4,3.2 7.7,3.2 1.6,0 3.2,-0.2 4.8,-0.7 1.6,-0.5 2.8,-1 3.6,-1.7 l 3.1,6 c -1.2,0.9 -2.8,1.7 -4.9,2.5 -2.1,0.7 -4.4,1.1 -7,1.1 z M 134.1,9.2 h 8.6 v 7.1 c 0.8,-2.4 2.2,-4.4 4.1,-5.9 1.9,-1.5 4.1,-2.2 6.5,-2.2 1.7,0 2.9,0.2 3.5,0.5 l -1.2,8.6 c -0.5,-0.3 -1.5,-0.5 -3.1,-0.5 -2.5,0 -4.8,0.8 -6.8,2.4 -2,1.6 -3,4.1 -3,7.6 v 18.7 h -8.6 z m 45.6,37.2 c -3.8,0 -7.1,-0.8 -10,-2.5 -2.9,-1.7 -5.2,-4 -6.7,-6.9 -1.6,-2.9 -2.4,-6.1 -2.4,-9.7 0,-3.5 0.8,-6.7 2.3,-9.6 1.6,-2.9 3.8,-5.2 6.7,-6.9 2.9,-1.7 6.3,-2.5 10.1,-2.5 3.8,0 7.1,0.8 10,2.5 2.9,1.7 5.1,4 6.7,6.9 1.6,2.9 2.4,6.1 2.4,9.6 0,3.5 -0.8,6.8 -2.4,9.7 -1.6,2.9 -3.8,5.2 -6.7,6.9 -2.9,1.6 -6.2,2.5 -10,2.5 z m 0.3,-7 c 3.1,0 5.5,-1.1 7.2,-3.4 1.8,-2.3 2.7,-5.1 2.7,-8.6 0,-3.4 -1,-6.3 -2.9,-8.6 -1.9,-2.4 -4.4,-3.6 -7.5,-3.6 -3,0 -5.4,1.2 -7.3,3.5 -1.8,2.3 -2.7,5.2 -2.7,8.7 0,3.4 1,6.2 2.9,8.6 2,2.3 4.5,3.4 7.6,3.4 z m 50.1,-14 -10.8,20.2 h -1.5 L 202.5,9.2 h 9.2 l 7.8,21.2 10.4,-21.2 h 0.3 l 10.5,21 7.8,-21 h 9 l -15.2,36.4 h -1.5 z m 48.5,21 c -3.3,0 -6.3,-0.8 -9.1,-2.3 -2.7,-1.6 -5,-3.8 -6.7,-6.7 -1.6,-2.9 -2.5,-6.3 -2.5,-10.1 0,-5.8 1.6,-10.4 4.8,-13.8 3.2,-3.5 7.6,-5.2 13.1,-5.2 3.1,0 5.9,0.8 8.4,2.3 2.5,1.5 4.3,3.3 5.2,5.4 l -0.4,-6.2 v -22.4 h 8.4 v 58.3 h -8.2 l -0.2,-6.4 c -0.9,1.9 -2.5,3.6 -4.9,5.1 -2.3,1.3 -4.9,2 -7.9,2 z m 1.4,-7.2 c 3,0 5.5,-1 7.6,-3.1 2.1,-2.1 3.1,-4.9 3.1,-8.2 v -0.6 c 0,-2.3 -0.5,-4.3 -1.4,-6.1 -1,-1.8 -2.2,-3.2 -3.9,-4.2 -1.6,-1 -3.4,-1.5 -5.4,-1.5 -3.4,0 -6,1.1 -7.8,3.3 -1.8,2.2 -2.8,5 -2.8,8.5 0,3.5 0.9,6.4 2.7,8.6 1.9,2.2 4.5,3.3 7.9,3.3 z"
   id="path6" />
<path
   id="Rectangle-2"
   class="st1"
   d="m -75.8,56.7 v 21 h 62.9 v -21 z m 0,-29.3 v 21 h 62.9 v -21 z m 0,-29.4 v 21 h 62.9 V -2 Z m 31.5,-8.4 c 8.1,0 14.7,-6.6 14.7,-14.7 0,-8.1 -6.6,-14.7 -14.7,-14.7 -8.1,0 -14.7,6.7 -14.7,14.8 0,8.1 6.6,14.6 14.7,14.6 z" />
<path
   id="Rectangle-5"
   class="st0"
   d="m -4.5,56.7 v 21 h 62.9 v -21 z m 0,-29.3 v 21 h 62.9 v -21 z M 26.9,19 C 35,19 41.6,12.4 41.6,4.3 41.6,-3.8 35,-10.4 26.9,-10.4 18.8,-10.4 12.2,-3.8 12.2,4.3 12.3,12.4 18.8,19 26.9,19 Z" />
<path
   id="Rectangle-6"
   class="st2"
   d="m -147.1,56.7 v 21 h 62.9 v -21 z m 31.5,-8.3 c 8.1,0 14.7,-6.6 14.7,-14.7 0,-8.1 -6.6,-14.7 -14.7,-14.7 -8.1,0 -14.7,6.6 -14.7,14.7 0,8.1 6.6,14.7 14.7,14.7 z" />
</svg>
