<?xml version="1.0" encoding="UTF-8" standalone="no"?>
<svg
   xmlns:dc="http://purl.org/dc/elements/1.1/"
   xmlns:cc="http://creativecommons.org/ns#"
   xmlns:rdf="http://www.w3.org/1999/02/22-rdf-syntax-ns#"
   xmlns:svg="http://www.w3.org/2000/svg"
   xmlns="http://www.w3.org/2000/svg"
   xmlns:sodipodi="http://sodipodi.sourceforge.net/DTD/sodipodi-0.dtd"
   xmlns:inkscape="http://www.inkscape.org/namespaces/inkscape"
   width="240"
   height="180"
   viewBox="0 0 63.499999 47.625"
   version="1.1"
   id="svg959"
   inkscape:version="1.0.1 (3bc2e813f5, 2020-09-07)"
   sodipodi:docname="Douyu-logo_geg.svg">
  <defs
     id="defs953" />
  <sodipodi:namedview
     id="base"
     pagecolor="#ffffff"
     bordercolor="#666666"
     borderopacity="1.0"
     inkscape:pageopacity="1"
     inkscape:pageshadow="2"
     inkscape:zoom="1.4"
     inkscape:cx="153.44579"
     inkscape:cy="175.12758"
     inkscape:document-units="mm"
     inkscape:current-layer="layer1"
     inkscape:document-rotation="0"
     showgrid="false"
     units="px"
     inkscape:window-width="1920"
     inkscape:window-height="1001"
     inkscape:window-x="-9"
     inkscape:window-y="-9"
     inkscape:window-maximized="1" />
  <metadata
     id="metadata956">
    <rdf:RDF>
      <cc:Work
         rdf:about="">
        <dc:format>image/svg+xml</dc:format>
        <dc:type
           rdf:resource="http://purl.org/dc/dcmitype/StillImage" />
        <dc:title></dc:title>
      </cc:Work>
    </rdf:RDF>
  </metadata>
  <g
     inkscape:label="Layer 1"
     inkscape:groupmode="layer"
     id="layer1">
    <g
       id="g2078"
       transform="matrix(0.97966731,0,0,0.97966731,-0.35825054,-4.0543043)">
      <path
         style="fill:#ffd45a;fill-opacity:1;stroke:#000000;stroke-width:0.264583px;stroke-linecap:butt;stroke-linejoin:miter;stroke-opacity:1"
         d="m 27.861414,34.353333 -1.235068,-1.317392 c -0.717685,-0.714427 -1.656973,-1.190847 -2.199635,-2.561611 -0.200952,-0.809395 0.180245,-1.61879 0.391814,-2.428186 0.773286,-0.444013 1.28786,-1.372315 2.719814,-1.377216 0.346968,-0.308353 0.296422,-0.868929 1.696762,-0.893682 1.27068,-0.505712 2.440832,1.168866 3.507086,2.05325 0.155131,0.617584 0.387975,1.312881 0.03005,1.41741 -0.957917,0.489108 -1.62643,0.910569 -2.628638,1.13393 l -1.647913,0.49204 c -0.397441,0.535564 -0.0452,0.890415 0.08876,1.303346 1.709474,1.28308 2.82603,0.947834 4.371538,1.25037 l 3.565962,-0.11644 0.460494,2.588206 c -2.793904,0.06336 -5.202222,-0.100228 -8.116776,-0.244846 z"
         id="path2069"
         sodipodi:nodetypes="cccccccccccccccc" />
      <ellipse
         style="opacity:0.997;fill:#cf9513;fill-opacity:1;stroke:none;stroke-width:0.480055;stroke-miterlimit:10"
         id="path2071"
         cx="7.7419968"
         cy="40.195789"
         rx="0.67652601"
         ry="1.2695303"
         transform="rotate(-34.486451)" />
      <ellipse
         style="opacity:0.997;fill:#fecb25;fill-opacity:1;stroke:none;stroke-width:0.529167;stroke-miterlimit:10"
         id="path2067"
         cx="54.235508"
         cy="33.071552"
         rx="2.5000169"
         ry="2.4082348" />
      <path
         style="fill:#fecb17;fill-opacity:1;stroke:none;stroke-width:0.264583px;stroke-linecap:butt;stroke-linejoin:miter;stroke-opacity:1"
         d="M 6.0803816,50.914844 C 1.4331648,51.348835 1.7372519,49.957169 1.7372519,49.957169 L 5.648443,31.305621 6.1631228,29.488824 17.732197,29.733038 c 1.034531,0.506471 2.968555,1.332952 3.315278,2.873843 l -0.38944,5.043033 3.376317,-1.94799 c 2.211608,0.186187 4.352346,-0.354848 6.587578,0.367301 l 33.422372,-0.02371 c -0.657148,4.237801 -1.545085,8.9948 -3.036675,13.053792 -1.519079,0.71654 -1.156746,1.244091 -5.352801,1.960631 -1.525162,-0.488396 -3.052806,-0.693392 -4.51996,-2.28395 -0.23442,-2.712415 0.513177,-4.815503 0.782239,-7.416033 -0.871755,0.341539 -1.88009,1.980586 -2.873148,3.474503 l -1.511123,5.419467 c -0.54035,0.498759 -1.459899,0.42872 -2.225206,0.590043 -0.892713,-0.244946 -1.785426,-0.105153 -2.678139,-0.797756 l 1.00226,-5.412205 -1.069078,-3.140419 -0.789161,1.432318 -1.148541,4.714881 c -0.502076,0.965869 -1.08144,1.869907 -2.204974,2.33861 -1.460404,0.678288 -2.97901,1.193609 -4.751445,0.998207 -0.94923,-0.345762 -2.112838,-0.802573 -2.999373,-1.399111 -0.771046,-0.518235 -0.629214,-1.378798 -0.935443,-2.071339 -0.385753,0.575472 -0.982152,0.931544 -1.525349,1.344283 -1.947268,2.009032 -5.185336,2.058713 -7.177818,1.733369 -1.223723,-0.449426 -1.8637,-1.365848 -2.792201,-2.051451 l -2.786151,1.881061 -3.825991,0.567241 z"
         id="path2065"
         sodipodi:nodetypes="cccccccccccccccccccccccccccccccc" />
      <path
         style="fill:#560100;fill-opacity:1;stroke-width:0.264583"
         d="m 1.4331648,51.348837 c -0.25466,-0.156728 -0.46301998,-0.579541 -0.46301998,-0.93957 0,-0.557159 3.53136998,-17.33078 4.27356998,-20.298949 0.37139,-1.485241 0.8782,-1.59472 6.5327202,-1.411091 l 4.85315,0.157611 2.35495,-1.151201 2.35495,-1.1512 -1.25499,-0.47488 c -2.23735,-0.84659 -4.68918,-2.7076 -5.46488,-4.14799 -0.43086,-0.80005 -0.4398,-0.974199 -0.0926,-1.8046 0.56379,-1.34855 3.35161,-4.70386 5.83588,-7.02386 3.76871,-3.5195 7.30813,-5.76154 10.3491,-6.55565 2.22169,-0.58017 2.16199,-0.79393 -0.17464,-0.62527 -2.24036,0.16171 -2.6757,-0.13181 -0.95855,-0.64628 0.93932,-0.28142 1.263,-0.26089 2.31511,0.1469 0.77029,0.29855 2.20271,0.51564 3.86896,0.58635 2.71822,0.11535 5.49965,0.66444 6.85111,1.3525 0.63439,0.32297 1.10137,0.33991 2.72279,0.0988 3.88384,-0.57765 6.4481,-0.28448 9.39585,1.07423 1.69293,0.78032 4.18129,2.94792 4.18129,3.6423 0,0.14729 -0.63802,0.67593 -1.41782,1.17476 -2.52321,1.61408 -3.31592,3.31882 -3.30052,7.09784 0.0106,2.594051 -0.33948,5.040461 -0.98175,6.86084 -0.59808,1.69512 -0.52028,2.08394 0.41691,2.08394 1.15743,0 2.45809,0.614701 3.14297,1.485371 0.48678,0.61885 0.57318,0.99611 0.47699,2.082589 -0.0646,0.729761 -0.20696,1.594732 -0.31632,1.922151 l -0.19885,0.59531 h 3.74333 c 2.98582,0 3.77244,0.0759 3.88719,0.374898 0.26285,0.684983 -2.21846,12.299993 -2.8438,13.311812 -1.62018,2.621521 -7.94662,3.1593 -10.2358,0.870109 -1.05375,-1.053748 -1.18178,-2.094899 -0.60242,-4.89953 0.27054,-1.309691 0.46472,-2.413141 0.43152,-2.452108 -0.0332,-0.039 -0.42871,0.620178 -0.87889,1.46481 -0.45017,0.844618 -1.06309,2.65639 -1.36206,4.026148 -0.29895,1.369761 -0.6649,2.611832 -0.81322,2.76015 -0.33409,0.334092 -3.63298,0.53972 -4.88636,0.304591 -1.21236,-0.227439 -1.37483,-0.90129 -0.81935,-3.398071 0.31496,-1.41569 0.37054,-2.320549 0.20751,-3.37793 l -0.2227,-1.44426 -0.32961,1.5875 c -0.81311,3.916029 -1.49666,5.06689 -3.62925,6.110272 -2.88507,1.411518 -7.47562,0.828947 -8.74603,-1.10994 l -0.41131,-0.62774 -1.04126,0.891278 c -1.29334,1.107051 -3.01699,1.625722 -5.25243,1.580541 -1.96939,-0.0398 -3.41671,-0.556651 -4.25338,-1.518901 l -0.58058,-0.667729 -0.84234,0.64249 c -1.77542,1.354169 -2.73893,1.523349 -9.2726602,1.628101 -4.05039,0.0649 -6.24026,0.0021 -6.54844,-0.187402 z M 15.452215,49.563976 c 0.61633,-0.328509 1.30348,-0.876389 1.527,-1.217509 0.86751,-1.324009 3.68456,-14.34492 3.40543,-15.74057 -0.20802,-1.04012 -1.38382,-2.064419 -2.6874,-2.34114 -0.54141,-0.114929 -3.2943,-0.20897 -6.11752,-0.20897 H 6.4466048 l -2.06574,9.789581 c -1.13616,5.384278 -2.0707,9.948161 -2.07677,10.141971 -0.009,0.285988 1.1232,0.335568 6.00824,0.26316 5.6483102,-0.0837 6.0883302,-0.126042 7.1398802,-0.686523 z m -6.0060302,-3.69933 c 0.9362302,-4.266829 2.6364602,-12.233439 2.6364602,-12.353398 0,-0.197051 0.9082,-0.189169 1.43357,0.01241 0.23018,0.0883 0.41851,0.43865 0.41851,0.778491 0,0.66202 -1.95601,10.217172 -2.27219,11.09971 -0.32877,0.917689 -0.96001,1.454949 -1.7094402,1.454949 -0.69965,0 -0.71711,-0.0342 -0.50691,-0.992179 z m 17.1558002,3.624631 c 0.61447,-0.345358 1.33852,-0.98964 1.60901,-1.43174 0.51813,-0.8469 1.81349,-6.21216 2.05268,-8.50201 0.12805,-1.225989 0.296029,-1.585408 -0.435891,-2.404537 -0.185518,-0.271477 -0.573969,-0.522278 -1.145866,-0.66336 l -2.507833,-0.08184 c -2.413755,-0.07877 -2.97413,0.0403 -3.98576,0.709776 -0.60378,0.39956 -1.0005,1.071894 -1.20826,1.473663 -0.20776,0.401762 -0.76569,2.594333 -1.23985,4.872382 -1.0143,4.87308 -0.92587,5.48259 0.92123,6.349979 1.50772,0.708012 4.38509,0.551899 5.94054,-0.32231 z m -3.39361,-2.16943 c 0.0267,-1.733979 1.68745,-8.46478 2.1623,-8.763439 0.98823,-0.62156 0.99518,0.163941 0.0407,4.599469 -0.51631,2.399331 -1.06216,4.511241 -1.21301,4.693142 -0.521,0.628229 -1.00384,0.370149 -0.99,-0.529172 z m 13.61282,2.68048 c 1.46427,-0.405569 2.50516,-1.20674 2.94953,-2.27026 0.33431,-0.80011 2.47441,-10.248328 2.47441,-10.924119 0,-0.157731 -0.84337,-0.267869 -2.0512,-0.267869 h -2.05122 l -1.03166,4.96094 c -1.07923,5.189619 -1.52662,6.680729 -2.00446,6.680729 -0.64243,0 -0.55463,-1.06244 0.48879,-5.914131 0.60143,-2.796519 1.09351,-5.229249 1.09351,-5.406059 0,-0.22466 -0.619,-0.321479 -2.05534,-0.321479 h -2.05535 l -1.14391,5.622398 c -0.93289,4.58511 -1.091,5.75886 -0.85705,6.36206 0.5686,1.466 3.65187,2.19574 6.24395,1.47779 z m 21.58887,-0.10973 c 1.3382,-0.472139 2.18921,-1.198819 2.61895,-2.23628 0.16806,-0.40577 0.81427,-3.077429 1.43601,-5.937038 l 1.13043,-5.19929 -2.12618,0.0762 -2.12617,0.0762 -1.15796,5.423958 c -1.14266,5.352381 -1.58505,6.523292 -2.22337,5.884971 -0.30627,-0.306282 0.008,-2.112499 1.61361,-9.26868 l 0.492,-2.19308 -2.14076,0.0764 -2.14077,0.0764 -1.13712,5.423961 c -1.1423,5.44866 -1.19306,6.083779 -0.55585,6.954959 0.8374,1.1449 4.19092,1.591501 6.31718,0.841319 z m -10.71948,-2.504599 c 0.46521,-2.09074 0.85905,-3.02536 2.34133,-5.55625 0.98012,-1.67349 2.07485,-3.548721 2.43273,-4.16719 l 0.65073,-1.124479 h -1.96889 -1.96887 l -1.01883,2.409949 -1.01885,2.409939 -0.0761,-2.409939 -0.0761,-2.409949 h -1.92207 -1.92205 l 0.57817,4.299479 c 0.57295,4.260659 0.57372,4.319791 0.0856,6.54844 -0.2709,1.23693 -0.49512,2.34347 -0.49827,2.45899 -0.003,0.115509 0.85554,0.17504 1.9082,0.132289 l 1.91392,-0.0777 z m -22.75854,-12.392779 1.57039,-0.215162 -1.14686,-0.480589 c -1.09574,-0.459161 -1.13945,-0.520049 -0.98073,-1.366099 0.10025,-0.534382 0.002,-1.36747 -0.2465,-2.100901 -0.32766,-0.965081 -0.35368,-1.434311 -0.12636,-2.2785 0.15745,-0.58473 0.21586,-1.133541 0.1298,-1.219601 -0.4514,-0.451409 -2.78082,-0.0826 -4.50852,0.713861 l -1.85208,0.85377 1.37622,0.658179 c 2.23027,1.066631 2.92309,2.73471 2.36459,5.693079 l -0.18164,0.962131 1.01565,-0.502499 c 0.55861,-0.276381 1.72233,-0.599332 2.58604,-0.717669 z m 11.4738,-0.371621 c -0.13537,-0.471979 -0.24611,-0.864301 -0.24611,-0.871831 0,-0.008 -1.0418,-0.009 -2.31511,-0.003 -2.64795,0.01169 -4.66461,-0.55436 -5.62791,-1.57975 -0.59278,-0.630979 -0.59657,-0.665639 -0.12928,-1.181979 0.26476,-0.29256 0.64154,-0.53194 0.83726,-0.53194 0.50763,0 0.44662,-0.21264 -0.32376,-1.12818 -0.4615,-0.54845 -0.63215,-0.99682 -0.53172,-1.39698 0.22706,-0.90469 -0.4255,-1.3039 -1.34996,-0.82584 -1.60794,0.8315 -2.39042,2.42483 -1.78439,3.63348 0.18734,0.37364 1.11601,1.360099 2.0637,2.192129 0.9477,0.832022 1.79733,1.746711 1.88808,2.032622 0.15391,0.48496 0.42006,0.519848 3.96516,0.519848 h 3.80016 l -0.24612,-0.858149 z m 10.56147,-0.266329 c 3.48541,-3.677641 5.06742,-7.195182 5.06742,-11.267221 0,-2.216311 -0.85573,-4.840491 -2.41581,-7.408461 -0.56309,-0.92685 -1.02379,-1.74712 -1.02379,-1.82282 0,-0.27352 0.89744,0.60988 1.5953,1.57036 l 0.71333,0.98175 0.63163,-0.68696 c 0.9097,-0.98941 3.05782,-2.3206 4.66651,-2.89186 0.76399,-0.2713 1.38908,-0.62056 1.38908,-0.77614 0,-0.49018 -1.66492,-1.89108 -3.09809,-2.60678 -0.75804,-0.37856 -2.19952,-0.82912 -3.20327,-1.00125 -1.55234,-0.26619 -2.09323,-0.24676 -3.62023,0.13007 -2.05444,0.50698 -2.60472,0.86309 -2.42075,1.56656 0.0714,0.27314 0.0499,0.45402 -0.0478,0.40196 -5.30512,-2.82718 -9.42716,-3.82688 -12.84969,-3.11636 l -1.55529,0.32288 1.04906,0.46967 c 2.14354,0.9597 2.81463,2.97461 1.59752,4.79651 -2.18059,3.26412 -7.43093,1.75005 -7.00595,-2.02034 0.16197,-1.43699 0.14106,-1.4282 -3.08542,1.29755 -2.36204,1.99545 -5.98786,6.06589 -7.0202,7.88105 l -0.55029,0.96757 0.86941,1.13987 c 1.11736,1.46496 3.37325,2.797651 5.36996,3.17237 0.8799,0.165131 2.82467,0.23753 4.41716,0.164451 2.64964,-0.121601 2.94655,-0.191841 4.32093,-1.022241 1.43758,-0.86857 3.63368,-2.88394 4.1522,-3.81049 0.14178,-0.25332 0.24425,-1.24803 0.22773,-2.21046 l -0.03,-1.74989 0.50876,1.11515 c 0.50983,1.117491 1.34551,1.604881 2.46121,1.43545 0.66219,-0.10056 0.57143,0.360221 -0.16614,0.84349 -0.45534,0.29836 -0.68065,0.763581 -0.8156,1.684081 -0.24618,1.67919 -1.02065,3.40562 -1.68795,3.762749 -0.29517,0.15796 -1.34066,0.28721 -2.32334,0.28721 h -1.78669 l 0.74204,0.77452 c 0.40813,0.42599 1.10237,0.92378 1.54276,1.1062 0.75209,0.311521 0.84637,0.280561 1.55268,-0.50995 0.87409,-0.978269 1.02402,-1.02684 1.02402,-0.3317 0,1.08755 -3.73487,3.193971 -6.82775,3.85079 -1.1717,0.248831 -1.02934,0.905032 0.34546,1.59243 0.85797,0.42899 1.58428,0.52873 3.83645,0.52683 2.44229,-0.0021 2.9579,-0.0863 4.26509,-0.697209 1.99173,-0.93079 3.62666,-2.45396 4.36104,-4.06295 l 0.60381,-1.322921 0.0152,1.13039 c 0.0131,0.97151 -0.14206,1.301041 -1.10384,2.344451 -0.61548,0.66772 -1.70948,1.551239 -2.43107,1.96336 -1.13795,0.649909 -1.35263,0.90928 -1.61815,1.95504 l -0.30614,1.20572 h 4.30087 4.30087 z M 19.501575,21.337307 c -0.29651,-0.357269 -0.21462,-0.40964 0.64051,-0.40964 0.66609,0 0.94556,0.106051 0.87157,0.33072 -0.1632,0.495571 -1.12465,0.54575 -1.51208,0.0789 z m 26.49772,-10.66024 c 0.18565,-0.964 3.32033,-1.74121 5.55725,-1.37784 0.99768,0.16206 0.89248,0.18997 -0.84473,0.22405 -2.00135,0.0393 -4.23333,0.74433 -4.23333,1.33728 0,0.15264 -0.1278,0.27752 -0.284,0.27752 -0.15618,0 -0.24403,-0.20745 -0.19519,-0.46101 z m 9.03651,23.97975 c 1.29213,-0.58873 1.5919,-2.28106 0.58283,-3.29014 -1.72725,-1.727239 -4.46172,0.390989 -3.30204,2.55789 0.48164,0.899922 1.65672,1.216361 2.71921,0.73225 z m -1.75323,-0.972061 c -0.21299,-0.42409 -0.16455,-1.628798 0.0713,-1.774589 0.28907,-0.17866 1.8558,0.56556 1.8558,0.881541 0,0.288669 -1.80955,1.12722 -1.92715,0.893048 z m -26.89009,-0.364839 c -0.8614,-0.78295 -0.92052,-0.798399 -1.263,-0.330038 -0.3274,0.447749 -0.27067,0.51889 0.63912,0.80142 1.52557,0.473749 1.601,0.416758 0.62388,-0.471382 z m 3.50117,-4.088539 c -0.1284,-0.3346 -0.20397,-0.345271 -0.40829,-0.0577 -0.17966,0.25291 -0.21446,0.18698 -0.12278,-0.23267 0.0712,-0.325769 -0.0389,-0.724019 -0.24803,-0.8976 -0.77648,-0.64443 -0.64687,0.15528 0.25183,1.553651 0.29037,0.45181 0.72522,0.15019 0.52727,-0.365711 z m 1.90895,0.30875 c 1.19294,-0.498441 1.18025,-1.117801 -0.048,-2.34608 -1.13341,-1.13341 -2.42918,-1.486031 -3.27742,-0.891901 l -0.57135,0.40019 0.67876,0.44474 c 0.37331,0.244611 1.01006,0.969151 1.41497,1.610111 0.40494,0.64095 0.76981,1.165579 0.81087,1.165839 0.041,2.61e-4 0.48753,-0.17205 0.9922,-0.382899 z m 0.10174,-4.54429 c 0.0606,-0.0547 0.0386,-0.171101 -0.049,-0.2587 -0.0876,-0.0876 -0.43487,0.0425 -0.7717,0.28908 l -0.61242,0.44835 0.66145,-0.189651 c 0.36381,-0.104309 0.71107,-0.2344 0.77171,-0.289079 z m 1.29558,-0.564611 c 0.0883,-0.913869 0.28221,-1.04824 0.78581,-0.544639 0.4478,0.447789 0.71505,0.0584 0.41755,-0.608371 -0.24615,-0.551629 -0.27514,-0.54317 -1.2322,0.359441 -1.04322,0.983889 -1.31256,1.889699 -0.51708,1.739009 0.30494,-0.0578 0.49132,-0.380539 0.54592,-0.94544 z m 1.04783,0.507801 c 0.25741,-0.163361 0.21055,-0.328291 -0.19843,-0.69841 -0.52474,-0.47488 -0.53543,-0.47053 -0.53543,0.21791 0,0.731939 0.16621,0.840759 0.73386,0.4805 z m 0.94134,-1.679401 c -0.54895,-0.606559 -0.58599,-0.557 -0.41655,0.55748 0.12697,0.83525 0.16521,0.86729 0.49567,0.415361 0.30581,-0.418211 0.29427,-0.560251 -0.0791,-0.972841 z m 0.21826,-0.97991 c -0.16369,-0.80029 -0.22048,-0.84781 -0.54544,-0.45627 -0.31095,0.37469 -0.29482,0.51209 0.11315,0.96288 0.60102,0.66412 0.65805,0.59727 0.43229,-0.50661 z m 0.72972,-1.35205 c 0.0115,-0.521329 -0.0398,-0.57738 -0.24193,-0.264589 -0.14107,0.218279 -0.24993,0.754059 -0.24194,1.190629 0.0125,0.681491 0.0467,0.718911 0.24194,0.26458 0.12507,-0.29104 0.23394,-0.82682 0.24193,-1.19062 z m -4.39107,-7.04181 c 0.99649,-0.47519 1.76842,-1.57788 1.7669,-2.52402 -0.002,-0.91663 -0.91531,-2.25339 -1.88234,-2.75346 -1.02612,-0.53062 -2.39786,-0.22237 -3.63211,0.81618 -2.74769,2.31202 0.39906,6.05808 3.74755,4.4613 z m -2.46544,-0.63111 c -0.26458,-0.17099 -0.28664,-0.25783 -0.0661,-0.26053 0.1819,-0.002 0.33072,-0.24218 0.33072,-0.53322 0,-0.57746 -0.6771,-0.7323 -0.86777,-0.19844 -0.17149,0.48017 -0.42527,0.14939 -0.61563,-0.80244 -0.13826,-0.69135 -0.0316,-0.96437 0.63835,-1.63436 0.5035,-0.5035 1.07469,-0.80434 1.52717,-0.80434 0.6971,0 0.70639,0.0181 0.26108,0.5102 -0.93188,1.02973 0.17203,2.24135 1.34304,1.47407 0.60443,-0.39603 0.62391,-0.38575 0.61578,0.32473 -0.0179,1.55762 -1.93307,2.72149 -3.1666,1.92433 z"
         id="path1997-4"
         sodipodi:nodetypes="cssccccssccssccsccssscssssscscssscscsssccccscssscscccscssscsccscscsssccsccccscsssscsssccssssccsssscccsscsccccsccccscscsccccccccccssccccscsscssccssccscscsssssssccsccccscsccssssccccscccscscsscccccsscscscsccsssccsccssscccccsscccscsscsccsccsccssssccccsccccscccscccsccsccccccccssssccscccccccccscscsssccssscsccccc" />
    </g>
  </g>
</svg>
