<?xml version="1.0" encoding="UTF-8" standalone="no"?> <!-- Created with Vectornator for iOS (http://vectornator.io/) --><!DOCTYPE svg PUBLIC "-//W3C//DTD SVG 1.1//EN" "http://www.w3.org/Graphics/SVG/1.1/DTD/svg11.dtd">
<svg xmlns:vectornator="http://vectornator.io" height="100%" xmlns:xlink="http://www.w3.org/1999/xlink" xml:space="preserve" viewBox="0 0 130 130" width="100%" version="1.1" xmlns="http://www.w3.org/2000/svg" style="fill-rule:nonzero;clip-rule:evenodd;stroke-linecap:round;stroke-linejoin:round;">
<metadata>
<vectornator:setting value="false" key="VNPencilOnly"/>
<vectornator:setting value="false" key="IsTimeLapseWatermarkDisabled"/>
<vectornator:setting key="UndoHistoryDisabled" value="false"/>
<vectornator:setting key="WDSnapToGrid" value="false"/>
<vectornator:setting key="WDCMYKEnabledKey" value="false"/>
<vectornator:setting value="Points" key="WDUnits"/>
<vectornator:setting key="WDSnapToPoints" value="false"/>
<vectornator:setting value="true" key="VNSnapToGuides"/>
<vectornator:setting key="WDDisplayWhiteBackground" value="false"/>
<vectornator:setting value="false" key="WDSnapToEdges"/>
<vectornator:setting value="false" key="WDOutlineMode"/>
<vectornator:setting key="VNDimensionsVisible" value="true"/>
<vectornator:setting key="WDIsolateActiveLayer" value="false"/>
<vectornator:setting key="WDRulersVisible" value="true"/>
<vectornator:setting value="true" key="WDGuidesVisible"/>
<vectornator:setting value="false" key="WDDynamicGuides"/>
</metadata>
<defs/>
<g id="layer1" vectornator:layerName="layer1">
<g opacity="1">
<path stroke-linecap="butt" opacity="1" stroke="#377e7f" stroke-width="1.60867" stroke-linejoin="miter" d="M60.3887+30.3151C60.3887+27.3341+62.8052+24.9176+65.7862+24.9176C68.7672+24.9176+71.1837+27.3341+71.1837+30.3151C71.1837+33.2961+68.7672+35.7126+65.7862+35.7126C62.8052+35.7126+60.3887+33.2961+60.3887+30.3151Z" fill="none"/>
<path stroke="#377e7f" d="M52.2042+48.2009C52.0914+46.9556+52.3524+42.7117+52.3101+42.3872C52.2677+42.0591+54.8642+39.4168+55.732+38.6336" stroke-width="1.60867" opacity="1" fill="none" stroke-linecap="butt" stroke-linejoin="miter"/>
<path stroke-width="1.60867" stroke="#377e7f" d="M80.0878+48.2009C80.2007+46.9556+79.9396+42.7117+79.982+42.3872C80.0243+42.0591+77.4279+39.4168+76.56+38.6336" stroke-linejoin="miter" stroke-linecap="butt" opacity="1" fill="none"/>
<path fill="none" d="M60.3922+56.4559L49.763+74.2888" opacity="1" stroke-linecap="round" stroke-width="1.60867" stroke="#808080" stroke-linejoin="round"/>
<path d="M65.7932+56.4559L65.765+74.6593" stroke-width="1.60867" stroke-linejoin="round" fill="none" stroke-linecap="round" opacity="1" stroke="#808080"/>
<path fill="none" stroke-linejoin="round" d="M71.1837+56.4559L82.2433+74.7651" stroke="#808080" stroke-width="1.60867" stroke-linecap="round" opacity="1"/>
<path d="M38.1214+20.0493L93.3663+20.0493" stroke="#808080" stroke-linecap="round" opacity="1" stroke-width="1.60867" fill="none" stroke-linejoin="round"/>
<path stroke="#808080" opacity="1" stroke-width="1.60867" fill="none" d="M41.7534+20.0407L41.7534+55.6626" stroke-linecap="round" stroke-linejoin="round"/>
<path stroke-width="1.60867" d="M89.8189+20.1235L89.8189+55.7455" opacity="1" fill="none" stroke-linecap="round" stroke-linejoin="round" stroke="#808080"/>
<path fill="none" d="M57.764+40.0271C57.764+37.3848+59.9054+35.2469+62.5477+35.2469C62.9745+35.254+65.3099+42.0238+65.7368+42.0308C67.2714+39.064+66.333+40.9619+69.067+35.2469C71.7093+35.2469+73.8507+37.3848+73.8507+40.0271L73.8507+47.1885C73.8507+49.8308+71.7093+51.9686+69.067+51.9686L62.5477+51.9686C59.9054+51.9686+57.764+49.8308+57.764+47.1885L57.764+40.0271Z" opacity="1" stroke="#377e7f" stroke-width="1.60867" stroke-linecap="butt" stroke-linejoin="miter"/>
<path fill="#ffffff" opacity="1" fill-rule="evenodd" d="M48.239+50.2118C48.239+49.5203+48.7964+48.9629+49.4878+48.9629L82.1692+48.9629C82.8606+48.9629+83.418+49.5203+83.418+50.2118L83.418+55.2071C83.418+55.8985+82.8606+56.4559+82.1692+56.4559L49.4878+56.4559C48.7964+56.4559+48.239+55.8985+48.239+55.2071L48.239+50.2118Z"/>
<path stroke="#377e7f" d="M48.239+49.8324C48.239+49.1248+48.7964+48.5543+49.4878+48.5543L82.1692+48.5543C82.8606+48.5543+83.418+49.1248+83.418+49.8324L83.418+54.9448C83.418+55.6524+82.8606+56.2229+82.1692+56.2229L49.4878+56.2229C48.7964+56.2229+48.239+55.6524+48.239+54.9448L48.239+49.8324Z" opacity="1" fill="none" stroke-linecap="butt" stroke-width="1.60867" stroke-linejoin="miter"/>
<path stroke-linejoin="round" stroke-width="1.60867" d="M38.1214+56.2443L93.3663+56.2443" stroke-linecap="round" opacity="1" fill="none" stroke="#808080"/>
</g>
<g opacity="1">
<path fill="#808080" d="M21.8912+99.2735L21.8912+88.6901L27.7755+88.6901L27.7755+89.8614L24.2477+89.8614L24.2477+93.3891L26.6043+93.3891L26.6043+94.5745L24.2477+94.5745L24.2477+98.1023L27.7755+98.1023L27.7755+99.2735L21.8912+99.2735Z" opacity="1"/>
<path d="M37.1735+99.2735L34.8311+99.2735L34.8311+98.1023C34.737+98.8831+34.3419+99.2735+33.6457+99.2735L32.4745+99.2735C31.8348+99.2735+31.2821+99.043+30.8165+98.582C30.3508+98.1211+30.118+97.566+30.118+96.9169L30.118+93.3891C30.118+92.7494+30.3508+92.1991+30.8165+91.7381C31.2821+91.2772+31.8348+91.0467+32.4745+91.0467L34.8311+91.0467L34.8311+88.6901L37.1735+88.6901L37.1735+99.2735ZM34.8311+92.2179L33.6457+92.2179C33.3259+92.2179+33.0507+92.3332+32.8202+92.5636C32.5898+92.7941+32.4745+93.0693+32.4745+93.3891L32.4745+96.9169C32.4745+97.2368+32.5898+97.5143+32.8202+97.7495C33.0507+97.9847+33.3259+98.1023+33.6457+98.1023C33.975+98.1023+34.2549+97.9847+34.4853+97.7495C34.7158+97.5143+34.8311+97.2368+34.8311+96.9169L34.8311+92.2179Z" fill="#808080" opacity="1"/>
<path opacity="1" fill="#808080" d="M46.5856+91.0467L46.5856+99.2735L44.2432+99.2735L44.2432+98.1023C44.1491+98.8831+43.754+99.2735+43.0579+99.2735L41.8866+99.2735C41.2469+99.2735+40.6942+99.043+40.2286+98.582C39.7629+98.1211+39.5301+97.566+39.5301+96.9169L39.5301+91.0467L41.8866+91.0467L41.8866+96.9169C41.8866+97.2368+42.0019+97.5143+42.2324+97.7495C42.4628+97.9847+42.738+98.1023+43.0579+98.1023C43.3871+98.1023+43.667+97.9847+43.8975+97.7495C44.1279+97.5143+44.2432+97.2368+44.2432+96.9169L44.2432+91.0467L46.5856+91.0467Z"/>
<path d="M54.8265+93.3891L53.6553+93.3891C53.5612+92.6083+53.1661+92.2179+52.47+92.2179C52.1501+92.2179+51.875+92.3332+51.6445+92.5636C51.414+92.7941+51.2988+93.0693+51.2988+93.3891L51.2988+96.9169C51.2988+97.2368+51.414+97.5143+51.6445+97.7495C51.875+97.9847+52.1501+98.1023+52.47+98.1023C53.1661+98.1023+53.5612+97.7071+53.6553+96.9169L54.8265+96.9169C54.7325+98.488+53.9469+99.2735+52.47+99.2735L51.2988+99.2735C50.659+99.2735+50.1064+99.043+49.6407+98.582C49.175+98.1211+48.9422+97.566+48.9422+96.9169L48.9422+93.3891C48.9422+92.7494+49.175+92.1991+49.6407+91.7381C50.1064+91.2772+50.659+91.0467+51.2988+91.0467L52.47+91.0467C53.9563+91.0467+54.7419+91.8275+54.8265+93.3891Z" fill="#808080" opacity="1"/>
<path opacity="1" fill="#808080" d="M61.8821+94.5745L61.8821+93.3891C61.8821+93.0693+61.7669+92.7941+61.5364+92.5636C61.3059+92.3332+61.026+92.2179+60.6968+92.2179L59.5255+92.2179C58.8294+92.2179+58.439+92.6083+58.3543+93.3891L57.169+93.3891C57.3571+91.8275+58.1426+91.0467+59.5255+91.0467L61.8821+91.0467C62.5218+91.0467+63.0721+91.2772+63.5331+91.7381C63.9941+92.1991+64.2245+92.7494+64.2245+93.3891L64.2245+99.2735L61.8821+99.2735L61.8821+98.1023C61.788+98.8831+61.3929+99.2735+60.6968+99.2735L59.5255+99.2735C58.8858+99.2735+58.3331+99.043+57.8675+98.582C57.4018+98.1211+57.169+97.566+57.169+96.9169C57.169+96.2772+57.4018+95.7269+57.8675+95.2659C58.3331+94.805+58.8858+94.5745+59.5255+94.5745L61.8821+94.5745ZM61.8821+95.7457L60.6968+95.7457C60.3769+95.7457+60.1017+95.8609+59.8713+96.0914C59.6408+96.3219+59.5255+96.5971+59.5255+96.9169C59.5255+97.2368+59.6408+97.5143+59.8713+97.7495C60.1017+97.9847+60.3769+98.1023+60.6968+98.1023C61.026+98.1023+61.3059+97.9847+61.5364+97.7495C61.7669+97.5143+61.8821+97.2368+61.8821+96.9169L61.8821+95.7457Z"/>
<path opacity="1" fill="#808080" d="M67.7664+88.6901L70.1089+88.6901L70.1089+91.0467L71.2942+91.0467L71.2942+92.2179L70.1089+92.2179L70.1089+96.9169C70.1089+97.3026+70.2359+97.5966+70.4899+97.7989C70.7439+98.0011+70.9744+98.1023+71.1813+98.1023L71.2942+98.1023L71.2942+99.2735L70.1089+99.2735C69.4692+99.2735+68.9188+99.043+68.4579+98.582C67.9969+98.1211+67.7664+97.566+67.7664+96.9169L67.7664+92.2179L66.5811+92.2179L66.5811+91.0467L67.7664+91.0467L67.7664+88.6901Z"/>
<path fill="#808080" opacity="1" d="M73.6367+89.8614L73.6367+88.6901L75.9932+88.6901L75.9932+89.8614L73.6367+89.8614ZM73.6367+99.2735L73.6367+91.0467L75.9932+91.0467L75.9932+99.2735L73.6367+99.2735Z"/>
<path opacity="1" fill="#808080" d="M80.6922+91.0467L83.0488+91.0467C83.6885+91.0467+84.2388+91.2772+84.6998+91.7381C85.1607+92.1991+85.3912+92.7494+85.3912+93.3891L85.3912+96.9169C85.3912+97.5566+85.1607+98.1093+84.6998+98.575C84.2388+99.0406+83.6885+99.2735+83.0488+99.2735L80.6922+99.2735C80.0525+99.2735+79.4998+99.043+79.0342+98.582C78.5685+98.1211+78.3357+97.566+78.3357+96.9169L78.3357+93.3891C78.3357+92.7494+78.5685+92.1991+79.0342+91.7381C79.4998+91.2772+80.0525+91.0467+80.6922+91.0467ZM80.6922+93.3891L80.6922+96.9169C80.6922+97.2368+80.8075+97.5143+81.0379+97.7495C81.2684+97.9847+81.5436+98.1023+81.8634+98.1023C82.1927+98.1023+82.4726+97.9847+82.7031+97.7495C82.9335+97.5143+83.0488+97.2368+83.0488+96.9169L83.0488+93.3891C83.0488+93.0693+82.9335+92.7941+82.7031+92.5636C82.4726+92.3332+82.1927+92.2179+81.8634+92.2179C81.5436+92.2179+81.2684+92.3332+81.0379+92.5636C80.8075+92.7941+80.6922+93.0693+80.6922+93.3891Z"/>
<path d="M87.7478+99.2735L87.7478+91.0467L90.1043+91.0467L90.1043+92.2179C90.1514+91.8228+90.2737+91.5288+90.4712+91.336C90.6688+91.1431+90.9369+91.0467+91.2756+91.0467L92.4609+91.0467C93.1006+91.0467+93.6509+91.2772+94.1119+91.7381C94.5729+92.1991+94.8033+92.7494+94.8033+93.3891L94.8033+99.2735L92.4609+99.2735L92.4609+93.3891C92.4609+93.0693+92.3457+92.7941+92.1152+92.5636C91.8847+92.3332+91.6048+92.2179+91.2756+92.2179C90.9557+92.2179+90.6805+92.3332+90.4501+92.5636C90.2196+92.7941+90.1043+93.0693+90.1043+93.3891L90.1043+99.2735L87.7478+99.2735Z" fill="#808080" opacity="1"/>
<path d="M101.873+94.5745L101.873+93.3891C101.873+93.0693+101.758+92.7941+101.527+92.5636C101.297+92.3332+101.017+92.2179+100.688+92.2179L99.5165+92.2179C98.8203+92.2179+98.4299+92.6083+98.3452+93.3891L97.1599+93.3891C97.348+91.8275+98.1336+91.0467+99.5165+91.0467L101.873+91.0467C102.513+91.0467+103.063+91.2772+103.524+91.7381C103.985+92.1991+104.215+92.7494+104.215+93.3891L104.215+99.2735L101.873+99.2735L101.873+98.1023C101.779+98.8831+101.384+99.2735+100.688+99.2735L99.5165+99.2735C98.8767+99.2735+98.3241+99.043+97.8584+98.582C97.3927+98.1211+97.1599+97.566+97.1599+96.9169C97.1599+96.2772+97.3927+95.7269+97.8584+95.2659C98.3241+94.805+98.8767+94.5745+99.5165+94.5745L101.873+94.5745ZM101.873+95.7457L100.688+95.7457C100.368+95.7457+100.093+95.8609+99.8622+96.0914C99.6317+96.3219+99.5165+96.5971+99.5165+96.9169C99.5165+97.2368+99.6317+97.5143+99.8622+97.7495C100.093+97.9847+100.368+98.1023+100.688+98.1023C101.017+98.1023+101.297+97.9847+101.527+97.7495C101.758+97.5143+101.873+97.2368+101.873+96.9169L101.873+95.7457Z" opacity="1" fill="#808080"/>
<path opacity="1" d="M106.572+99.2735L106.572+88.6901L108.929+88.6901L108.929+99.2735L106.572+99.2735Z" fill="#808080"/>
</g>
</g>
</svg>
