<?xml version="1.0" encoding="UTF-8" standalone="no"?> <!-- Created with Vectornator for iOS (http://vectornator.io/) --><!DOCTYPE svg PUBLIC "-//W3C//DTD SVG 1.1//EN" "http://www.w3.org/Graphics/SVG/1.1/DTD/svg11.dtd">
<svg width="100%" version="1.1" viewBox="0 0 130 130" style="fill-rule:nonzero;clip-rule:evenodd;stroke-linecap:round;stroke-linejoin:round;" xmlns="http://www.w3.org/2000/svg" xmlns:vectornator="http://vectornator.io" xmlns:xlink="http://www.w3.org/1999/xlink" xml:space="preserve" height="100%">
<metadata>
<vectornator:setting key="WDSnapToEdges" value="false"/>
<vectornator:setting key="WDCMYKEnabledKey" value="false"/>
<vectornator:setting key="IsTimeLapseWatermarkDisabled" value="false"/>
<vectornator:setting key="WDIsolateActiveLayer" value="false"/>
<vectornator:setting key="WDDynamicGuides" value="false"/>
<vectornator:setting key="VNSnapToGuides" value="true"/>
<vectornator:setting key="WDSnapToPoints" value="false"/>
<vectornator:setting value="false" key="VNPencilOnly"/>
<vectornator:setting key="WDUnits" value="Points"/>
<vectornator:setting key="VNDimensionsVisible" value="true"/>
<vectornator:setting value="false" key="UndoHistoryDisabled"/>
<vectornator:setting key="WDSnapToGrid" value="false"/>
<vectornator:setting value="false" key="WDDisplayWhiteBackground"/>
<vectornator:setting key="WDRulersVisible" value="true"/>
<vectornator:setting key="WDOutlineMode" value="false"/>
<vectornator:setting value="true" key="WDGuidesVisible"/>
</metadata>
<defs/>
<g vectornator:layerName="layer1" id="layer1">
<g opacity="1">
<path stroke-linecap="butt" fill="none" d="M40.5986+48.449C40.5986+35.0858+51.4289+24.2555+64.7921+24.2555C78.1553+24.2555+88.9856+35.0858+88.9856+48.449C88.9856+61.8122+78.1553+72.6425+64.7921+72.6425C51.4289+72.6425+40.5986+61.8122+40.5986+48.449Z" stroke-dasharray="1.6086665391921997,1.6086665391921997" opacity="1" stroke-width="1.60867" stroke="#808080" stroke-linejoin="miter"/>
<path d="M53.6796+16.7307C53.6796+15.6512+54.558+14.7728+55.6375+14.7728L73.862+14.7728C74.9415+14.7728+75.8199+15.6512+75.8199+16.7307L75.8199+31.1452C75.8199+32.2247+74.9415+33.1031+73.862+33.1031L55.6375+33.1031C54.558+33.1031+53.6796+32.2247+53.6796+31.1452L53.6796+16.7307Z" fill="#ffffff" opacity="1"/>
<path stroke-linecap="butt" stroke="#808080" fill="none" d="M53.6796+16.7307C53.6796+15.6512+54.558+14.7728+55.6375+14.7728L73.862+14.7728C74.9415+14.7728+75.8199+15.6512+75.8199+16.7307L75.8199+31.1452C75.8199+32.2247+74.9415+33.1031+73.862+33.1031L55.6375+33.1031C54.558+33.1031+53.6796+32.2247+53.6796+31.1452L53.6796+16.7307Z" opacity="1" stroke-width="1.60867" stroke-linejoin="miter"/>
<path d="M61.5113+20.636C61.5113+18.9426+62.8871+17.5668+64.5804+17.5668C66.2738+17.5668+67.6496+18.9426+67.6496+20.636C67.6496+22.3293+66.2738+23.7051+64.5804+23.7051C62.8871+23.7051+61.5113+22.3293+61.5113+20.636Z" fill="none" stroke="#f7cd44" opacity="1" stroke-linejoin="miter" stroke-width="1.60867" stroke-linecap="butt"/>
<path opacity="1" d="M57.405+28.6405C57.405+27.1306+58.6291+25.9065+60.139+25.9065L68.7679+25.9065C70.2778+25.9065+71.502+27.1306+71.502+28.6405L71.502+30.2421C71.502+31.752+70.2778+32.9761+68.7679+32.9761L60.139+32.9761C58.6291+32.9761+57.405+31.752+57.405+30.2421L57.405+28.6405Z" fill="#ffffff"/>
<path opacity="1" stroke-width="1.60867" fill="none" d="M57.405+28.6405C57.405+27.1306+58.6291+25.9065+60.139+25.9065L68.7679+25.9065C70.2778+25.9065+71.502+27.1306+71.502+28.6405L71.502+30.2421C71.502+31.752+70.2778+32.9761+68.7679+32.9761L60.139+32.9761C58.6291+32.9761+57.405+31.752+57.405+30.2421L57.405+28.6405Z" stroke-linejoin="miter" stroke="#f7cd44" stroke-linecap="butt"/>
<path fill="none" d="M60.5588+28.6793L60.5588+31.9249" stroke="#f7cd44" stroke-linecap="butt" stroke-width="1.05833" opacity="1" stroke-linejoin="miter"/>
<path opacity="1" stroke-width="1.05833" stroke="#f7cd44" stroke-linecap="butt" fill="none" stroke-linejoin="miter" d="M68.6868+28.6793L68.6868+31.9249"/>
<path d="M52.9176+33.3995C52.9176+32.3482+51.6476+31.0711+52.6989+31.0711L76.7513+31.177C77.6967+31.6532+76.5855+32.3482+76.5855+33.3995L76.5855+33.3995C76.215+34.5566+75.7353+35.3045+74.6875+35.3045L54.8155+35.3045C53.7678+35.3045+52.9176+34.4507+52.9176+33.3995Z" fill="#ffffff" opacity="1"/>
<path fill="none" stroke-linecap="butt" stroke-linejoin="miter" stroke="#808080" d="M52.9176+33.3995C52.9176+32.3482+51.6476+31.0711+52.6989+31.0711L76.7513+31.177C77.6967+31.6532+76.5855+32.3482+76.5855+33.3995L76.5855+33.3995C76.215+34.5566+75.7353+35.3045+74.6875+35.3045L54.8155+35.3045C53.7678+35.3045+52.9176+34.4507+52.9176+33.3995Z" opacity="1" stroke-width="1.60867"/>
<g opacity="1">
<path fill="#ffffff" d="M76.6243+49.1192C76.6243+48.0362+77.5027+47.1578+78.5857+47.1578L96.8031+47.1578C97.8862+47.1578+98.7646+48.0362+98.7646+49.1192L98.7646+63.569C98.7646+64.6521+97.8862+65.5305+96.8031+65.5305L78.5857+65.5305C77.5027+65.5305+76.6243+64.6521+76.6243+63.569L76.6243+49.1192Z" opacity="1"/>
<path fill="none" stroke="#808080" d="M76.6243+49.1192C76.6243+48.0362+77.5027+47.1578+78.5857+47.1578L96.8031+47.1578C97.8862+47.1578+98.7646+48.0362+98.7646+49.1192L98.7646+63.569C98.7646+64.6521+97.8862+65.5305+96.8031+65.5305L78.5857+65.5305C77.5027+65.5305+76.6243+64.6521+76.6243+63.569L76.6243+49.1192Z" opacity="1" stroke-width="1.60867" stroke-linecap="butt" stroke-linejoin="miter"/>
<path stroke-linejoin="miter" stroke-width="1.60867" d="M84.456+53.0421C84.456+51.3347+85.8388+49.9518+87.5463+49.9518C89.2537+49.9518+90.6366+51.3347+90.6366+53.0421C90.6366+54.7496+89.2537+56.1325+87.5463+56.1325C85.8388+56.1325+84.456+54.7496+84.456+53.0421Z" fill="none" opacity="1" stroke="#f7cd44" stroke-linecap="butt"/>
<path opacity="1" d="M80.3496+61.0502C80.3496+59.5509+81.5667+58.3338+83.066+58.3338L91.7302+58.3338C93.2295+58.3338+94.4466+59.5509+94.4466+61.0502L94.4466+62.6447C94.4466+64.1441+93.2295+65.3611+91.7302+65.3611L83.066+65.3611C81.5667+65.3611+80.3496+64.1441+80.3496+62.6447L80.3496+61.0502Z" fill="#ffffff"/>
<path stroke-linejoin="miter" stroke-linecap="butt" opacity="1" stroke-width="1.60867" fill="none" stroke="#f7cd44" d="M80.3496+61.0502C80.3496+59.5509+81.5667+58.3338+83.066+58.3338L91.7302+58.3338C93.2295+58.3338+94.4466+59.5509+94.4466+61.0502L94.4466+62.6447C94.4466+64.1441+93.2295+65.3611+91.7302+65.3611L83.066+65.3611C81.5667+65.3611+80.3496+64.1441+80.3496+62.6447L80.3496+61.0502Z"/>
<path d="M83.5034+61.1066L83.5034+64.3522" stroke="#f7cd44" stroke-linejoin="miter" stroke-width="1.05833" fill="none" opacity="1" stroke-linecap="butt"/>
<path stroke="#f7cd44" fill="none" opacity="1" stroke-width="1.05833" d="M91.6738+61.1066L91.6738+64.3522" stroke-linejoin="miter" stroke-linecap="butt"/>
<path d="M75.8623+65.8056C75.8623+64.7614+74.5923+63.4985+75.6435+63.4985L99.6959+63.6043C100.641+64.077+99.5301+64.7614+99.5301+65.8056L99.5301+65.8056C99.1597+66.9522+98.6799+67.6895+97.6322+67.6895L77.7602+67.6895C76.7124+67.6895+75.8623+66.8463+75.8623+65.8056Z" fill="#ffffff" opacity="1"/>
<path d="M75.8623+65.8056C75.8623+64.7614+74.5923+63.4985+75.6435+63.4985L99.6959+63.6043C100.641+64.077+99.5301+64.7614+99.5301+65.8056L99.5301+65.8056C99.1597+66.9522+98.6799+67.6895+97.6322+67.6895L77.7602+67.6895C76.7124+67.6895+75.8623+66.8463+75.8623+65.8056Z" stroke-width="1.60867" stroke-linejoin="miter" fill="none" stroke="#808080" opacity="1" stroke-linecap="butt"/>
</g>
<g opacity="1">
<path d="M30.9043+49.3697C30.9043+48.2902+31.7827+47.4118+32.8622+47.4118L51.0444+47.4118C52.1239+47.4118+53.0023+48.2902+53.0023+49.3697L53.0023+63.7842C53.0023+64.8637+52.1239+65.7421+51.0444+65.7421L32.8622+65.7421C31.7827+65.7421+30.9043+64.8637+30.9043+63.7842L30.9043+49.3697Z" opacity="1" fill="#ffffff"/>
<path stroke-linejoin="miter" stroke-linecap="butt" fill="none" stroke="#808080" opacity="1" stroke-width="1.60867" d="M30.9043+49.3697C30.9043+48.2902+31.7827+47.4118+32.8622+47.4118L51.0444+47.4118C52.1239+47.4118+53.0023+48.2902+53.0023+49.3697L53.0023+63.7842C53.0023+64.8637+52.1239+65.7421+51.0444+65.7421L32.8622+65.7421C31.7827+65.7421+30.9043+64.8637+30.9043+63.7842L30.9043+49.3697Z"/>
<path opacity="1" stroke-width="1.60867" stroke-linejoin="miter" stroke="#f7cd44" stroke-linecap="butt" fill="none" d="M38.6936+53.275C38.6936+51.5816+40.0765+50.2058+41.7839+50.2058C43.4914+50.2058+44.8743+51.5816+44.8743+53.275C44.8743+54.9683+43.4914+56.3441+41.7839+56.3441C40.0765+56.3441+38.6936+54.9683+38.6936+53.275Z"/>
<path opacity="1" d="M34.5873+61.2795C34.5873+59.7696+35.8114+58.5455+37.3213+58.5455L45.9503+58.5455C47.4601+58.5455+48.6843+59.7696+48.6843+61.2795L48.6843+62.8811C48.6843+64.391+47.4601+65.6151+45.9503+65.6151L37.3213+65.6151C35.8114+65.6151+34.5873+64.391+34.5873+62.8811L34.5873+61.2795Z" fill="#ffffff"/>
<path fill="none" stroke-linecap="butt" d="M34.5873+61.2795C34.5873+59.7696+35.8114+58.5455+37.3213+58.5455L45.9503+58.5455C47.4601+58.5455+48.6843+59.7696+48.6843+61.2795L48.6843+62.8811C48.6843+64.391+47.4601+65.6151+45.9503+65.6151L37.3213+65.6151C35.8114+65.6151+34.5873+64.391+34.5873+62.8811L34.5873+61.2795Z" stroke-width="1.60867" stroke="#f7cd44" stroke-linejoin="miter" opacity="1"/>
<path stroke-width="1.05833" fill="none" stroke="#f7cd44" opacity="1" stroke-linejoin="miter" stroke-linecap="butt" d="M37.7411+61.3183L37.7411+64.5639"/>
<path stroke="#f7cd44" stroke-width="1.05833" fill="none" stroke-linejoin="miter" opacity="1" stroke-linecap="butt" d="M45.9114+61.3183L45.9114+64.5639"/>
<path fill="#ffffff" d="M30.0999+66.0385C30.0999+64.9872+28.8299+63.7101+29.8812+63.7101L53.9336+63.816C54.879+64.2922+53.7678+64.9872+53.7678+66.0385L53.7678+66.0385C53.3974+67.1956+52.9176+67.9435+51.8699+67.9435L31.9979+67.9435C30.9501+67.9435+30.0999+67.0898+30.0999+66.0385Z" opacity="1"/>
<path stroke-width="1.60867" fill="none" d="M30.0999+66.0385C30.0999+64.9872+28.8299+63.7101+29.8812+63.7101L53.9336+63.816C54.879+64.2922+53.7678+64.9872+53.7678+66.0385L53.7678+66.0385C53.3974+67.1956+52.9176+67.9435+51.8699+67.9435L31.9979+67.9435C30.9501+67.9435+30.0999+67.0898+30.0999+66.0385Z" stroke-linecap="butt" stroke-linejoin="miter" opacity="1" stroke="#808080"/>
</g>
<g opacity="1">
<path d="M66.8935+57.603L61.8804+57.603C61.6417+57.603+61.4825+57.4438+61.4825+57.2051L61.4825+53.3855C61.4825+52.9479+61.2836+52.5898+60.9255+52.351C59.1351+51.1177+58.1802+48.9692+58.3791+46.8207C58.6576+43.8764+61.1244+41.529+64.0686+41.3698C67.5301+41.2107+70.4346+43.9958+70.4346+47.4175C70.4346+49.4068+69.4797+51.237+67.8484+52.3908C67.5301+52.6296+67.3312+52.9876+67.3312+53.4253L67.3312+57.2449C67.2914+57.404+67.1322+57.603+66.8935+57.603ZM62.2782+56.8072L66.5354+56.8072L66.5354+53.3855C66.5354+52.7091+66.8537+52.0726+67.4108+51.7145C68.7635+50.7198+69.6388+49.1283+69.6388+47.4175C69.6388+44.4334+67.1322+42.0462+64.1482+42.2054C61.5621+42.3247+59.4533+44.3539+59.1748+46.9002C58.9759+48.81+59.8114+50.6004+61.4029+51.7145C61.9599+52.1124+62.2782+52.7489+62.2782+53.4253C62.2782+53.4253+62.2782+56.8072+62.2782+56.8072Z" fill="#193651" opacity="1"/>
<path opacity="1" d="M64.4076+42.7513L64.1843+42.7513C61.9067+42.8357+59.8971+44.6058+59.6738+46.7974C59.4951+48.4411+60.5348+50.27+61.9638+51.2393C62.9017+51.8294+62.4642+52.7253+62.8456+53.7076L63.1571+54.5102L65.658+54.5102L66.0319+53.7075C66.4769+52.7524+66.1628+51.7358+67.0559+51.1458C68.3511+50.3029+69.1414+48.6939+69.1414+47.2609C69.1415+44.7743+66.9979+42.7513+64.4076+42.7513Z" fill="#f7cd44"/>
<path d="M55.45+47.236L57.8937+47.236L57.8937+47.236L57.8937+48.0716L57.8937+48.0716L55.45+48.0716L55.45+48.0716L55.45+47.236L55.45+47.236Z" fill="#f7cd44" opacity="1"/>
<path d="M63.074+57.2051L63.074+57.5632C63.074+58.2794+63.6708+58.8762+64.3869+58.8762C65.1031+58.8762+65.6999+58.2794+65.6999+57.5632L65.6999+57.2051L63.074+57.2051Z" opacity="1" fill="#ffffff"/>
<path d="M65.6999+56.8072L63.074+56.8072C62.8352+56.8072+62.6761+56.9664+62.6761+57.2051L62.6761+57.5632C62.6761+58.5181+63.432+59.2741+64.3869+59.2741C65.3419+59.2741+66.0978+58.5181+66.0978+57.5632L66.0978+57.2051C66.0978+56.9664+65.8989+56.8072+65.6999+56.8072ZM64.3869+58.4783C63.9095+58.4783+63.5116+58.0804+63.4719+57.6029L65.3021+57.6029C65.2623+58.0804+64.8644+58.4783+64.3869+58.4783Z" opacity="1" fill="#193651"/>
<path d="M66.058+49.2875L65.2225+49.2875C64.9837+49.2875+64.8246+49.1283+64.8246+48.8896L64.8246+48.054C64.8246+47.2981+65.4214+46.7013+66.1774+46.7013C66.4956+46.7013+66.8139+46.8206+67.0527+47.0594L67.0925+47.0992C67.4506+47.4573+67.5301+47.9745+67.3312+48.4917C67.0925+48.9692+66.615+49.2875+66.058+49.2875ZM65.6204+48.4917L66.058+48.4917C66.3365+48.4917+66.4956+48.2928+66.5752+48.1336C66.615+48.054+66.6946+47.8153+66.4956+47.6164C66.3763+47.4971+66.2967+47.4573+66.1774+47.4573C65.8989+47.4573+65.6203+47.6562+65.6203+48.0143C65.6203+48.0143+65.6203+48.4917+65.6204+48.4917Z" opacity="1" fill="#d0956d"/>
<path opacity="1" fill="#d0956d" d="M63.5117+49.2875L62.6761+49.2875C62.1589+49.2875+61.6416+48.9692+61.4428+48.4519C61.2438+47.9745+61.3234+47.4573+61.6815+47.0992L61.7213+47.0594C61.96+46.8206+62.2783+46.7013+62.5966+46.7013C63.3526+46.7013+63.9494+47.2981+63.9494+48.054L63.9494+48.8896C63.9095+49.0885+63.7504+49.2875+63.5117+49.2875ZM62.5965+47.4971C62.4772+47.4971+62.3976+47.5369+62.2782+47.6164C62.0793+47.8153+62.1589+48.054+62.1589+48.1336C62.2385+48.2928+62.3976+48.4917+62.6761+48.4917L63.1138+48.4917L63.1138+48.0541C63.1138+47.696+62.8353+47.4971+62.5965+47.4971Z"/>
<path d="M65.2225+54.6588C64.9837+54.6588+64.8246+54.4996+64.8246+54.2609L64.8246+49.2875L63.9095+49.2875L63.9095+54.2609C63.9095+54.4996+63.7504+54.6588+63.5116+54.6588C63.2729+54.6588+63.1137+54.4996+63.1137+54.2609L63.1137+48.8896C63.1137+48.6509+63.2729+48.4917+63.5116+48.4917L65.2225+48.4917C65.4612+48.4917+65.6204+48.6509+65.6204+48.8896L65.6204+54.2609C65.6204+54.4598+65.4612+54.6588+65.2225+54.6588Z" opacity="1" fill="#d0956d"/>
<path d="M66.6237+54.6588L62.1104+54.6588C61.8716+54.6588+61.7125+54.4996+61.7125+54.2609C61.7125+54.0221+61.8716+53.863+62.1104+53.863L66.6237+53.863C66.8625+53.863+67.0216+54.0221+67.0216+54.2609C67.0216+54.4598+66.8625+54.6588+66.6237+54.6588Z" fill="#193651" opacity="1"/>
<path fill="#193651" d="M66.6237+56.1309L62.0078+56.1309C61.7691+56.1309+61.6099+55.9717+61.6099+55.733C61.6099+55.4942+61.7691+55.3351+62.0078+55.3351L66.6237+55.3351C66.8625+55.3351+67.0216+55.4942+67.0216+55.733C67.0216+55.9717+66.8625+56.1309+66.6237+56.1309Z" opacity="1"/>
<path d="M56.1902+51.4558L58.2763+50.183L58.2763+50.183L58.7115+50.8963L58.7115+50.8963L56.6254+52.169L56.6254+52.169L56.1902+51.4558L56.1902+51.4558Z" fill="#f7cd44" opacity="1"/>
<path d="M56.4109+42.9895L58.5452+44.1796L58.5452+44.1796L58.1383+44.9093L58.1383+44.9093L56.004+43.7192L56.004+43.7192L56.4109+42.9895L56.4109+42.9895Z" fill="#f7cd44" opacity="1"/>
<path fill="#f7cd44" opacity="1" d="M59.5948+39.5389L61.0112+41.5303L61.0112+41.5303L60.3303+42.0146L60.3303+42.0146L58.9139+40.0232L58.9139+40.0232L59.5948+39.5389L59.5948+39.5389Z"/>
<path d="M64.5664+38.4973L64.5664+40.941L64.5664+40.941L63.7309+40.941L63.7309+40.941L63.7309+38.4973L63.7309+38.4973L64.5664+38.4973L64.5664+38.4973Z" opacity="1" fill="#f7cd44"/>
<path d="M73.2177+47.236L70.774+47.236L70.774+47.236L70.774+48.0716L70.774+48.0716L73.2177+48.0716L73.2177+48.0716L73.2177+47.236L73.2177+47.236Z" fill="#f7cd44" opacity="1"/>
<path opacity="1" fill="#f7cd44" d="M72.4776+51.4558L70.3915+50.1831L70.3915+50.1831L69.9563+50.8963L69.9563+50.8963L72.0424+52.1691L72.0424+52.1691L72.4776+51.4558L72.4776+51.4558Z"/>
<path d="M72.2569+42.9894L70.1226+44.1795L70.1226+44.1795L70.5295+44.9093L70.5295+44.9093L72.6638+43.7192L72.6638+43.7192L72.2569+42.9894L72.2569+42.9894Z" fill="#f7cd44" opacity="1"/>
<path opacity="1" d="M69.0728+39.539L67.6564+41.5303L67.6564+41.5303L68.3373+42.0146L68.3373+42.0146L69.7536+40.0232L69.7536+40.0232L69.0728+39.539L69.0728+39.539Z" fill="#f7cd44"/>
</g>
</g>
<g opacity="1">
<path fill="#808080" d="M29.3314+94.0459L29.3314+83.4626L35.2157+83.4626L35.2157+84.6338L31.6879+84.6338L31.6879+88.1616L34.0445+88.1616L34.0445+89.3469L31.6879+89.3469L31.6879+92.8747L35.2157+92.8747L35.2157+94.0459L29.3314+94.0459Z" opacity="1"/>
<path d="M44.6137+94.0459L42.2713+94.0459L42.2713+88.1616C42.2713+87.8417+42.156+87.5665+41.9255+87.3361C41.6951+87.1056+41.4152+86.9903+41.0859+86.9903C40.7661+86.9903+40.4909+87.1056+40.2604+87.3361C40.0299+87.5665+39.9147+87.8417+39.9147+88.1616L39.9147+94.0459L37.5582+94.0459L37.5582+85.8191L39.9147+85.8191L39.9147+86.9903C39.9617+86.5952+40.084+86.3012+40.2816+86.1084C40.4792+85.9155+40.7473+85.8191+41.0859+85.8191L42.2713+85.8191C43.0709+85.8191+43.6589+86.0966+44.0352+86.6517C44.2233+86.3694+44.4632+86.1601+44.7548+86.0237C45.0465+85.8873+45.3945+85.8191+45.799+85.8191L46.9703+85.8191C47.61+85.8191+48.1627+86.0496+48.6283+86.5106C49.094+86.9715+49.3268+87.5219+49.3268+88.1616L49.3268+94.0459L46.9703+94.0459L46.9703+88.1616C46.9703+87.8511+46.855+87.5783+46.6245+87.3431C46.3941+87.1079+46.1189+86.9903+45.799+86.9903C45.4792+86.9903+45.2017+87.1056+44.9665+87.3361C44.7313+87.5665+44.6137+87.8417+44.6137+88.1616L44.6137+94.0459Z" opacity="1" fill="#808080"/>
<path fill="#808080" d="M58.7248+90.5181L54.0258+90.5181L54.0258+91.6893C54.0258+92.0092+54.1411+92.2867+54.3716+92.5219C54.602+92.7571+54.8772+92.8747+55.1971+92.8747L56.3824+92.8747C57.1632+92.8747+57.5536+92.4796+57.5536+91.6893L58.7248+91.6893C58.5461+93.2604+57.7653+94.0459+56.3824+94.0459L54.0258+94.0459C53.3861+94.0459+52.8334+93.8154+52.3678+93.3545C51.9021+92.8935+51.6693+92.3385+51.6693+91.6893L51.6693+88.1616C51.6693+87.5219+51.9021+86.9715+52.3678+86.5106C52.8334+86.0496+53.3861+85.8191+54.0258+85.8191L56.3824+85.8191C57.0221+85.8191+57.5724+86.0496+58.0334+86.5106C58.4944+86.9715+58.7248+87.5219+58.7248+88.1616L58.7248+90.5181ZM54.0258+89.3469L56.3824+89.3469L56.3824+88.1616C56.3824+87.8417+56.2671+87.5665+56.0367+87.3361C55.8062+87.1056+55.5263+86.9903+55.1971+86.9903C54.8772+86.9903+54.602+87.1056+54.3716+87.3361C54.1411+87.5665+54.0258+87.8417+54.0258+88.1616L54.0258+89.3469Z" opacity="1"/>
<path opacity="1" d="M63.4379+94.0459L61.0814+94.0459L61.0814+85.8191L63.4379+85.8191L63.4379+88.1616C63.532+87.3807+63.7743+86.7951+64.1647+86.4047C64.5551+86.0143+65.0984+85.8191+65.7945+85.8191L66.9657+85.8191L66.9657+88.1616L64.6092+88.1616C64.2893+88.1616+64.0142+88.2768+63.7837+88.5073C63.5532+88.7378+63.4379+89.0176+63.4379+89.3469L63.4379+94.0459Z" fill="#808080"/>
<path d="M75.1925+85.8191L75.1925+95.2171C75.1925+95.8568+74.962+96.4095+74.5011+96.8752C74.0401+97.3408+73.4898+97.5737+72.8501+97.5737L70.4935+97.5737C69.1106+97.5737+68.3251+96.7882+68.137+95.2171L69.3223+95.2171C69.3787+96.0073+69.7691+96.4025+70.4935+96.4025L71.6647+96.4025C71.994+96.4025+72.2739+96.2872+72.5043+96.0567C72.7348+95.8262+72.8501+95.5464+72.8501+95.2171L72.8501+92.8747C72.756+93.6555+72.3609+94.0459+71.6647+94.0459L70.4935+94.0459C69.8538+94.0459+69.3011+93.8154+68.8355+93.3545C68.3698+92.8935+68.137+92.3385+68.137+91.6893L68.137+88.1616C68.137+87.5219+68.3698+86.9715+68.8355+86.5106C69.3011+86.0496+69.8538+85.8191+70.4935+85.8191L75.1925+85.8191ZM72.8501+86.9903L71.6647+86.9903C71.3449+86.9903+71.0697+87.1056+70.8392+87.3361C70.6087+87.5665+70.4935+87.8417+70.4935+88.1616L70.4935+91.6893C70.4935+92.0092+70.6087+92.2867+70.8392+92.5219C71.0697+92.7571+71.3449+92.8747+71.6647+92.8747C71.994+92.8747+72.2739+92.7571+72.5043+92.5219C72.7348+92.2867+72.8501+92.0092+72.8501+91.6893L72.8501+86.9903Z" opacity="1" fill="#808080"/>
<path opacity="1" fill="#808080" d="M84.6046+90.5181L79.9056+90.5181L79.9056+91.6893C79.9056+92.0092+80.0209+92.2867+80.2513+92.5219C80.4818+92.7571+80.757+92.8747+81.0768+92.8747L82.2622+92.8747C83.043+92.8747+83.4334+92.4796+83.4334+91.6893L84.6046+91.6893C84.4259+93.2604+83.6451+94.0459+82.2622+94.0459L79.9056+94.0459C79.2659+94.0459+78.7132+93.8154+78.2476+93.3545C77.7819+92.8935+77.5491+92.3385+77.5491+91.6893L77.5491+88.1616C77.5491+87.5219+77.7819+86.9715+78.2476+86.5106C78.7132+86.0496+79.2659+85.8191+79.9056+85.8191L82.2622+85.8191C82.9019+85.8191+83.4522+86.0496+83.9132+86.5106C84.3741+86.9715+84.6046+87.5219+84.6046+88.1616L84.6046+90.5181ZM79.9056+89.3469L82.2622+89.3469L82.2622+88.1616C82.2622+87.8417+82.1469+87.5665+81.9165+87.3361C81.686+87.1056+81.4061+86.9903+81.0768+86.9903C80.757+86.9903+80.4818+87.1056+80.2513+87.3361C80.0209+87.5665+79.9056+87.8417+79.9056+88.1616L79.9056+89.3469Z"/>
<path d="M86.9612+94.0459L86.9612+85.8191L89.3177+85.8191L89.3177+86.9903C89.3648+86.5952+89.4871+86.3012+89.6846+86.1084C89.8822+85.9155+90.1503+85.8191+90.489+85.8191L91.6743+85.8191C92.314+85.8191+92.8643+86.0496+93.3253+86.5106C93.7863+86.9715+94.0167+87.5219+94.0167+88.1616L94.0167+94.0459L91.6743+94.0459L91.6743+88.1616C91.6743+87.8417+91.5591+87.5665+91.3286+87.3361C91.0981+87.1056+90.8182+86.9903+90.489+86.9903C90.1691+86.9903+89.8939+87.1056+89.6635+87.3361C89.433+87.5665+89.3177+87.8417+89.3177+88.1616L89.3177+94.0459L86.9612+94.0459Z" opacity="1" fill="#808080"/>
<path d="M97.5586+83.4626L99.9011+83.4626L99.9011+85.8191L101.086+85.8191L101.086+86.9903L99.9011+86.9903L99.9011+91.6893C99.9011+92.075+100.028+92.369+100.282+92.5713C100.536+92.7735+100.767+92.8747+100.974+92.8747L101.086+92.8747L101.086+94.0459L99.9011+94.0459C99.2614+94.0459+98.711+93.8154+98.2501+93.3545C97.7891+92.8935+97.5586+92.3385+97.5586+91.6893L97.5586+86.9903L96.3733+86.9903L96.3733+85.8191L97.5586+85.8191L97.5586+83.4626Z" opacity="1" fill="#808080"/>
</g>
<g opacity="1">
<path opacity="1" fill="#808080" d="M37.911+102.255L36.7398+102.255C36.6363+101.464+36.2647+101.069+35.625+101.069C35.2111+101.069+34.9006+101.168+34.6937+101.366C34.4867+101.563+34.3832+101.86+34.3832+102.255C34.3832+102.546+34.4961+102.824+34.7219+103.087L37.2196+105.881C37.6805+106.399+37.911+106.954+37.911+107.546L37.911+108.125C37.911+108.765+37.6805+109.317+37.2196+109.783C36.7586+110.249+36.2036+110.481+35.5545+110.481L34.3832+110.481C33.6024+110.481+33.0145+110.286+32.6193+109.896C32.2242+109.505+32.0267+108.915+32.0267+108.125L33.212+108.125C33.212+108.21+33.212+108.275+33.212+108.322C33.212+108.642+33.3343+108.887+33.5789+109.056C33.8235+109.226+34.0916+109.31+34.3832+109.31C34.7972+109.31+35.0958+109.209+35.2793+109.007C35.4627+108.805+35.5545+108.511+35.5545+108.125C35.5545+107.824+35.4416+107.546+35.2158+107.292L32.7181+104.498C32.2572+103.99+32.0267+103.435+32.0267+102.833L32.0267+102.255C32.0267+101.615+32.2572+101.062+32.7181+100.597C33.1791+100.131+33.7341+99.8982+34.3832+99.8982L35.5545+99.8982C37.0314+99.8982+37.8169+100.684+37.911+102.255Z"/>
<path d="M47.309+106.954L42.61+106.954L42.61+108.125C42.61+108.445+42.7253+108.722+42.9557+108.957C43.1862+109.193+43.4614+109.31+43.7812+109.31L44.9666+109.31C45.7474+109.31+46.1378+108.915+46.1378+108.125L47.309+108.125C47.1303+109.696+46.3495+110.481+44.9666+110.481L42.61+110.481C41.9703+110.481+41.4176+110.251+40.952+109.79C40.4863+109.329+40.2535+108.774+40.2535+108.125L40.2535+104.597C40.2535+103.957+40.4863+103.407+40.952+102.946C41.4176+102.485+41.9703+102.255+42.61+102.255L44.9666+102.255C45.6063+102.255+46.1566+102.485+46.6176+102.946C47.0785+103.407+47.309+103.957+47.309+104.597L47.309+106.954ZM42.61+105.782L44.9666+105.782L44.9666+104.597C44.9666+104.277+44.8513+104.002+44.6208+103.772C44.3904+103.541+44.1105+103.426+43.7812+103.426C43.4614+103.426+43.1862+103.541+42.9557+103.772C42.7253+104.002+42.61+104.277+42.61+104.597L42.61+105.782Z" opacity="1" fill="#808080"/>
<path fill="#808080" d="M55.5499+104.597L54.3787+104.597C54.2752+103.816+53.9036+103.426+53.2639+103.426C52.85+103.426+52.5395+103.508+52.3326+103.673C52.1256+103.838+52.0221+104.08+52.0221+104.4C52.0221+104.738+52.5913+105.213+53.7296+105.825C54.6609+106.323+55.1971+106.737+55.3382+107.067C55.4794+107.396+55.5499+107.749+55.5499+108.125C55.5499+108.774+55.3194+109.329+54.8585+109.79C54.3975+110.251+53.8425+110.481+53.1934+110.481L52.0221+110.481C50.4511+110.481+49.6656+109.696+49.6656+108.125L50.8509+108.125C50.945+108.915+51.3119+109.31+51.9516+109.31C52.3749+109.31+52.6901+109.228+52.897+109.063C53.104+108.899+53.2075+108.652+53.2075+108.322C53.2075+107.993+52.6383+107.523+51.5+106.911C50.5687+106.413+50.0301+105.999+49.8843+105.67C49.7385+105.34+49.6656+104.988+49.6656+104.611C49.6656+103.962+49.8984+103.407+50.3641+102.946C50.8297+102.485+51.3824+102.255+52.0221+102.255L53.1934+102.255C54.6703+102.255+55.4558+103.036+55.5499+104.597Z" opacity="1"/>
<path d="M63.7767+104.597L62.6055+104.597C62.502+103.816+62.1304+103.426+61.4907+103.426C61.0768+103.426+60.7663+103.508+60.5594+103.673C60.3524+103.838+60.2489+104.08+60.2489+104.4C60.2489+104.738+60.8181+105.213+61.9564+105.825C62.8877+106.323+63.4239+106.737+63.565+107.067C63.7061+107.396+63.7767+107.749+63.7767+108.125C63.7767+108.774+63.5462+109.329+63.0853+109.79C62.6243+110.251+62.0693+110.481+61.4201+110.481L60.2489+110.481C58.6779+110.481+57.8924+109.696+57.8924+108.125L59.0777+108.125C59.1718+108.915+59.5387+109.31+60.1784+109.31C60.6017+109.31+60.9168+109.228+61.1238+109.063C61.3308+108.899+61.4343+108.652+61.4343+108.322C61.4343+107.993+60.8651+107.523+59.7268+106.911C58.7955+106.413+58.2569+105.999+58.1111+105.67C57.9653+105.34+57.8924+104.988+57.8924+104.611C57.8924+103.962+58.1252+103.407+58.5909+102.946C59.0565+102.485+59.6092+102.255+60.2489+102.255L61.4201+102.255C62.8971+102.255+63.6826+103.036+63.7767+104.597Z" fill="#808080" opacity="1"/>
<path d="M66.1191+101.069L66.1191+99.8982L68.4757+99.8982L68.4757+101.069L66.1191+101.069ZM66.1191+110.481L66.1191+102.255L68.4757+102.255L68.4757+110.481L66.1191+110.481Z" opacity="1" fill="#808080"/>
<path opacity="1" fill="#808080" d="M73.1747+102.255L75.5313+102.255C76.171+102.255+76.7213+102.485+77.1823+102.946C77.6432+103.407+77.8737+103.957+77.8737+104.597L77.8737+108.125C77.8737+108.765+77.6432+109.317+77.1823+109.783C76.7213+110.249+76.171+110.481+75.5313+110.481L73.1747+110.481C72.535+110.481+71.9823+110.251+71.5166+109.79C71.051+109.329+70.8181+108.774+70.8181+108.125L70.8181+104.597C70.8181+103.957+71.051+103.407+71.5166+102.946C71.9823+102.485+72.535+102.255+73.1747+102.255ZM73.1747+104.597L73.1747+108.125C73.1747+108.445+73.2899+108.722+73.5204+108.957C73.7509+109.193+74.0261+109.31+74.3459+109.31C74.6752+109.31+74.9551+109.193+75.1855+108.957C75.416+108.722+75.5313+108.445+75.5313+108.125L75.5313+104.597C75.5313+104.277+75.416+104.002+75.1855+103.772C74.9551+103.541+74.6752+103.426+74.3459+103.426C74.0261+103.426+73.7509+103.541+73.5204+103.772C73.2899+104.002+73.1747+104.277+73.1747+104.597Z"/>
<path fill="#808080" opacity="1" d="M80.2303+110.481L80.2303+102.255L82.5868+102.255L82.5868+103.426C82.6339+103.031+82.7562+102.737+82.9537+102.544C83.1513+102.351+83.4194+102.255+83.758+102.255L84.9434+102.255C85.5831+102.255+86.1334+102.485+86.5944+102.946C87.0553+103.407+87.2858+103.957+87.2858+104.597L87.2858+110.481L84.9434+110.481L84.9434+104.597C84.9434+104.277+84.8281+104.002+84.5977+103.772C84.3672+103.541+84.0873+103.426+83.758+103.426C83.4382+103.426+83.163+103.541+82.9325+103.772C82.7021+104.002+82.5868+104.277+82.5868+104.597L82.5868+110.481L80.2303+110.481Z"/>
<path d="M95.5267+104.597L94.3555+104.597C94.252+103.816+93.8804+103.426+93.2407+103.426C92.8268+103.426+92.5163+103.508+92.3094+103.673C92.1024+103.838+91.9989+104.08+91.9989+104.4C91.9989+104.738+92.5681+105.213+93.7064+105.825C94.6377+106.323+95.1739+106.737+95.3151+107.067C95.4562+107.396+95.5267+107.749+95.5267+108.125C95.5267+108.774+95.2962+109.329+94.8353+109.79C94.3743+110.251+93.8193+110.481+93.1702+110.481L91.9989+110.481C90.4279+110.481+89.6424+109.696+89.6424+108.125L90.8277+108.125C90.9218+108.915+91.2887+109.31+91.9284+109.31C92.3517+109.31+92.6669+109.228+92.8738+109.063C93.0808+108.899+93.1843+108.652+93.1843+108.322C93.1843+107.993+92.6151+107.523+91.4768+106.911C90.5455+106.413+90.0069+105.999+89.8611+105.67C89.7153+105.34+89.6424+104.988+89.6424+104.611C89.6424+103.962+89.8752+103.407+90.3409+102.946C90.8065+102.485+91.3592+102.255+91.9989+102.255L93.1702+102.255C94.6471+102.255+95.4326+103.036+95.5267+104.597Z" fill="#808080" opacity="1"/>
</g>
</g>
</svg>
