<?xml version="1.0" encoding="UTF-8" standalone="no"?>
<svg
   xmlns:dc="http://purl.org/dc/elements/1.1/"
   xmlns:cc="http://creativecommons.org/ns#"
   xmlns:rdf="http://www.w3.org/1999/02/22-rdf-syntax-ns#"
   xmlns:svg="http://www.w3.org/2000/svg"
   xmlns="http://www.w3.org/2000/svg"
   xmlns:sodipodi="http://sodipodi.sourceforge.net/DTD/sodipodi-0.dtd"
   xmlns:inkscape="http://www.inkscape.org/namespaces/inkscape"
   width="230"
   height="100"
   viewBox="0 0 60.854166 26.458333"
   version="1.1"
   id="svg959"
   inkscape:version="1.0.1 (3bc2e813f5, 2020-09-07)"
   sodipodi:docname="Gather-logo.svg">
  <defs
     id="defs953" />
  <sodipodi:namedview
     id="base"
     pagecolor="#ffffff"
     bordercolor="#666666"
     borderopacity="1.0"
     inkscape:pageopacity="1"
     inkscape:pageshadow="2"
     inkscape:zoom="1.979899"
     inkscape:cx="24.625241"
     inkscape:cy="92.570716"
     inkscape:document-units="mm"
     inkscape:current-layer="layer1"
     inkscape:document-rotation="0"
     showgrid="false"
     units="px"
     inkscape:window-width="1920"
     inkscape:window-height="1001"
     inkscape:window-x="-9"
     inkscape:window-y="-9"
     inkscape:window-maximized="1" />
  <metadata
     id="metadata956">
    <rdf:RDF>
      <cc:Work
         rdf:about="">
        <dc:format>image/svg+xml</dc:format>
        <dc:type
           rdf:resource="http://purl.org/dc/dcmitype/StillImage" />
        <dc:title></dc:title>
      </cc:Work>
    </rdf:RDF>
  </metadata>
  <g
     inkscape:label="Layer 1"
     inkscape:groupmode="layer"
     id="layer1">
    <path
       style="fill:#000000;stroke-width:0.0245147"
       d="M 9.2272349,20.839291 C 8.2547187,20.618397 7.702,19.573623 8.0663325,18.644906 c 0.2619362,-0.667699 0.8918879,-1.06389 1.6285098,-1.024209 0.4057657,0.02185 0.7370397,0.173031 1.0374547,0.473454 0.196523,0.19652 0.306942,0.369974 0.400007,0.628356 0.05766,0.160098 0.06485,0.216079 0.06568,0.510752 7.85e-4,0.284272 -0.0072,0.355153 -0.05684,0.502551 -0.170599,0.50684 -0.547614,0.887343 -1.045641,1.055294 -0.2441635,0.08235 -0.6248879,0.103461 -0.8682681,0.04818 z m 0.6968016,-0.855134 c 0.1674325,-0.07665 0.3191525,-0.22955 0.4009445,-0.404065 0.05328,-0.113656 0.0649,-0.173669 0.06492,-0.335091 1.7e-5,-0.172568 -0.0098,-0.216558 -0.08017,-0.359494 -0.145408,-0.29536 -0.3947215,-0.448935 -0.7288093,-0.448935 -0.2370224,0 -0.4153035,0.07206 -0.5760946,0.232849 -0.1596346,0.159635 -0.2315104,0.338494 -0.2315104,0.576096 0,0.238749 0.069574,0.409825 0.2325644,0.571954 0.2484586,0.247127 0.6021735,0.311342 0.9181454,0.166681 z m 9.2298795,-0.839376 c -1.554324,-0.109738 -2.692674,-0.674187 -3.480136,-1.725608 -0.198117,-0.264524 -0.454365,-0.761031 -0.563019,-1.090904 -0.169634,-0.515023 -0.246915,-1.044413 -0.246915,-1.691513 0,-0.473115 0.03886,-0.861838 0.124832,-1.248559 0.354027,-1.59267 1.538269,-2.737035 3.223571,-3.115017 1.376966,-0.3088287 3.126535,-0.150389 4.453403,0.403293 l 0.18998,0.07927 v 0.892498 c 0,0.490874 -0.004,0.892498 -0.009,0.892498 -0.005,0 -0.189806,-0.08748 -0.410621,-0.194403 -0.954163,-0.462007 -1.892751,-0.661749 -2.777565,-0.591097 -0.970744,0.07752 -1.672664,0.473006 -2.087081,1.175942 -0.488752,0.829023 -0.532857,2.301529 -0.09675,3.229845 0.13232,0.281662 0.224001,0.416636 0.427669,0.629616 0.32326,0.338052 0.659605,0.524867 1.178206,0.654411 0.16087,0.04019 0.314676,0.05503 0.674707,0.06515 0.565172,0.01583 0.959457,-0.02963 1.243567,-0.143517 l 0.06741,-0.02702 v -0.842781 -0.842784 h -0.686459 -0.686412 v -0.747697 -0.747699 h 1.740543 1.740543 v 2.092514 2.092514 l -0.219171,0.100398 c -0.692294,0.317138 -1.578512,0.557721 -2.4039,0.652593 -0.331038,0.03805 -1.143304,0.06598 -1.397338,0.04805 z m 7.329891,-0.01079 c -0.758533,-0.09395 -1.380801,-0.511377 -1.697586,-1.138787 -0.165523,-0.327831 -0.239727,-0.795598 -0.19484,-1.228274 0.03415,-0.329256 0.07999,-0.509532 0.187528,-0.737551 0.318953,-0.676357 0.982013,-1.038436 2.170684,-1.185349 0.114602,-0.01409 0.641366,-0.03223 1.170576,-0.04017 l 0.962202,-0.01447 -2.93e-4,-0.137669 c -0.0013,-0.603087 -0.394546,-0.892997 -1.298427,-0.957169 -0.864953,-0.0614 -1.81735,0.108497 -2.482672,0.442928 l -0.140969,0.07086 v -0.792963 -0.792961 l 0.229587,-0.0526 c 0.647292,-0.14869 1.458425,-0.247058 2.197369,-0.266487 2.022946,-0.05318 3.081244,0.482953 3.444685,1.745099 0.140835,0.489112 0.140545,0.483531 0.151644,2.800803 l 0.01025,2.138905 h -1.05508 -1.055075 l -0.0065,-0.475768 -0.0065,-0.475768 -0.180618,0.218692 c -0.385963,0.467343 -0.830262,0.733517 -1.407013,0.842923 -0.248279,0.0471 -0.759675,0.06545 -0.99867,0.03586 z m 1.542143,-1.409423 c 0.231311,-0.05453 0.433313,-0.172452 0.627972,-0.366619 0.285207,-0.284478 0.428441,-0.65708 0.428441,-1.11451 v -0.197152 h -0.670941 c -0.754332,0 -1.006996,0.02907 -1.254624,0.144385 -0.199331,0.09281 -0.31416,0.198881 -0.396219,0.365979 -0.06052,0.12323 -0.06831,0.166121 -0.06771,0.372172 6.12e-4,0.203536 0.0093,0.250447 0.06841,0.372179 0.103853,0.213614 0.282407,0.348107 0.562175,0.423442 0.170773,0.04598 0.507697,0.04605 0.7025,1.24e-4 z m 22.060656,1.409791 c -1.514718,-0.126957 -2.585406,-0.862408 -3.007877,-2.066095 -0.157724,-0.449402 -0.185192,-0.64818 -0.185192,-1.34067 0,-0.555693 0.006,-0.652864 0.05468,-0.874891 0.299294,-1.366932 1.226439,-2.236808 2.650219,-2.48651 0.36406,-0.06385 1.028754,-0.08731 1.375535,-0.04855 0.459509,0.05135 0.983582,0.208095 1.295769,0.387539 0.574324,0.330115 1.061484,0.863231 1.305027,1.428137 0.208785,0.484278 0.280391,0.867921 0.306446,1.641825 l 0.01738,0.516295 h -2.454545 -2.454545 l 0.01428,0.07968 c 0.08072,0.451509 0.193701,0.698679 0.42343,0.926339 0.30832,0.305543 0.657538,0.43298 1.252616,0.457105 0.834327,0.03382 1.685547,-0.171931 2.59286,-0.626762 l 0.299873,-0.150331 v 0.80777 0.807769 l -0.373849,0.122284 c -0.600436,0.196411 -1.099812,0.30959 -1.686462,0.382219 -0.379155,0.04695 -1.086921,0.06523 -1.425617,0.03685 z m 1.646901,-4.20962 c -7.13e-4,-0.155446 -0.06905,-0.427468 -0.147475,-0.587194 -0.04226,-0.08605 -0.13761,-0.21599 -0.219659,-0.299318 -0.246339,-0.250195 -0.512394,-0.351494 -0.916154,-0.348823 -0.444365,0.0029 -0.715069,0.109853 -0.996823,0.39368 -0.129117,0.130083 -0.208499,0.235926 -0.264364,0.352549 -0.07773,0.162299 -0.180752,0.525778 -0.159441,0.562651 0.0058,0.01003 0.616708,0.01833 1.35748,0.01833 h 1.346862 l -4.18e-4,-0.09194 z m -16.559244,4.046665 c -0.943235,-0.08082 -1.47451,-0.427213 -1.704039,-1.111032 -0.129213,-0.384979 -0.129368,-0.387368 -0.144714,-2.206321 l -0.01429,-1.703771 -0.520937,-0.0065 -0.520937,-0.0065 v -0.747274 -0.747211 h 0.527066 0.527066 v -0.919302 -0.919301 h 1.041874 1.041874 v 0.919045 0.919042 l 1.072517,0.0063 1.072518,0.0063 0.0065,0.741569 0.0065,0.741569 h -1.080096 -1.079867 l 0.007,1.562812 0.007,1.562811 0.05729,0.116358 c 0.131627,0.267261 0.234511,0.294419 1.162306,0.306777 l 0.729313,0.0097 v 0.745782 0.745778 l -1.048003,-0.004 c -0.576402,-0.0023 -1.09213,-0.008 -1.146061,-0.01254 z m 3.664945,-4.518573 V 9.9176153 h 1.041874 1.041874 v 1.7421707 1.742172 l 0.199986,-0.21127 c 0.385835,-0.407611 0.833791,-0.686352 1.307668,-0.813703 0.222396,-0.05976 0.286095,-0.06595 0.686411,-0.06665 0.523925,-9.19e-4 0.747235,0.04311 1.103161,0.217427 0.481155,0.235669 0.811167,0.633863 0.99924,1.205693 0.178899,0.54391 0.174498,0.472293 0.183763,2.993117 l 0.0083,2.26148 h -1.053814 -1.05383 l -0.0098,-2.102134 c -0.01057,-2.258152 -0.01332,-2.307118 -0.139483,-2.554395 -0.125797,-0.246593 -0.422289,-0.433458 -0.728474,-0.459126 -0.793642,-0.06654 -1.366546,0.51491 -1.477703,1.499738 -0.01448,0.128249 -0.02498,0.931514 -0.02509,1.918274 l -2.01e-4,1.697643 h -1.041874 -1.041874 z m 16.645471,1.262506 v -3.272711 h 1.041396 1.041395 l 0.0065,0.530093 0.0065,0.530093 0.09806,-0.143691 c 0.134155,-0.196591 0.435039,-0.508503 0.612868,-0.635343 0.21889,-0.156142 0.47703,-0.277106 0.74324,-0.348315 0.211616,-0.05661 0.285181,-0.0637 0.678611,-0.06553 0.242695,-0.0011 0.482633,0.0068 0.533195,0.01737 l 0.09192,0.01943 v 0.939855 0.939856 l -0.147282,-0.05949 c -0.282913,-0.114273 -0.510859,-0.160175 -0.861271,-0.173418 -0.404752,-0.01525 -0.615165,0.02364 -0.901313,0.166874 -0.379399,0.189902 -0.637611,0.543543 -0.780812,1.069405 l -0.06545,0.24033 -0.0083,1.758929 -0.0083,1.758928 H 56.525218 55.484679 Z M 5.7688974,18.408039 C 5.4198737,18.354068 5.0871881,18.184882 4.8336811,17.932433 4.6804739,17.779863 4.6259568,17.703473 4.5357427,17.514978 4.3918203,17.214275 4.3589861,17.070378 4.362866,16.757193 c 0.00251,-0.203845 0.016408,-0.298211 0.066595,-0.453522 0.2879376,-0.890431 1.2242178,-1.36179 2.1000088,-1.05722 0.7173521,0.24947 1.170866,0.979412 1.0764309,1.732546 -0.048025,0.382952 -0.1997308,0.690131 -0.4793901,0.970642 -0.3400084,0.34105 -0.8980267,0.529463 -1.3576132,0.4584 z M 6.3023736,17.536412 C 6.4606382,17.478122 6.6433085,17.306013 6.726132,17.13717 6.777241,17.032957 6.786201,16.979716 6.785896,16.781708 6.7855778,16.577853 6.777396,16.533538 6.720922,16.426244 6.638726,16.270335 6.5012358,16.132742 6.3449942,16.050071 6.2373038,15.993091 6.1941427,15.985221 5.989532,15.985221 c -0.2072441,0 -0.2471549,0.0075 -0.3624359,0.06814 -0.2819189,0.148285 -0.4286939,0.377789 -0.4422849,0.691582 -0.01042,0.240007 0.048395,0.419554 0.1900757,0.580527 0.2277194,0.258704 0.5802049,0.338872 0.9274792,0.21095 z M 9.3079679,16.452558 C 8.2688024,16.215285 7.7156313,15.118606 8.1572796,14.171285 8.351457,13.75478 8.6714315,13.463998 9.1067329,13.308455 c 0.2376393,-0.08491 0.6643386,-0.107244 0.9038381,-0.04731 0.475033,0.118886 0.879297,0.444134 1.085069,0.872971 0.132436,0.275992 0.169885,0.442477 0.167472,0.744544 -0.007,0.871437 -0.684871,1.566551 -1.5596152,1.599108 -0.1546741,0.0058 -0.3006437,-0.0035 -0.3955377,-0.02521 z m 0.6948131,-0.873089 c 0.270655,-0.13265 0.425474,-0.371629 0.442872,-0.683644 0.01312,-0.235825 -0.04907,-0.413902 -0.205304,-0.587681 -0.3473825,-0.386372 -0.9535028,-0.353395 -1.2639673,0.06878 -0.1609862,0.218898 -0.1980969,0.55208 -0.088234,0.792048 0.2029975,0.443405 0.685166,0.62098 1.1146343,0.410507 z M 1.7443057,15.724588 C 1.2815631,15.63562 0.82984427,15.287711 0.61981701,14.858531 0.49266888,14.598698 0.44769309,14.414822 0.44541535,14.145495 0.44290839,13.845821 0.48153088,13.674141 0.61315753,13.40033 0.82103627,12.967878 1.255203,12.623198 1.7117108,12.528195 c 0.8428439,-0.175405 1.6489003,0.288502 1.9171623,1.103369 0.09028,0.274256 0.095105,0.674456 0.011388,0.943816 -0.087229,0.280574 -0.2092472,0.479067 -0.4309816,0.701052 -0.3207157,0.321085 -0.703612,0.477809 -1.1543444,0.472486 -0.1078648,-0.0013 -0.2476408,-0.01216 -0.3106166,-0.02432 z m 0.6522412,-0.851806 c 0.06065,-0.02683 0.1643835,-0.0994 0.2304921,-0.161218 0.3429045,-0.320747 0.3429045,-0.858657 0,-1.179403 -0.1784167,-0.166894 -0.308277,-0.217446 -0.5598594,-0.217948 -0.1908285,-3.8e-4 -0.2214236,0.0065 -0.3633309,0.08313 -0.3666335,0.197697 -0.5261816,0.579273 -0.4082524,0.976384 0.069992,0.235713 0.2900415,0.449653 0.5477681,0.532577 0.1464318,0.04712 0.4065132,0.03135 0.5531825,-0.03353 z M 5.4543346,13.656965 C 5.242953,13.608765 4.9278947,13.450789 4.758782,13.308206 c -0.6090413,-0.5135 -0.761208,-1.399929 -0.3583082,-2.08729 0.1194271,-0.203762 0.4168597,-0.488725 0.6250723,-0.598881 0.4793659,-0.253616 1.0861937,-0.253616 1.5572073,0 0.764604,0.411697 1.069806,1.372945 0.6831266,2.151516 -0.2071994,0.417188 -0.5527395,0.713296 -0.9918198,0.849937 -0.2030128,0.06318 -0.6155945,0.08003 -0.8197256,0.03347 z m 0.6406739,-0.83653 c 0.1588238,-0.05413 0.3654498,-0.247566 0.4508359,-0.422086 0.057191,-0.116899 0.068233,-0.171082 0.068505,-0.336051 2.704e-4,-0.173205 -0.00926,-0.216254 -0.080397,-0.360678 -0.087885,-0.17861 -0.2108355,-0.300604 -0.3939964,-0.390947 -0.092921,-0.04582 -0.1539024,-0.05606 -0.334286,-0.05606 -0.1803858,0 -0.2413693,0.01025 -0.3342839,0.05606 -0.1831652,0.09034 -0.3061075,0.212337 -0.3939975,0.390947 -0.071459,0.145235 -0.08057,0.186504 -0.079509,0.360563 0.00145,0.235011 0.053875,0.370621 0.2079635,0.53778 0.1285189,0.139425 0.2235208,0.198902 0.3934416,0.246311 0.1511612,0.04218 0.3222799,0.03326 0.4957181,-0.02584 z M 9.1362856,11.732132 C 8.5895258,11.588789 8.1618914,11.184532 7.982371,10.641291 7.926608,10.472544 7.917397,10.402929 7.917397,10.150479 c 0,-0.2524487 0.00926,-0.3220667 0.064974,-0.4908107 0.2682287,-0.8116764 1.0808802,-1.2793871 1.9156724,-1.1025444 0.4493716,0.0952 0.8872056,0.4355757 1.0881666,0.8459637 0.136084,0.2779027 0.177219,0.4513857 0.177219,0.7473914 0,0.296007 -0.04114,0.469489 -0.177219,0.747395 -0.200961,0.410385 -0.638795,0.750767 -1.0881666,0.845964 -0.2321347,0.04918 -0.5480501,0.04432 -0.7617578,-0.01177 z m 0.6268989,-0.798704 c 0.3760635,-0.105543 0.6125645,-0.448771 0.5840285,-0.847577 -0.02198,-0.3072417 -0.18855,-0.5424317 -0.4814205,-0.6797544 -0.113192,-0.05308 -0.1727802,-0.06455 -0.3340063,-0.0643 -0.2495616,3.96e-4 -0.4206487,0.07714 -0.5928967,0.2659397 -0.2773256,0.303982 -0.2847702,0.7699747 -0.016982,1.0677307 0.2359957,0.262484 0.517594,0.34882 0.841354,0.257954 z M 2.8969476,11.142886 C 2.8477059,11.116866 2.7852031,11.059439 2.758044,11.015274 2.6527466,10.843981 2.6520517,10.84759 3.0341622,9.5795713 L 3.3908915,8.3957872 3.0324926,7.6306525 C 2.8199214,7.1768398 2.6691,6.8238111 2.6618132,6.7630111 2.6294422,6.4928941 2.8977042,6.2643054 3.162156,6.3366581 c 0.1791116,0.04901 0.2113494,0.09772 0.5692059,0.8598107 0.2526615,0.5380717 0.3545248,0.7309344 0.3979583,0.7534664 0.032101,0.0166 0.583714,0.201486 1.2257921,0.410736 0.6476051,0.2110497 1.196328,0.4031947 1.2323531,0.4315317 0.091995,0.07236 0.1374949,0.1734157 0.1374949,0.3053597 0,0.238583 -0.1623956,0.4102597 -0.3854597,0.4074877 C 6.2580456,9.5040503 5.9053863,9.3995946 5.1805351,9.1618276 4.6075052,8.9738556 4.1312389,8.8270659 4.1221685,8.8356339 4.1130985,8.8441339 3.9627265,9.3266976 3.7880275,9.9078473 3.6133169,10.489 3.4508289,10.994331 3.4269281,11.030807 3.3284051,11.181177 3.0720269,11.235395 2.896938,11.142899 Z"
       id="path868"
       sodipodi:nodetypes="sssssccsssssscsssssscssscsscsscssssscscccccccccccsscccssccccsssccccssccccccssccssscscsccssssscsssssccccssscccsssscsscssssccccsccccccccccccccccccccccscccccccccccccsssssscccccsssccccccccccssssccccscssccccccsssccssssssscsscccsscssssccccsccsssssscssscssssscsscsssssssssssscscccssscsscccsscssssscccsssscccccscsssscsssssccscc" />
  </g>
</svg>
