<?xml version="1.0" encoding="UTF-8" standalone="no"?> <!-- Created with Vectornator for iOS (http://vectornator.io/) --><!DOCTYPE svg PUBLIC "-//W3C//DTD SVG 1.1//EN" "http://www.w3.org/Graphics/SVG/1.1/DTD/svg11.dtd">
<svg xmlns="http://www.w3.org/2000/svg" xmlns:xlink="http://www.w3.org/1999/xlink" style="fill-rule:nonzero;clip-rule:evenodd;stroke-linecap:round;stroke-linejoin:round;" xml:space="preserve" viewBox="0 0 1357.57 314.173" height="100%" width="100%" xmlns:vectornator="http://vectornator.io" version="1.1">
<metadata>
<vectornator:setting value="true" key="WDRulersVisible"/>
<vectornator:setting key="UndoHistoryDisabled" value="false"/>
<vectornator:setting key="VNPencilOnly" value="false"/>
<vectornator:setting value="false" key="IsTimeLapseWatermarkDisabled"/>
<vectornator:setting key="VNSnapToGuides" value="true"/>
<vectornator:setting key="WDDynamicGuides" value="false"/>
<vectornator:setting key="WDOutlineMode" value="false"/>
<vectornator:setting key="WDIsolateActiveLayer" value="false"/>
<vectornator:setting key="WDSnapToPoints" value="false"/>
<vectornator:setting value="Points" key="WDUnits"/>
<vectornator:setting key="WDSnapToGrid" value="false"/>
<vectornator:setting key="WDCMYKEnabledKey" value="false"/>
<vectornator:setting value="true" key="WDGuidesVisible"/>
<vectornator:setting key="WDDisplayWhiteBackground" value="false"/>
<vectornator:setting value="true" key="VNDimensionsVisible"/>
<vectornator:setting key="WDSnapToEdges" value="false"/>
</metadata>
<defs/>
<g id="g2382" vectornator:layerName="g2382">
<path d="M126.299+78.4503C126.299+65.7697+136.578+55.4902+149.259+55.4902C161.939+55.4902+172.219+65.7697+172.219+78.4503C172.219+91.1304+161.939+101.411+149.259+101.411C136.578+101.411+126.299+91.1304+126.299+78.4503Z" fill="none" stroke-linecap="butt" stroke-width="6.08" stroke="#377e7f" stroke-linejoin="miter" opacity="1"/>
<path stroke-linejoin="miter" stroke="#377e7f" stroke-linecap="butt" opacity="1" stroke-width="6.08" d="M91.483+154.534C91.0035+149.236+92.1133+131.183+91.9332+129.802C91.7531+128.407+102.799+117.168+106.49+113.836" fill="none"/>
<path fill="none" stroke-linecap="butt" d="M210.096+154.534C210.576+149.236+209.465+131.183+209.645+129.802C209.826+128.407+198.781+117.168+195.089+113.836" stroke="#377e7f" stroke-linejoin="miter" stroke-width="6.08" opacity="1"/>
<path stroke-linejoin="round" fill="none" stroke-width="6.08" opacity="1" stroke="#808080" stroke-linecap="round" d="M126.314+189.65L81.0992+265.508"/>
<path stroke="#808080" fill="none" stroke-linejoin="round" stroke-width="6.08" opacity="1" d="M149.288+189.65L149.169+267.084" stroke-linecap="round"/>
<path stroke-linecap="round" fill="none" opacity="1" stroke-linejoin="round" stroke-width="6.08" d="M172.219+189.65L219.265+267.534" stroke="#808080"/>
<path opacity="1" fill="none" stroke-linecap="round" stroke="#808080" stroke-linejoin="round" d="M31.5774+34.7811L266.581+34.7811" stroke-width="6.08"/>
<path stroke-width="6.08" fill="none" stroke-linecap="round" stroke-linejoin="round" stroke="#808080" opacity="1" d="M47.027+34.7446L47.027+186.274"/>
<path fill="none" stroke="#808080" stroke-linecap="round" d="M251.49+35.097L251.49+186.628" stroke-width="6.08" stroke-linejoin="round" opacity="1"/>
<path d="M115.134+119.763C115.134+108.524+124.243+99.4298+135.483+99.4298C137.299+99.459+147.233+128.257+149.049+128.287C155.577+115.666+151.584+123.74+163.215+99.4298C174.455+99.4298+183.564+108.524+183.564+119.763L183.564+150.227C183.564+161.467+174.455+170.561+163.215+170.561L135.483+170.561C124.243+170.561+115.134+161.467+115.134+150.227L115.134+119.763Z" opacity="1" fill="none" stroke-linecap="butt" stroke-width="6.08" stroke-linejoin="miter" stroke="#377e7f"/>
<path opacity="1" d="M74.6163+163.088C74.6163+160.146+76.9866+157.775+79.9287+157.775L218.949+157.775C221.891+157.775+224.261+160.146+224.261+163.088L224.261+184.337C224.261+187.278+221.891+189.65+218.949+189.65L79.9287+189.65C76.9866+189.65+74.6163+187.278+74.6163+184.337L74.6163+163.088Z" fill-rule="evenodd" fill="#ffffff"/>
<path fill="none" stroke="#377e7f" opacity="1" d="M74.6163+161.474C74.6163+158.463+76.9866+156.037+79.9287+156.037L218.949+156.037C221.891+156.037+224.261+158.463+224.261+161.474L224.261+183.221C224.261+186.231+221.891+188.658+218.949+188.658L79.9287+188.658C76.9866+188.658+74.6163+186.231+74.6163+183.221L74.6163+161.474Z" stroke-width="6.08" stroke-linecap="butt" stroke-linejoin="miter"/>
<path stroke-width="6.08" stroke-linejoin="round" d="M31.5774+188.749L266.581+188.749" opacity="1" stroke-linecap="round" fill="none" stroke="#808080"/>
</g>
<g id="g2430" vectornator:layerName="g2430">
<path opacity="1" d="M563.448+174.163C563.448+117.317+609.52+71.2471+666.364+71.2471C723.209+71.2471+769.279+117.317+769.279+174.163C769.279+231.007+723.209+277.078+666.364+277.078C609.52+277.078+563.448+231.007+563.448+174.163Z" stroke="#808080" fill="none" stroke-width="6.08" stroke-linecap="butt" stroke-linejoin="miter" stroke-dasharray="6.079999923706055,6.079999923706055"/>
<path fill-rule="evenodd" d="M619.273+39.238C619.273+34.646+623.01+30.9093+627.602+30.9093L704.946+30.9093C709.538+30.9093+713.275+34.646+713.275+39.238L713.275+100.555C713.275+105.147+709.538+108.884+704.946+108.884L627.602+108.884C623.01+108.884+619.273+105.147+619.273+100.555L619.273+39.238Z" opacity="1" fill="#ffffff"/>
<path stroke="#808080" opacity="1" stroke-width="6.08" stroke-linecap="butt" stroke-linejoin="miter" fill="none" d="M619.273+39.238C619.273+34.646+623.01+30.9093+627.602+30.9093L704.946+30.9093C709.538+30.9093+713.275+34.646+713.275+39.238L713.275+100.555C713.275+105.147+709.538+108.884+704.946+108.884L627.602+108.884C623.01+108.884+619.273+105.147+619.273+100.555L619.273+39.238Z"/>
<path fill="none" stroke-linejoin="miter" opacity="1" stroke="#ed722e" d="M652.408+55.8503C652.408+48.6472+658.291+42.7946+665.553+42.7946C672.817+42.7946+678.699+48.6472+678.699+55.8503C678.699+63.0535+672.817+68.9061+665.553+68.9061C658.291+68.9061+652.408+63.0535+652.408+55.8503Z" stroke-width="6.08" stroke-linecap="butt"/>
<path d="M634.94+89.9002C634.94+83.4774+640.148+78.2702+646.571+78.2702L683.277+78.2702C689.7+78.2702+694.906+83.4774+694.906+89.9002L694.906+96.7128C694.906+103.136+689.7+108.344+683.277+108.344L646.571+108.344C640.148+108.344+634.94+103.136+634.94+96.7128L634.94+89.9002Z" fill="#ffffff" opacity="1" fill-rule="evenodd"/>
<path opacity="1" stroke-linecap="butt" d="M634.94+89.9002C634.94+83.4774+640.148+78.2702+646.571+78.2702L683.277+78.2702C689.7+78.2702+694.906+83.4774+694.906+89.9002L694.906+96.7128C694.906+103.136+689.7+108.344+683.277+108.344L646.571+108.344C640.148+108.344+634.94+103.136+634.94+96.7128L634.94+89.9002Z" stroke="#ed722e" fill="none" stroke-width="6.08" stroke-linejoin="miter"/>
<path stroke-linecap="butt" stroke-linejoin="miter" stroke-width="4" d="M648.356+90.0656L648.356+103.871" stroke="#ed722e" opacity="1" fill="none"/>
<path opacity="1" d="M683.111+90.0656L683.111+103.871" stroke="#ed722e" stroke-linejoin="miter" stroke-linecap="butt" fill="none" stroke-width="4"/>
<path opacity="1" fill-rule="evenodd" fill="#ffffff" d="M615.852+110.144C615.852+105.672+610.449+100.24+614.922+100.24L717.236+100.69C721.259+102.716+716.532+105.672+716.532+110.144L716.532+110.144C714.956+115.066+712.914+118.248+708.457+118.248L623.926+118.248C619.469+118.248+615.852+114.616+615.852+110.144Z"/>
<path d="M615.852+110.144C615.852+105.672+610.449+100.24+614.922+100.24L717.236+100.69C721.259+102.716+716.532+105.672+716.532+110.144L716.532+110.144C714.956+115.066+712.914+118.248+708.457+118.248L623.926+118.248C619.469+118.248+615.852+114.616+615.852+110.144Z" stroke="#808080" stroke-width="6.08" opacity="1" stroke-linecap="butt" fill="none" stroke-linejoin="miter"/>
<g opacity="1">
<path fill-rule="evenodd" d="M716.876+177.014C716.876+172.407+720.613+168.67+725.221+168.67L802.534+168.67C807.141+168.67+810.877+172.407+810.877+177.014L810.877+238.48C810.877+243.088+807.141+246.825+802.534+246.825L725.221+246.825C720.613+246.825+716.876+243.088+716.876+238.48L716.876+177.014Z" opacity="1" fill="#ffffff"/>
<path stroke-width="6.08" d="M716.876+177.014C716.876+172.407+720.613+168.67+725.221+168.67L802.534+168.67C807.141+168.67+810.877+172.407+810.877+177.014L810.877+238.48C810.877+243.088+807.141+246.825+802.534+246.825L725.221+246.825C720.613+246.825+716.876+243.088+716.876+238.48L716.876+177.014Z" stroke-linejoin="miter" fill="none" opacity="1" stroke-linecap="butt" stroke="#808080"/>
<path stroke-linejoin="miter" stroke="#ed722e" d="M750.191+193.701C750.191+186.437+756.043+180.556+763.247+180.556C770.45+180.556+776.302+186.437+776.302+193.701C776.302+200.964+770.45+206.847+763.247+206.847C756.043+206.847+750.191+200.964+750.191+193.701Z" stroke-width="6.08" stroke-linecap="butt" opacity="1" fill="none"/>
<path d="M732.543+227.766C732.543+221.389+737.72+216.211+744.099+216.211L781.135+216.211C787.512+216.211+792.69+221.389+792.69+227.766L792.69+234.549C792.69+240.927+787.512+246.104+781.135+246.104L744.099+246.104C737.72+246.104+732.543+240.927+732.543+234.549L732.543+227.766Z" fill="#ffffff" opacity="1" fill-rule="evenodd"/>
<path stroke-linejoin="miter" stroke="#ed722e" d="M732.543+227.766C732.543+221.389+737.72+216.211+744.099+216.211L781.135+216.211C787.512+216.211+792.69+221.389+792.69+227.766L792.69+234.549C792.69+240.927+787.512+246.104+781.135+246.104L744.099+246.104C737.72+246.104+732.543+240.927+732.543+234.549L732.543+227.766Z" stroke-width="6.08" stroke-linecap="butt" opacity="1" fill="none"/>
<path stroke-linecap="butt" fill="none" stroke-width="4" stroke="#ed722e" d="M745.959+228.006L745.959+241.812" stroke-linejoin="miter" opacity="1"/>
<path stroke-linecap="butt" d="M780.714+228.006L780.714+241.812" stroke="#ed722e" fill="none" stroke-width="4" opacity="1" stroke-linejoin="miter"/>
<path fill-rule="evenodd" opacity="1" d="M713.62+247.995C713.62+243.553+708.248+238.181+712.705+238.181L814.839+238.631C818.846+240.641+814.149+243.553+814.149+247.995L814.149+247.995C812.574+252.872+810.533+256.009+806.076+256.009L721.693+256.009C717.236+256.009+713.62+252.422+713.62+247.995Z" fill="#ffffff"/>
<path stroke-linecap="butt" fill="none" stroke="#808080" stroke-linejoin="miter" d="M713.62+247.995C713.62+243.553+708.248+238.181+712.705+238.181L814.839+238.631C818.846+240.641+814.149+243.553+814.149+247.995L814.149+247.995C812.574+252.872+810.533+256.009+806.076+256.009L721.693+256.009C717.236+256.009+713.62+252.422+713.62+247.995Z" stroke-width="6.08" opacity="1"/>
</g>
<g opacity="1">
<path d="M522.21+178.079C522.21+173.487+525.947+169.751+530.539+169.751L607.883+169.751C612.475+169.751+616.212+173.487+616.212+178.079L616.212+239.396C616.212+243.988+612.475+247.725+607.883+247.725L530.539+247.725C525.947+247.725+522.21+243.988+522.21+239.396L522.21+178.079Z" fill-rule="evenodd" opacity="1" fill="#ffffff"/>
<path stroke-linejoin="miter" stroke-width="6.08" stroke="#808080" opacity="1" d="M522.21+178.079C522.21+173.487+525.947+169.751+530.539+169.751L607.883+169.751C612.475+169.751+616.212+173.487+616.212+178.079L616.212+239.396C616.212+243.988+612.475+247.725+607.883+247.725L530.539+247.725C525.947+247.725+522.21+243.988+522.21+239.396L522.21+178.079Z" stroke-linecap="butt" fill="none"/>
<path stroke="#ed722e" stroke-linejoin="miter" stroke-width="6.08" fill="none" stroke-linecap="butt" opacity="1" d="M555.525+194.692C555.525+187.489+561.378+181.636+568.581+181.636C575.784+181.636+581.636+187.489+581.636+194.692C581.636+201.895+575.784+207.747+568.581+207.747C561.378+207.747+555.525+201.895+555.525+194.692Z"/>
<path opacity="1" fill="#ffffff" fill-rule="evenodd" d="M537.877+228.741C537.877+222.318+543.085+217.112+549.508+217.112L586.394+217.112C592.817+217.112+598.024+222.318+598.024+228.741L598.024+235.554C598.024+241.977+592.817+247.185+586.394+247.185L549.508+247.185C543.085+247.185+537.877+241.977+537.877+235.554L537.877+228.741Z"/>
<path stroke-linejoin="miter" d="M537.877+228.741C537.877+222.318+543.085+217.112+549.508+217.112L586.394+217.112C592.817+217.112+598.024+222.318+598.024+228.741L598.024+235.554C598.024+241.977+592.817+247.185+586.394+247.185L549.508+247.185C543.085+247.185+537.877+241.977+537.877+235.554L537.877+228.741Z" stroke-width="6.08" fill="none" opacity="1" stroke-linecap="butt" stroke="#ed722e"/>
<path opacity="1" fill="none" stroke-linecap="butt" stroke="#ed722e" stroke-width="4" d="M551.293+228.907L551.293+242.712" stroke-linejoin="miter"/>
<path stroke-linecap="butt" fill="none" stroke-linejoin="miter" stroke="#ed722e" opacity="1" stroke-width="4" d="M586.048+228.907L586.048+242.712"/>
<path opacity="1" fill="#ffffff" fill-rule="evenodd" d="M518.954+248.986C518.954+244.513+513.582+239.081+518.039+239.081L620.173+239.532C624.18+241.557+619.484+244.513+619.484+248.986L619.484+248.986C617.908+253.907+615.867+257.089+611.41+257.089L527.027+257.089C522.57+257.089+518.954+253.457+518.954+248.986Z"/>
<path opacity="1" stroke-linecap="butt" stroke="#808080" fill="none" stroke-width="6.08" d="M518.954+248.986C518.954+244.513+513.582+239.081+518.039+239.081L620.173+239.532C624.18+241.557+619.484+244.513+619.484+248.986L619.484+248.986C617.908+253.907+615.867+257.089+611.41+257.089L527.027+257.089C522.57+257.089+518.954+253.457+518.954+248.986Z" stroke-linejoin="miter"/>
</g>
<g opacity="1">
<path fill="#ed722e" fill-rule="evenodd" opacity="1" d="M699.05+175.57C699.05+171.33+696.343+168.052+692.957+167.667C695.157+166.318+696.511+163.619+696.511+160.535C696.511+156.102+693.465+152.44+689.742+152.44C689.573+152.44+689.573+152.44+689.403+152.44C689.573+151.861+689.742+151.283+689.742+150.512C689.742+146.079+686.695+142.416+682.972+142.416C681.788+142.416+680.771+142.802+679.756+143.573C679.417+139.332+676.541+136.056+672.986+136.056C669.263+136.056+666.216+139.718+666.216+144.151C666.216+148.585+666.216+206.024+666.216+206.024C666.216+210.458+669.263+214.12+672.986+214.12C676.541+214.12+679.587+210.651+679.756+206.41C680.941+207.567+682.295+208.338+683.818+208.338C687.541+208.338+690.588+204.676+690.588+200.243C690.588+198.893+690.249+197.736+689.742+196.58C690.08+196.58+690.249+196.773+690.588+196.773C694.311+196.773+697.358+193.11+697.358+188.677C697.358+186.364+696.511+184.244+695.157+182.702C697.527+181.352+699.05+178.847+699.05+175.57Z"/>
<path fill-rule="evenodd" d="M674.509+217.333C669.771+217.333+666.046+212.845+666.046+207.186L666.046+144.549C666.046+138.89+669.94+134.401+674.509+134.401C678.063+134.401+681.279+137.134+682.464+141.231C683.142+141.036+683.818+140.841+684.496+140.841C689.234+140.841+692.957+145.329+692.957+150.988C692.957+150.988+692.957+150.988+692.957+151.182C696.85+152.158+699.727+156.256+699.727+161.135C699.727+163.476+699.05+165.818+697.697+167.574C700.404+169.33+702.097+172.648+702.097+176.355C702.097+179.281+701.081+182.014+699.219+183.966C700.066+185.527+700.573+187.477+700.573+189.624C700.573+194.697+697.527+198.795+693.635+199.576C693.803+200.162+693.803+200.747+693.803+201.332C693.803+206.991+689.911+211.479+685.341+211.479C684.326+211.479+683.31+211.284+682.295+210.699C681.11+214.601+678.063+217.333+674.509+217.333ZM674.509+138.109C671.632+138.109+669.432+141.036+669.432+144.353L669.432+206.99C669.432+210.503+671.801+213.234+674.509+213.234C677.217+213.234+679.417+210.697+679.587+207.381C679.587+206.601+680.095+206.015+680.603+205.625C681.11+205.234+681.788+205.429+682.295+205.82C684.496+207.966+687.204+207.576+688.896+205.429C689.911+204.258+690.419+202.697+690.419+200.942C690.419+199.966+690.25+199.185+689.742+198.014C689.404+197.429+689.573+196.649+689.911+196.063C690.25+195.477+690.927+195.087+691.434+195.283C691.604+195.283+691.773+195.283+692.112+195.477L692.112+195.477C694.989+195.477+697.189+192.746+697.189+189.233C697.189+187.477+696.681+185.916+695.496+184.746C695.327+184.355+695.157+183.77+695.157+183.185C695.157+182.599+695.496+182.013+696.004+181.818C697.697+180.648+698.882+178.501+698.882+176.355C698.882+173.233+696.85+170.501+694.312+170.111C693.635+170.111+692.958+169.33+692.788+168.55C692.619+167.769+692.958+166.793+693.635+166.404C695.327+165.232+696.343+163.281+696.343+160.939C696.343+157.428+694.142+154.695+691.434+154.695C691.265+154.695+691.095+154.695+691.095+154.695C690.588+154.695+690.08+154.5+689.742+153.915C689.404+153.524+689.234+152.745+689.404+152.159L689.573+151.573C689.742+151.183+689.742+150.793+689.742+150.598C689.742+147.086+687.372+144.354+684.664+144.354C683.988+144.354+683.142+144.549+682.295+145.134C681.788+145.524+681.11+145.524+680.603+145.134C680.095+144.743+679.756+144.158+679.756+143.573C679.249+140.645+677.048+138.109+674.509+138.109Z" fill="#193651" opacity="1"/>
<path fill-rule="evenodd" fill="#193651" d="M681.713+164.468L681.713+164.468C680.698+164.468+680.021+163.79+680.021+162.775C680.021+161.76+680.698+161.082+681.713+161.082L681.713+161.082L681.713+161.082C683.575+161.082+685.438+160.236+686.96+158.713C688.483+157.189+689.33+155.159+689.33+153.297C689.33+152.281+690.007+151.604+691.022+151.604C692.038+151.604+692.715+152.281+692.715+153.297C692.715+156.005+691.53+158.882+689.33+161.082C687.299+163.283+684.591+164.468+681.713+164.468Z" opacity="1"/>
<path fill="#193651" d="M681.279+210.562C680.264+210.562+679.586+209.886+679.586+208.87C679.586+206.332+677.048+203.962+674.509+203.962C673.494+203.962+672.816+203.285+672.816+202.27C672.816+201.253+673.494+200.577+674.509+200.577C678.91+200.577+682.972+204.469+682.972+208.87C682.972+209.886+682.125+210.562+681.279+210.562Z" opacity="1" fill-rule="evenodd"/>
<path fill-rule="evenodd" fill="#193651" d="M685.342+193.835L685.342+193.835C684.326+193.835+683.649+193.159+683.649+192.143C683.649+186.388+690.25+181.818+696.004+181.818L696.004+181.818C697.02+181.818+697.697+182.496+697.697+183.511C697.697+184.526+697.02+185.204+696.004+185.204L696.004+185.204C691.942+185.204+687.034+188.419+687.034+192.143C687.035+192.989+686.357+193.835+685.342+193.835Z" opacity="1"/>
<path d="M633.551+174.799C633.551+179.039+636.259+182.317+639.643+182.702C637.443+184.051+636.089+186.75+636.089+189.834C636.089+194.267+639.136+197.93+642.859+197.93C643.029+197.93+643.029+197.93+643.198+197.93C643.029+198.507+642.859+199.086+642.859+199.857C642.859+204.29+645.906+207.952+649.629+207.952C650.814+207.952+651.829+207.567+652.846+206.796C653.183+211.036+656.061+214.314+659.615+214.314C663.339+214.314+666.385+210.651+666.385+206.218C666.385+201.785+666.385+144.344+666.385+144.344C666.385+139.91+663.339+136.248+659.615+136.248C656.061+136.248+653.014+139.718+652.846+143.959C651.66+142.802+650.306+142.031+648.784+142.031C645.059+142.031+642.014+145.693+642.014+150.127C642.014+151.476+642.351+152.632+642.859+153.789C642.521+153.789+642.351+153.597+642.014+153.597C638.289+153.597+635.244+157.258+635.244+161.692C635.244+164.005+636.089+166.124+637.443+167.667C635.074+169.016+633.551+171.715+633.551+174.799Z" fill-rule="evenodd" fill="#f16051" opacity="1"/>
<path fill="#193651" opacity="1" fill-rule="evenodd" d="M661.139+217.333C657.585+217.333+654.369+214.601+653.184+210.504C652.507+210.699+651.83+210.893+651.153+210.893C646.414+210.893+642.69+206.406+642.69+200.747C642.69+200.747+642.69+200.747+642.69+200.552C638.798+199.576+635.92+195.478+635.92+190.599C635.92+188.258+636.598+185.916+637.952+184.16C635.244+182.405+633.551+179.087+633.551+175.379C633.551+172.453+634.566+169.72+636.429+167.769C635.583+166.208+635.075+164.257+635.075+162.111C635.075+157.037+638.121+152.939+642.014+152.158C641.845+151.573+641.845+150.988+641.845+150.402C641.845+144.743+645.737+140.255+650.306+140.255C651.323+140.255+652.338+140.451+653.353+141.036C654.538+137.134+657.585+134.401+661.308+134.401C666.046+134.401+669.771+138.89+669.771+144.549L669.771+207.186C669.601+212.845+665.878+217.333+661.139+217.333ZM654.369+205.82C654.707+205.82+654.877+205.82+655.215+206.015C655.723+206.406+656.061+206.991+656.061+207.576C656.231+210.893+658.431+213.235+661.139+213.235L661.139+213.235C664.016+213.235+666.216+210.308+666.216+206.991L666.216+144.549C666.216+141.036+663.847+138.304+661.139+138.304C658.431+138.304+656.231+140.841+656.061+144.158C656.061+144.938+655.553+145.524+655.046+145.914C654.538+146.304+653.861+146.11+653.353+145.719C652.338+144.743+651.323+144.353+650.306+144.353C647.43+144.353+645.229+147.28+645.229+150.597C645.229+151.573+645.398+152.354+645.907+153.524C646.244+154.11+646.076+154.89+645.737+155.476C645.398+156.061+644.722+156.452+644.214+156.256C644.044+156.256+643.875+156.256+643.537+156.061C642.183+156.061+640.999+156.647+639.982+157.817C638.967+158.989+638.459+160.55+638.459+162.306C638.459+164.061+638.967+165.622+640.152+166.793C640.491+167.183+640.66+167.769+640.66+168.354C640.66+168.939+640.321+169.526+639.813+169.72C638.121+170.891+636.935+173.037+636.935+175.184C636.935+178.306+638.967+181.038+641.505+181.428C642.183+181.428+642.859+182.209+643.029+182.989C643.198+183.77+642.859+184.746+642.183+185.135C640.321+186.307+639.306+188.257+639.306+190.599C639.306+194.111+641.505+196.844+644.213+196.844C644.383+196.844+644.552+196.844+644.552+196.844C645.059+196.844+645.568+197.038+645.906+197.624C646.244+198.014+646.413+198.794+646.244+199.381L646.076+199.966C646.076+200.161+646.076+200.551+646.076+200.746C646.076+204.258+648.445+206.99+651.153+206.99C651.83+206.99+652.676+206.795+653.522+206.21C653.861+206.015+654.2+205.82+654.369+205.82Z"/>
<path fill="#193651" opacity="1" fill-rule="evenodd" d="M660.951+153.101L660.951+153.101C656.551+153.101+652.659+149.208+652.659+144.808C652.659+143.792+653.335+143.116+654.35+143.116C655.367+143.116+656.043+143.792+656.043+144.808C656.043+147.347+658.582+149.716+661.121+149.716C662.136+149.716+662.813+150.393+662.813+151.409C662.644+152.255+661.798+153.101+660.951+153.101Z"/>
<path opacity="1" d="M639.813+169.72C638.797+169.72+638.121+169.043+638.121+168.028C638.121+167.012+638.797+166.335+639.813+166.335L639.813+166.335C641.844+166.335+644.214+165.489+645.906+164.135C646.922+163.288+648.784+161.597+648.784+159.396C648.784+158.38+649.46+157.703+650.476+157.703L650.476+157.703C651.492+157.703+652.168+158.38+652.168+159.396C652.168+162.104+650.645+164.812+647.937+166.842C645.568+168.705+642.521+169.72+639.813+169.72Z" fill-rule="evenodd" fill="#193651"/>
<path opacity="1" fill-rule="evenodd" d="M666.4+185.1C666.475+184.087+667.201+183.464+668.214+183.539C673.783+183.958+677.998+188.857+677.579+194.427C677.503+195.439+676.777+196.064+675.765+195.987C674.752+195.912+674.128+195.186+674.204+194.173C674.483+190.46+671.673+187.194+667.96+186.915C666.948+186.839+666.323+186.113+666.4+185.1Z" fill="#193651"/>
<path fill="#193651" opacity="1" fill-rule="evenodd" d="M659.505+195.253C658.49+195.253+657.812+194.576+657.812+193.561C657.812+187.976+662.383+183.405+667.968+183.405C668.983+183.405+669.66+184.083+669.66+185.098C669.66+186.114+668.983+186.791+667.968+186.791C664.245+186.791+661.198+189.837+661.198+193.561C661.198+194.576+660.52+195.253+659.505+195.253Z"/>
<path fill="#193651" fill-rule="evenodd" opacity="1" d="M665.764+174.687C664.749+174.687+664.071+174.01+664.071+172.994C664.071+170.455+661.533+168.086+658.994+168.086C657.979+168.086+657.301+167.409+657.301+166.393C657.301+165.378+657.979+164.701+658.994+164.701C663.395+164.701+667.457+168.594+667.457+172.994C667.457+174.01+666.61+174.687+665.764+174.687Z"/>
<path opacity="1" fill-rule="evenodd" fill="#193651" d="M669.902+174.687C670.918+174.687+671.595+174.01+671.595+172.994C671.595+170.455+674.133+168.086+676.672+168.086C677.689+168.086+678.365+167.409+678.365+166.393C678.365+165.378+677.689+164.701+676.672+164.701C672.272+164.701+668.21+168.594+668.21+172.994C668.21+174.01+669.056+174.687+669.902+174.687Z"/>
<path opacity="1" d="M653.257+186.042L653.257+186.042C653.142+185.033+652.391+184.438+651.382+184.554C645.666+185.214+641.883+192.296+642.543+198.012L642.543+198.012C642.66+199.02+643.409+199.616+644.419+199.499C645.427+199.383+646.023+198.632+645.906+197.624L645.906+197.624C645.44+193.589+648.071+188.344+651.771+187.917C652.611+187.821+653.374+187.051+653.257+186.042Z" fill-rule="evenodd" fill="#193651"/>
</g>
</g>
<g vectornator:layerName="g2482" id="g2482">
<path fill="none" stroke-dasharray="6.079999923706055,6.079999923706055" stroke-width="6.08" d="M1078.57+174.136C1078.57+117.291+1124.63+71.2208+1181.48+71.2207C1238.32+71.2207+1284.4+117.291+1284.4+174.136C1284.4+230.981+1238.32+277.052+1181.48+277.052C1124.63+277.052+1078.57+230.981+1078.57+174.136Z" stroke-linejoin="miter" stroke-linecap="butt" stroke="#808080" opacity="1"/>
<path fill="#ffffff" d="M1134.21+39.2117C1134.21+34.6196+1137.95+30.883+1142.54+30.883L1220.06+30.8829C1224.66+30.8829+1228.39+34.6196+1228.39+39.2116L1228.39+100.529C1228.39+105.121+1224.66+108.858+1220.07+108.858L1142.54+108.858C1137.95+108.858+1134.21+105.121+1134.21+100.529L1134.21+39.2117Z" fill-rule="evenodd" opacity="1"/>
<path stroke-linecap="butt" fill="none" opacity="1" stroke-width="6.08" stroke="#808080" d="M1134.21+39.2117C1134.21+34.6196+1137.95+30.883+1142.54+30.883L1220.06+30.8829C1224.66+30.8829+1228.39+34.6196+1228.39+39.2116L1228.39+100.529C1228.39+105.121+1224.66+108.858+1220.07+108.858L1142.54+108.858C1137.95+108.858+1134.21+105.121+1134.21+100.529L1134.21+39.2117Z" stroke-linejoin="miter"/>
<path opacity="1" stroke="#f7cd44" stroke-width="6.08" d="M1167.53+55.8239C1167.53+48.6208+1173.38+42.7682+1180.58+42.7682C1187.79+42.7682+1193.64+48.6208+1193.64+55.8239C1193.64+63.0271+1187.79+68.8797+1180.58+68.8797C1173.38+68.8797+1167.53+63.0271+1167.53+55.8239Z" stroke-linecap="butt" fill="none" stroke-linejoin="miter"/>
<path opacity="1" d="M1150.06+89.8738C1150.06+83.4511+1155.26+78.2438+1161.69+78.2438L1198.39+78.2438C1204.81+78.2438+1210.03+83.451+1210.03+89.8738L1210.03+96.6864C1210.03+103.11+1204.81+108.317+1198.39+108.317L1161.69+108.317C1155.26+108.317+1150.06+103.11+1150.06+96.6864L1150.06+89.8738Z" fill-rule="evenodd" fill="#ffffff"/>
<path stroke-linecap="butt" d="M1150.06+89.8738C1150.06+83.4511+1155.26+78.2438+1161.69+78.2438L1198.39+78.2438C1204.81+78.2438+1210.03+83.451+1210.03+89.8738L1210.03+96.6864C1210.03+103.11+1204.81+108.317+1198.39+108.317L1161.69+108.317C1155.26+108.317+1150.06+103.11+1150.06+96.6864L1150.06+89.8738Z" stroke-width="6.08" fill="none" opacity="1" stroke-linejoin="miter" stroke="#f7cd44"/>
<path stroke-linecap="butt" fill="none" d="M1163.48+90.0393L1163.48+103.845" stroke-linejoin="miter" stroke-width="4" opacity="1" stroke="#f7cd44"/>
<path d="M1198.05+90.0392L1198.05+103.845" opacity="1" stroke="#f7cd44" stroke-linecap="butt" stroke-linejoin="miter" stroke-width="4" fill="none"/>
<path opacity="1" fill="#ffffff" d="M1130.97+110.118C1130.97+105.645+1125.57+100.214+1130.04+100.214L1232.36+100.664C1236.37+102.69+1231.65+105.645+1231.65+110.118L1231.65+110.118C1230.07+115.04+1228.03+118.222+1223.58+118.222L1139.04+118.222C1134.58+118.222+1130.97+114.59+1130.97+110.118Z" fill-rule="evenodd"/>
<path d="M1130.97+110.118C1130.97+105.645+1125.57+100.214+1130.04+100.214L1232.36+100.664C1236.37+102.69+1231.65+105.645+1231.65+110.118L1231.65+110.118C1230.07+115.04+1228.03+118.222+1223.58+118.222L1139.04+118.222C1134.58+118.222+1130.97+114.59+1130.97+110.118Z" stroke-linecap="butt" stroke-linejoin="miter" fill="none" stroke="#808080" stroke-width="6.08" opacity="1"/>
<g opacity="1">
<path fill-rule="evenodd" d="M1231.82+176.987C1231.82+172.38+1235.55+168.644+1240.16+168.644L1317.65+168.644C1322.26+168.644+1326+172.38+1326+176.987L1326+238.454C1326+243.062+1322.26+246.798+1317.65+246.798L1240.16+246.798C1235.55+246.798+1231.82+243.062+1231.82+238.454L1231.82+176.987Z" fill="#ffffff" opacity="1"/>
<path opacity="1" d="M1231.82+176.987C1231.82+172.38+1235.55+168.644+1240.16+168.644L1317.65+168.644C1322.26+168.644+1326+172.38+1326+176.987L1326+238.454C1326+243.062+1322.26+246.798+1317.65+246.798L1240.16+246.798C1235.55+246.798+1231.82+243.062+1231.82+238.454L1231.82+176.987Z" stroke-width="6.08" fill="none" stroke="#808080" stroke-linejoin="miter" stroke-linecap="butt"/>
<path opacity="1" stroke="#f7cd44" stroke-linejoin="miter" stroke-width="6.08" d="M1265.13+193.675C1265.13+186.411+1271.01+180.529+1278.28+180.529C1285.54+180.529+1291.42+186.411+1291.42+193.675C1291.42+200.938+1285.54+206.821+1278.28+206.821C1271.01+206.821+1265.13+200.938+1265.13+193.675Z" stroke-linecap="butt" fill="none"/>
<path opacity="1" fill-rule="evenodd" fill="#ffffff" d="M1247.66+227.739C1247.66+221.362+1252.84+216.185+1259.21+216.185L1296.07+216.185C1302.45+216.185+1307.63+221.362+1307.63+227.739L1307.63+234.522C1307.63+240.901+1302.45+246.078+1296.07+246.078L1259.21+246.078C1252.84+246.078+1247.66+240.901+1247.66+234.522L1247.66+227.739Z"/>
<path fill="none" opacity="1" stroke="#f7cd44" stroke-linejoin="miter" stroke-linecap="butt" stroke-width="6.08" d="M1247.66+227.739C1247.66+221.362+1252.84+216.185+1259.21+216.185L1296.07+216.185C1302.45+216.185+1307.63+221.362+1307.63+227.739L1307.63+234.522C1307.63+240.901+1302.45+246.078+1296.07+246.078L1259.21+246.078C1252.84+246.078+1247.66+240.901+1247.66+234.522L1247.66+227.739Z"/>
<path stroke-width="4" stroke="#f7cd44" d="M1261.08+227.98L1261.08+241.785" fill="none" stroke-linecap="butt" stroke-linejoin="miter" opacity="1"/>
<path stroke="#f7cd44" stroke-linecap="butt" stroke-linejoin="miter" d="M1295.83+227.98L1295.83+241.785" stroke-width="4" opacity="1" fill="none"/>
<path opacity="1" d="M1228.57+247.969C1228.57+243.526+1223.17+238.154+1227.64+238.154L1329.96+238.605C1333.98+240.615+1329.25+243.526+1329.25+247.969L1329.25+247.969C1327.67+252.846+1325.64+255.982+1321.18+255.982L1236.64+255.982C1232.19+255.982+1228.57+252.395+1228.57+247.969Z" fill="#ffffff" fill-rule="evenodd"/>
<path fill="none" d="M1228.57+247.969C1228.57+243.526+1223.17+238.154+1227.64+238.154L1329.96+238.605C1333.98+240.615+1329.25+243.526+1329.25+247.969L1329.25+247.969C1327.67+252.846+1325.64+255.982+1321.18+255.982L1236.64+255.982C1232.19+255.982+1228.57+252.395+1228.57+247.969Z" stroke="#808080" stroke-linejoin="miter" stroke-width="6.08" opacity="1" stroke-linecap="butt"/>
</g>
<g opacity="1">
<path d="M1037.33+178.053C1037.33+173.461+1041.07+169.724+1045.66+169.724L1123+169.724C1127.59+169.724+1131.33+173.461+1131.33+178.053L1131.33+239.37C1131.33+243.962+1127.59+247.699+1123+247.699L1045.66+247.699C1041.07+247.699+1037.33+243.962+1037.33+239.37L1037.33+178.053Z" opacity="1" fill="#ffffff" fill-rule="evenodd"/>
<path stroke-linecap="butt" d="M1037.33+178.053C1037.33+173.461+1041.07+169.724+1045.66+169.724L1123+169.724C1127.59+169.724+1131.33+173.461+1131.33+178.053L1131.33+239.37C1131.33+243.962+1127.59+247.699+1123+247.699L1045.66+247.699C1041.07+247.699+1037.33+243.962+1037.33+239.37L1037.33+178.053Z" opacity="1" fill="none" stroke-width="6.08" stroke="#808080" stroke-linejoin="miter"/>
<path fill="none" d="M1070.46+194.665C1070.46+187.462+1076.34+181.61+1083.61+181.61C1090.87+181.61+1096.76+187.462+1096.76+194.665C1096.76+201.869+1090.87+207.721+1083.61+207.721C1076.34+207.721+1070.46+201.869+1070.46+194.665Z" opacity="1" stroke-width="6.08" stroke="#f7cd44" stroke-linejoin="miter" stroke-linecap="butt"/>
<path fill="#ffffff" fill-rule="evenodd" opacity="1" d="M1053+228.715C1053+222.292+1058.2+217.085+1064.62+217.085L1101.33+217.085C1107.75+217.085+1112.96+222.292+1112.96+228.715L1112.96+235.528C1112.96+241.951+1107.75+247.159+1101.33+247.159L1064.62+247.159C1058.2+247.159+1053+241.951+1053+235.528L1053+228.715Z"/>
<path stroke="#f7cd44" stroke-linejoin="miter" stroke-width="6.08" stroke-linecap="butt" d="M1053+228.715C1053+222.292+1058.2+217.085+1064.62+217.085L1101.33+217.085C1107.75+217.085+1112.96+222.292+1112.96+228.715L1112.96+235.528C1112.96+241.951+1107.75+247.159+1101.33+247.159L1064.62+247.159C1058.2+247.159+1053+241.951+1053+235.528L1053+228.715Z" opacity="1" fill="none"/>
<path stroke-linecap="butt" d="M1066.41+228.881L1066.41+242.686" opacity="1" stroke-width="4" fill="none" stroke="#f7cd44" stroke-linejoin="miter"/>
<path stroke-linejoin="miter" d="M1101.17+228.88L1101.17+242.686" stroke-linecap="butt" opacity="1" fill="none" stroke="#f7cd44" stroke-width="4"/>
<path fill-rule="evenodd" d="M1033.91+248.959C1033.91+244.487+1028.51+239.055+1032.97+239.055L1135.29+239.505C1139.31+241.531+1134.58+244.487+1134.58+248.959L1134.58+248.959C1133.01+253.881+1130.97+257.063+1126.51+257.063L1041.98+257.063C1037.52+257.063+1033.91+253.431+1033.91+248.959Z" opacity="1" fill="#ffffff"/>
<path stroke="#808080" fill="none" stroke-linejoin="miter" stroke-width="6.08" d="M1033.91+248.959C1033.91+244.487+1028.51+239.055+1032.97+239.055L1135.29+239.505C1139.31+241.531+1134.58+244.487+1134.58+248.959L1134.58+248.959C1133.01+253.881+1130.97+257.063+1126.51+257.063L1041.98+257.063C1037.52+257.063+1033.91+253.431+1033.91+248.959Z" stroke-linecap="butt" opacity="1"/>
</g>
<g opacity="1">
<path fill="#193651" opacity="1" fill-rule="evenodd" d="M1190.42+213.076L1169.09+213.076C1168.08+213.076+1167.4+212.399+1167.4+211.383L1167.4+195.136C1167.4+193.274+1166.56+191.75+1165.03+190.735C1157.42+185.488+1153.36+176.349+1154.2+167.21C1155.38+154.686+1165.87+144.699+1178.4+144.023C1193.12+143.345+1205.48+155.193+1205.48+169.748C1205.48+178.211+1201.42+185.996+1194.48+190.904C1193.12+191.92+1192.28+193.443+1192.28+195.305L1192.28+211.552C1192.11+212.23+1191.43+213.076+1190.42+213.076ZM1170.79+209.691L1188.9+209.691L1188.9+195.136C1188.9+192.258+1190.25+189.55+1192.61+188.027C1198.38+183.795+1202.09+177.025+1202.09+169.748C1202.09+157.055+1191.43+146.899+1178.74+147.577C1167.74+148.084+1158.77+156.716+1157.59+167.548C1156.73+175.671+1160.29+183.288+1167.07+188.027C1169.43+189.72+1170.79+192.428+1170.79+195.305L1170.79+209.691Z"/>
<path opacity="1" d="M1179.84+149.899L1178.89+149.899C1169.2+150.258+1160.66+157.787+1159.7+167.111C1158.95+174.103+1163.37+181.882+1169.45+186.006C1173.44+188.516+1171.58+192.327+1173.2+196.506L1174.53+199.919L1185.16+199.919L1186.75+196.506C1188.64+192.442+1187.31+188.118+1191.11+185.607C1196.62+182.023+1199.97+175.178+1199.97+169.083C1199.99+158.504+1190.86+149.899+1179.84+149.899Z" fill-rule="evenodd" fill="#f7cd44"/>
<path d="M1141.74+168.976L1152.13+168.976L1152.13+168.976L1152.13+172.53L1152.13+172.53L1141.74+172.53L1141.74+172.53L1141.74+168.976L1141.74+168.976Z" opacity="1" fill-rule="evenodd" fill="#f7cd44"/>
<path d="M1174.17+211.383L1174.17+212.906C1174.17+215.953+1176.71+218.492+1179.76+218.492C1182.8+218.492+1185.34+215.953+1185.34+212.906L1185.34+211.383L1174.17+211.383Z" fill="#ffffff" fill-rule="evenodd" opacity="1"/>
<path fill-rule="evenodd" opacity="1" d="M1185.34+209.691L1174.17+209.691C1173.15+209.691+1172.48+210.367+1172.48+211.383L1172.48+212.906C1172.48+216.968+1175.7+220.184+1179.76+220.184C1183.81+220.184+1187.03+216.968+1187.03+212.906L1187.03+211.383C1187.03+210.368+1186.19+209.691+1185.34+209.691ZM1179.76+216.799C1177.72+216.799+1176.04+215.107+1175.87+213.075L1183.64+213.075C1183.48+215.107+1181.79+216.799+1179.76+216.799Z" fill="#193651"/>
<path opacity="1" d="M1186.86+177.703L1183.31+177.703C1182.29+177.703+1181.62+177.025+1181.62+176.01L1181.62+172.456C1181.62+169.24+1184.15+166.701+1187.37+166.701C1188.73+166.701+1190.08+167.209+1191.09+168.225L1191.26+168.394C1192.78+169.918+1193.12+172.117+1192.28+174.317C1191.26+176.349+1189.24+177.703+1186.86+177.703ZM1185.01+174.317L1186.86+174.317C1188.04+174.317+1188.73+173.471+1189.07+172.795C1189.24+172.456+1189.58+171.441+1188.73+170.594C1188.21+170.087+1187.88+169.918+1187.37+169.918C1186.19+169.918+1185.01+170.763+1185.01+172.287L1185.01+174.317L1185.01+174.317Z" fill-rule="evenodd" fill="#d0956d"/>
<path fill-rule="evenodd" fill="#d0956d" opacity="1" d="M1176.04+177.703L1172.48+177.703C1170.27+177.703+1168.08+176.349+1167.23+174.149C1166.39+172.117+1166.73+169.918+1168.25+168.394L1168.42+168.225C1169.43+167.209+1170.79+166.701+1172.14+166.701C1175.36+166.701+1177.89+169.24+1177.89+172.456L1177.89+176.01C1177.72+176.857+1177.05+177.703+1176.04+177.703ZM1172.14+170.087C1171.63+170.087+1171.3+170.256+1170.79+170.594C1169.94+171.441+1170.27+172.456+1170.27+172.795C1170.62+173.471+1171.3+174.318+1172.48+174.318L1174.34+174.318L1174.34+172.456C1174.34+170.933+1173.15+170.087+1172.14+170.087Z"/>
<path fill-rule="evenodd" opacity="1" d="M1183.31+200.552C1182.29+200.552+1181.62+199.874+1181.62+198.859L1181.62+177.703L1177.72+177.703L1177.72+198.859C1177.72+199.874+1177.05+200.552+1176.04+200.552C1175.01+200.552+1174.34+199.874+1174.34+198.859L1174.34+176.01C1174.34+174.995+1175.01+174.318+1176.04+174.318L1183.31+174.318C1184.33+174.317+1185.01+174.995+1185.01+176.01L1185.01+198.859C1185.01+199.705+1184.33+200.552+1183.31+200.552Z" fill="#d0956d"/>
<path d="M1189.27+200.552L1170.07+200.552C1169.06+200.552+1168.38+199.874+1168.38+198.859C1168.38+197.844+1169.06+197.166+1170.07+197.166L1189.27+197.166C1190.28+197.166+1190.96+197.844+1190.96+198.859C1190.96+199.705+1190.28+200.552+1189.27+200.552Z" fill-rule="evenodd" opacity="1" fill="#193651"/>
<path d="M1189.27+206.814L1169.63+206.814C1168.62+206.814+1167.94+206.136+1167.94+205.121C1167.94+204.106+1168.62+203.428+1169.63+203.428L1189.27+203.428C1190.28+203.428+1190.96+204.106+1190.96+205.121C1190.96+206.136+1190.28+206.814+1189.27+206.814Z" opacity="1" fill-rule="evenodd" fill="#193651"/>
<path d="M1144.89+186.926L1153.76+181.513L1153.76+181.513L1155.61+184.546L1155.61+184.546L1146.74+189.961L1146.74+189.961L1144.89+186.926L1144.89+186.926Z" opacity="1" fill-rule="evenodd" fill="#f7cd44"/>
<path d="M1145.83+150.912L1154.91+155.974L1154.91+155.974L1153.18+159.079L1153.18+159.079L1144.09+154.017L1144.09+154.017L1145.83+150.912L1145.83+150.912Z" fill-rule="evenodd" opacity="1" fill="#f7cd44"/>
<path fill-rule="evenodd" d="M1159.37+136.234L1165.4+144.705L1165.4+144.705L1162.5+146.765L1162.5+146.765L1156.47+138.294L1156.47+138.294L1159.37+136.234L1159.37+136.234Z" opacity="1" fill="#f7cd44"/>
<path d="M1180.52+131.803L1180.52+142.198L1180.52+142.198L1176.97+142.198L1176.97+142.198L1176.97+131.803L1176.97+131.803L1180.52+131.803L1180.52+131.803Z" opacity="1" fill-rule="evenodd" fill="#f7cd44"/>
<path fill="#f7cd44" fill-rule="evenodd" d="M1217.32+168.976L1206.93+168.976L1206.93+168.976L1206.93+172.53L1206.93+172.53L1217.32+172.53L1217.32+172.53L1217.32+168.976L1217.32+168.976Z" opacity="1"/>
<path d="M1214.17+186.926L1205.3+181.513L1205.3+181.513L1203.44+184.547L1203.44+184.547L1212.32+189.961L1212.32+189.961L1214.17+186.926L1214.17+186.926Z" opacity="1" fill-rule="evenodd" fill="#f7cd44"/>
<path d="M1213.23+150.912L1204.15+155.974L1204.15+155.974L1205.88+159.078L1205.88+159.078L1214.97+154.016L1214.97+154.016L1213.23+150.912L1213.23+150.912Z" opacity="1" fill-rule="evenodd" fill="#f7cd44"/>
<path fill-rule="evenodd" fill="#f7cd44" d="M1199.69+136.234L1193.66+144.706L1193.66+144.706L1196.56+146.765L1196.56+146.765L1202.59+138.294L1202.59+138.294L1199.69+136.234L1199.69+136.234Z" opacity="1"/>
</g>
</g>
</svg>
