<?xml version="1.0" encoding="UTF-8" standalone="no"?> <!-- Created with Vectornator for iOS (http://vectornator.io/) --><!DOCTYPE svg PUBLIC "-//W3C//DTD SVG 1.1//EN" "http://www.w3.org/Graphics/SVG/1.1/DTD/svg11.dtd">
<svg xmlns="http://www.w3.org/2000/svg" version="1.1" width="100%" height="100%" viewBox="0 0 130 130" xmlns:xlink="http://www.w3.org/1999/xlink" xmlns:vectornator="http://vectornator.io" style="fill-rule:nonzero;clip-rule:evenodd;stroke-linecap:round;stroke-linejoin:round;" xml:space="preserve">
<metadata>
<vectornator:setting value="Points" key="WDUnits"/>
<vectornator:setting key="IsTimeLapseWatermarkDisabled" value="false"/>
<vectornator:setting value="true" key="VNSnapToGuides"/>
<vectornator:setting key="WDCMYKEnabledKey" value="false"/>
<vectornator:setting value="false" key="WDDisplayWhiteBackground"/>
<vectornator:setting value="false" key="WDSnapToGrid"/>
<vectornator:setting value="false" key="VNPencilOnly"/>
<vectornator:setting value="false" key="UndoHistoryDisabled"/>
<vectornator:setting value="false" key="WDSnapToEdges"/>
<vectornator:setting key="WDGuidesVisible" value="true"/>
<vectornator:setting key="WDOutlineMode" value="false"/>
<vectornator:setting value="true" key="WDRulersVisible"/>
<vectornator:setting key="WDSnapToPoints" value="false"/>
<vectornator:setting key="WDDynamicGuides" value="false"/>
<vectornator:setting key="WDIsolateActiveLayer" value="false"/>
<vectornator:setting key="VNDimensionsVisible" value="true"/>
</metadata>
<defs/>
<g id="layer1" vectornator:layerName="layer1">
<g opacity="1">
<path stroke="#808080" stroke-linejoin="miter" stroke-width="1.60867" stroke-linecap="butt" d="M42.6752+44.3683C42.6752+31.0051+53.5055+20.1748+66.8687+20.1748C80.2319+20.1748+91.0622+31.0051+91.0622+44.3683C91.0622+57.7315+80.2319+68.5618+66.8687+68.5618C53.5055+68.5618+42.6752+57.7315+42.6752+44.3683Z" fill="none" stroke-dasharray="1.6086665391921997,1.6086665391921997" opacity="1"/>
<path d="M55.7985+12.65C55.7985+11.5705+56.6769+10.6921+57.7564+10.6921L75.9386+10.6921C77.0181+10.6921+77.8965+11.5705+77.8965+12.65L77.8965+27.0645C77.8965+28.144+77.0181+29.0224+75.9386+29.0224L57.7564+29.0224C56.6769+29.0224+55.7985+28.144+55.7985+27.0645L55.7985+12.65Z" opacity="1" fill="#ffffff"/>
<path stroke-linejoin="miter" d="M55.7985+12.65C55.7985+11.5705+56.6769+10.6921+57.7564+10.6921L75.9386+10.6921C77.0181+10.6921+77.8965+11.5705+77.8965+12.65L77.8965+27.0645C77.8965+28.144+77.0181+29.0224+75.9386+29.0224L57.7564+29.0224C56.6769+29.0224+55.7985+28.144+55.7985+27.0645L55.7985+12.65Z" stroke-width="1.60867" fill="none" stroke="#808080" opacity="1" stroke-linecap="butt"/>
<path stroke-linejoin="miter" d="M63.5879+16.5553C63.5879+14.8619+64.9707+13.4861+66.6782+13.4861C68.3856+13.4861+69.7685+14.8619+69.7685+16.5553C69.7685+18.2486+68.3856+19.6244+66.6782+19.6244C64.9707+19.6244+63.5879+18.2486+63.5879+16.5553Z" stroke-linecap="butt" stroke="#ed722e" stroke-width="1.60867" fill="none" opacity="1"/>
<path fill="#ffffff" opacity="1" d="M59.4815+24.5598C59.4815+23.0499+60.7057+21.8258+62.2156+21.8258L70.8445+21.8258C72.3544+21.8258+73.5785+23.0499+73.5785+24.5598L73.5785+26.1614C73.5785+27.6713+72.3544+28.8954+70.8445+28.8954L62.2156+28.8954C60.7057+28.8954+59.4815+27.6713+59.4815+26.1614L59.4815+24.5598Z"/>
<path opacity="1" stroke="#ed722e" stroke-linejoin="miter" d="M59.4815+24.5598C59.4815+23.0499+60.7057+21.8258+62.2156+21.8258L70.8445+21.8258C72.3544+21.8258+73.5785+23.0499+73.5785+24.5598L73.5785+26.1614C73.5785+27.6713+72.3544+28.8954+70.8445+28.8954L62.2156+28.8954C60.7057+28.8954+59.4815+27.6713+59.4815+26.1614L59.4815+24.5598Z" stroke-linecap="butt" fill="none" stroke-width="1.60867"/>
<path stroke-width="1.05833" stroke-linejoin="miter" stroke-linecap="butt" fill="none" opacity="1" stroke="#ed722e" d="M62.6354+24.5986L62.6354+27.8442"/>
<path opacity="1" stroke-width="1.05833" stroke-linecap="butt" fill="none" stroke-linejoin="miter" stroke="#ed722e" d="M70.8057+24.5986L70.8057+27.8442"/>
<path opacity="1" fill="#ffffff" d="M54.9942+29.3188C54.9942+28.2675+53.7242+26.9904+54.7755+26.9904L78.8279+27.0963C79.7733+27.5725+78.662+28.2675+78.662+29.3188L78.662+29.3188C78.2916+30.4759+77.8119+31.2238+76.7641+31.2238L56.8921+31.2238C55.8444+31.2238+54.9942+30.3701+54.9942+29.3188Z"/>
<path stroke-linecap="butt" fill="none" stroke="#808080" d="M54.9942+29.3188C54.9942+28.2675+53.7242+26.9904+54.7755+26.9904L78.8279+27.0963C79.7733+27.5725+78.662+28.2675+78.662+29.3188L78.662+29.3188C78.2916+30.4759+77.8119+31.2238+76.7641+31.2238L56.8921+31.2238C55.8444+31.2238+54.9942+30.3701+54.9942+29.3188Z" opacity="1" stroke-linejoin="miter" stroke-width="1.60867"/>
<g opacity="1">
<path d="M78.7432+45.0386C78.7432+43.9555+79.6216+43.0771+80.7046+43.0771L98.8797+43.0771C99.9628+43.0771+100.841+43.9555+100.841+45.0386L100.841+59.4883C100.841+60.5714+99.9628+61.4498+98.8797+61.4498L80.7046+61.4498C79.6216+61.4498+78.7432+60.5714+78.7432+59.4883L78.7432+45.0386Z" opacity="1" fill="#ffffff"/>
<path stroke-linejoin="miter" d="M78.7432+45.0386C78.7432+43.9555+79.6216+43.0771+80.7046+43.0771L98.8797+43.0771C99.9628+43.0771+100.841+43.9555+100.841+45.0386L100.841+59.4883C100.841+60.5714+99.9628+61.4498+98.8797+61.4498L80.7046+61.4498C79.6216+61.4498+78.7432+60.5714+78.7432+59.4883L78.7432+45.0386Z" stroke-width="1.60867" stroke-linecap="butt" opacity="1" fill="none" stroke="#808080"/>
<path stroke-linecap="butt" d="M86.5749+48.9614C86.5749+47.254+87.9507+45.8711+89.644+45.8711C91.3374+45.8711+92.7132+47.254+92.7132+48.9614C92.7132+50.6689+91.3374+52.0518+89.644+52.0518C87.9507+52.0518+86.5749+50.6689+86.5749+48.9614Z" stroke-linejoin="miter" stroke="#ed722e" stroke-width="1.60867" opacity="1" fill="none"/>
<path opacity="1" d="M82.4262+56.9695C82.4262+55.4702+83.6433+54.2531+85.1426+54.2531L93.8491+54.2531C95.3484+54.2531+96.5655+55.4702+96.5655+56.9695L96.5655+58.5641C96.5655+60.0634+95.3484+61.2804+93.8491+61.2804L85.1426+61.2804C83.6433+61.2804+82.4262+60.0634+82.4262+58.5641L82.4262+56.9695Z" fill="#ffffff"/>
<path opacity="1" fill="none" stroke-linecap="butt" d="M82.4262+56.9695C82.4262+55.4702+83.6433+54.2531+85.1426+54.2531L93.8491+54.2531C95.3484+54.2531+96.5655+55.4702+96.5655+56.9695L96.5655+58.5641C96.5655+60.0634+95.3484+61.2804+93.8491+61.2804L85.1426+61.2804C83.6433+61.2804+82.4262+60.0634+82.4262+58.5641L82.4262+56.9695Z" stroke="#ed722e" stroke-linejoin="miter" stroke-width="1.60867"/>
<path stroke-linejoin="miter" fill="none" opacity="1" stroke-linecap="butt" d="M85.58+57.0259L85.58+60.2715" stroke="#ed722e" stroke-width="1.05833"/>
<path stroke-linejoin="miter" fill="none" stroke-linecap="butt" opacity="1" d="M93.7503+57.0259L93.7503+60.2715" stroke-width="1.05833" stroke="#ed722e"/>
<path d="M77.9777+61.7249C77.9777+60.6807+76.7147+59.4178+77.7625+59.4178L101.773+59.5236C102.714+59.9963+101.61+60.6807+101.61+61.7249L101.61+61.7249C101.24+62.8715+100.76+63.6088+99.7123+63.6088L79.8756+63.6088C78.8278+63.6088+77.9777+62.7656+77.9777+61.7249Z" opacity="1" fill="#ffffff"/>
<path stroke-width="1.60867" fill="none" stroke-linecap="butt" d="M77.9777+61.7249C77.9777+60.6807+76.7147+59.4178+77.7625+59.4178L101.773+59.5236C102.714+59.9963+101.61+60.6807+101.61+61.7249L101.61+61.7249C101.24+62.8715+100.76+63.6088+99.7123+63.6088L79.8756+63.6088C78.8278+63.6088+77.9777+62.7656+77.9777+61.7249Z" stroke-linejoin="miter" opacity="1" stroke="#808080"/>
</g>
<g opacity="1">
<path opacity="1" d="M32.9809+45.289C32.9809+44.2095+33.8593+43.3311+34.9388+43.3311L53.1209+43.3311C54.2004+43.3311+55.0789+44.2095+55.0789+45.289L55.0789+59.7035C55.0789+60.783+54.2004+61.6614+53.1209+61.6614L34.9388+61.6614C33.8593+61.6614+32.9809+60.783+32.9809+59.7035L32.9809+45.289Z" fill="#ffffff"/>
<path fill="none" stroke-width="1.60867" stroke-linejoin="miter" d="M32.9809+45.289C32.9809+44.2095+33.8593+43.3311+34.9388+43.3311L53.1209+43.3311C54.2004+43.3311+55.0789+44.2095+55.0789+45.289L55.0789+59.7035C55.0789+60.783+54.2004+61.6614+53.1209+61.6614L34.9388+61.6614C33.8593+61.6614+32.9809+60.783+32.9809+59.7035L32.9809+45.289Z" stroke-linecap="butt" stroke="#808080" opacity="1"/>
<path stroke-width="1.60867" stroke-linejoin="miter" fill="none" stroke-linecap="butt" opacity="1" stroke="#ed722e" d="M40.8125+49.1943C40.8125+47.5009+42.1884+46.1251+43.8817+46.1251C45.575+46.1251+46.9509+47.5009+46.9509+49.1943C46.9509+50.8876+45.575+52.2634+43.8817+52.2634C42.1884+52.2634+40.8125+50.8876+40.8125+49.1943Z"/>
<path opacity="1" fill="#ffffff" d="M36.6639+57.1988C36.6639+55.6889+37.888+54.4648+39.3979+54.4648L48.0692+54.4648C49.5791+54.4648+50.8032+55.6889+50.8032+57.1988L50.8032+58.8004C50.8032+60.3103+49.5791+61.5344+48.0692+61.5344L39.3979+61.5344C37.888+61.5344+36.6639+60.3103+36.6639+58.8004L36.6639+57.1988Z"/>
<path opacity="1" d="M36.6639+57.1988C36.6639+55.6889+37.888+54.4648+39.3979+54.4648L48.0692+54.4648C49.5791+54.4648+50.8032+55.6889+50.8032+57.1988L50.8032+58.8004C50.8032+60.3103+49.5791+61.5344+48.0692+61.5344L39.3979+61.5344C37.888+61.5344+36.6639+60.3103+36.6639+58.8004L36.6639+57.1988Z" fill="none" stroke-width="1.60867" stroke-linecap="butt" stroke-linejoin="miter" stroke="#ed722e"/>
<path d="M39.8177+57.2376L39.8177+60.4832" fill="none" opacity="1" stroke-linejoin="miter" stroke="#ed722e" stroke-width="1.05833" stroke-linecap="butt"/>
<path stroke-linejoin="miter" d="M47.988+57.2376L47.988+60.4832" stroke="#ed722e" fill="none" opacity="1" stroke-width="1.05833" stroke-linecap="butt"/>
<path opacity="1" fill="#ffffff" d="M32.2153+61.9578C32.2153+60.9065+30.9524+59.6294+32.0001+59.6294L56.0102+59.7353C56.9521+60.2115+55.8479+60.9065+55.8479+61.9578L55.8479+61.9578C55.4775+63.1149+54.9977+63.8628+53.95+63.8628L34.1133+63.8628C33.0655+63.8628+32.2153+63.0091+32.2153+61.9578Z"/>
<path stroke-linecap="butt" opacity="1" stroke-linejoin="miter" d="M32.2153+61.9578C32.2153+60.9065+30.9524+59.6294+32.0001+59.6294L56.0102+59.7353C56.9521+60.2115+55.8479+60.9065+55.8479+61.9578L55.8479+61.9578C55.4775+63.1149+54.9977+63.8628+53.95+63.8628L34.1133+63.8628C33.0655+63.8628+32.2153+63.0091+32.2153+61.9578Z" fill="none" stroke="#808080" stroke-width="1.60867"/>
</g>
<g opacity="1">
<path fill="#ed722e" opacity="1" d="M74.5525+44.6992C74.5525+43.7023+73.916+42.932+73.1202+42.8414C73.6375+42.5242+73.9558+41.8898+73.9558+41.1648C73.9558+40.1226+73.2396+39.2616+72.3643+39.2616C72.3245+39.2616+72.3245+39.2616+72.2847+39.2616C72.3245+39.1257+72.3643+38.9897+72.3643+38.8085C72.3643+37.7663+71.6481+36.9054+70.7728+36.9054C70.4943+36.9054+70.2556+36.996+70.0169+37.1773C69.9373+36.1804+69.261+35.41+68.4254+35.41C67.5501+35.41+66.834+36.271+66.834+37.3132C66.834+38.3554+66.834+51.8585+66.834+51.8585C66.834+52.9007+67.5501+53.7617+68.4254+53.7617C69.261+53.7617+69.9771+52.946+70.0169+51.9492C70.2954+52.2211+70.6137+52.4023+70.9718+52.4023C71.8471+52.4023+72.5632+51.5414+72.5632+50.4992C72.5632+50.182+72.4836+49.9101+72.3643+49.6383C72.4439+49.6383+72.4836+49.6836+72.5632+49.6836C73.4386+49.6836+74.1547+48.8227+74.1547+47.7805C74.1547+47.2367+73.9558+46.7383+73.6375+46.3758C74.1944+46.0586+74.5525+45.4695+74.5525+44.6992Z"/>
<path fill="#193651" d="M68.7835+54.5168C67.6694+54.5168+66.7941+53.4618+66.7941+52.1315L66.7941+37.4065C66.7941+36.0762+67.7092+35.0212+68.7835+35.0212C69.619+35.0212+70.3749+35.6634+70.6535+36.6267C70.8126+36.5809+70.9718+36.535+71.1309+36.535C72.2449+36.535+73.1203+37.59+73.1203+38.9203C73.1203+38.9203+73.1203+38.9203+73.1203+38.9662C74.0354+39.1956+74.7117+40.1589+74.7117+41.3057C74.7117+41.8561+74.5526+42.4066+74.2343+42.8195C74.8709+43.2323+75.2688+44.0121+75.2688+44.8837C75.2688+45.5718+75.03+46.214+74.5924+46.6727C74.7913+47.0397+74.9107+47.4985+74.9107+48.003C74.9107+49.1957+74.1945+50.159+73.2794+50.3425C73.3192+50.4801+73.3192+50.6178+73.3192+50.7554C73.3192+52.0857+72.4041+53.1407+71.3299+53.1407C71.0911+53.1407+70.8524+53.0948+70.6137+52.9572C70.3351+53.8746+69.619+54.5168+68.7835+54.5168ZM68.7835+35.8927C68.1071+35.8927+67.5898+36.5808+67.5898+37.3606L67.5898+52.0856C67.5898+52.9113+68.1469+53.5535+68.7835+53.5535C69.4201+53.5535+69.9373+52.9571+69.9771+52.1773C69.9771+51.9938+70.0964+51.8562+70.2158+51.7644C70.3352+51.6726+70.4943+51.7185+70.6137+51.8103C71.131+52.3149+71.7676+52.2232+72.1654+51.7185C72.4042+51.4433+72.5235+51.0763+72.5235+50.6635C72.5235+50.4341+72.4837+50.2506+72.3644+49.9754C72.2848+49.8378+72.3246+49.6543+72.4042+49.5167C72.4838+49.3791+72.6429+49.2873+72.7623+49.3332C72.8021+49.3332+72.8419+49.3332+72.9214+49.3791L72.9214+49.3791C73.5978+49.3791+74.1151+48.7369+74.1151+47.9112C74.1151+47.4983+73.9957+47.1314+73.7172+46.8562C73.6774+46.7644+73.6376+46.6268+73.6376+46.4892C73.6376+46.3516+73.7172+46.2139+73.8365+46.1681C74.2344+45.8928+74.5129+45.3883+74.5129+44.8837C74.5129+44.1497+74.0355+43.5075+73.4387+43.4158C73.2795+43.4158+73.1204+43.2323+73.0806+43.0488C73.0408+42.8653+73.1204+42.636+73.2795+42.5443C73.6774+42.269+73.9161+41.8103+73.9161+41.2599C73.9161+40.4341+73.3989+39.792+72.7623+39.792C72.7225+39.792+72.6827+39.792+72.6827+39.792C72.5633+39.792+72.4439+39.7461+72.3644+39.6085C72.2848+39.5167+72.245+39.3332+72.2848+39.1956L72.3246+39.058C72.3644+38.9662+72.3644+38.8745+72.3644+38.8286C72.3644+38.0029+71.8074+37.3607+71.1708+37.3607C71.0116+37.3607+70.8127+37.4066+70.6137+37.5442C70.4944+37.636+70.3352+37.636+70.2158+37.5442C70.0964+37.4525+70.0169+37.3149+70.0169+37.1773C69.8975+36.4891+69.3803+35.8927+68.7835+35.8927Z" opacity="1"/>
<path d="M70.4771+42.0892L70.4771+42.0892C70.2383+42.0892+70.0792+41.93+70.0792+41.6913C70.0792+41.4525+70.2383+41.2934+70.4771+41.2934L70.4771+41.2934L70.4771+41.2934C70.9147+41.2934+71.3524+41.0944+71.7104+40.7363C72.0685+40.3782+72.2675+39.9008+72.2675+39.4632C72.2675+39.2244+72.4266+39.0653+72.6654+39.0653C72.9041+39.0653+73.0632+39.2244+73.0632+39.4632C73.0632+40.0998+72.7848+40.7761+72.2675+41.2934C71.79+41.8107+71.1534+42.0892+70.4771+42.0892Z" opacity="1" fill="#193651"/>
<path opacity="1" d="M70.3749+52.9253C70.1362+52.9253+69.977+52.7662+69.977+52.5274C69.977+51.9306+69.3803+51.3736+68.7834+51.3736C68.5447+51.3736+68.3855+51.2145+68.3855+50.9757C68.3855+50.737+68.5447+50.5778+68.7834+50.5778C69.8179+50.5778+70.7728+51.4929+70.7728+52.5274C70.7728+52.7662+70.5739+52.9253+70.3749+52.9253Z" fill="#193651"/>
<path opacity="1" d="M71.33+48.993L71.33+48.993C71.0912+48.993+70.9321+48.8338+70.9321+48.5951C70.9321+47.2423+72.4838+46.1681+73.8365+46.1681L73.8365+46.1681C74.0753+46.1681+74.2344+46.3272+74.2344+46.566C74.2344+46.8047+74.0753+46.9639+73.8365+46.9639L73.8365+46.9639C72.8816+46.9639+71.7278+47.7198+71.7278+48.5952C71.7279+48.794+71.5687+48.993+71.33+48.993Z" fill="#193651"/>
<path fill="#f16051" opacity="1" d="M59.1549+44.5179C59.1549+45.5148+59.7915+46.2851+60.5872+46.3757C60.07+46.6929+59.7517+47.3273+59.7517+48.0523C59.7517+49.0945+60.4679+49.9554+61.3432+49.9554C61.383+49.9554+61.383+49.9554+61.4228+49.9554C61.383+50.0914+61.3432+50.2273+61.3432+50.4086C61.3432+51.4508+62.0594+52.3117+62.9346+52.3117C63.2131+52.3117+63.4519+52.2211+63.6906+52.0398C63.7702+53.0367+64.4465+53.8071+65.282+53.8071C66.1574+53.8071+66.8735+52.9461+66.8735+51.9039C66.8735+50.8617+66.8735+37.3586+66.8735+37.3586C66.8735+36.3164+66.1573+35.4554+65.282+35.4554C64.4465+35.4554+63.7303+36.2711+63.6906+37.2679C63.4121+36.996+63.0938+36.8148+62.7357+36.8148C61.8604+36.8148+61.1442+37.6757+61.1442+38.7179C61.1442+39.0351+61.2238+39.307+61.3432+39.5788C61.2636+39.5788+61.2238+39.5335+61.1442+39.5335C60.2689+39.5335+59.5528+40.3944+59.5528+41.4366C59.5528+41.9804+59.7517+42.4788+60.07+42.8413C59.513+43.1585+59.1549+43.7929+59.1549+44.5179Z"/>
<path fill="#193651" opacity="1" d="M65.6403+54.5168C64.8048+54.5168+64.0488+53.8746+63.7703+52.9113C63.6111+52.9572+63.452+53.0031+63.2928+53.0031C62.1788+53.0031+61.3035+51.9481+61.3035+50.6178C61.3035+50.6178+61.3035+50.6178+61.3035+50.5719C60.3884+50.3425+59.712+49.3792+59.712+48.2324C59.712+47.6819+59.8712+47.1315+60.1895+46.7186C59.5529+46.3058+59.155+45.5259+59.155+44.6544C59.155+43.9663+59.3937+43.3241+59.8314+42.8653C59.6324+42.4984+59.5131+42.0396+59.5131+41.5351C59.5131+40.3424+60.2292+39.379+61.1443+39.1956C61.1045+39.058+61.1045+38.9203+61.1045+38.7827C61.1045+37.4524+62.0196+36.3974+63.0939+36.3974C63.3326+36.3974+63.5713+36.4433+63.8101+36.5809C64.0886+35.6634+64.8048+35.0212+65.6801+35.0212C66.7941+35.0212+67.6694+36.0762+67.6694+37.4065L67.6694+52.1314C67.6296+53.4617+66.7543+54.5168+65.6403+54.5168ZM64.0488+51.8104C64.1284+51.8104+64.1682+51.8104+64.2478+51.8562C64.3671+51.948+64.4467+52.0856+64.4467+52.2232C64.4865+53.0031+65.0037+53.5535+65.6403+53.5535L65.6403+53.5535C66.3167+53.5535+66.834+52.8655+66.834+52.0856L66.834+37.4065C66.834+36.5808+66.2769+35.9386+65.6403+35.9386C65.0037+35.9386+64.4865+36.535+64.4467+37.3148C64.4467+37.4983+64.3274+37.6359+64.208+37.7277C64.0886+37.8194+63.9295+37.7735+63.8101+37.6818C63.5713+37.4524+63.3326+37.3607+63.0939+37.3607C62.4175+37.3607+61.9003+38.0487+61.9003+38.8286C61.9003+39.058+61.9401+39.2414+62.0594+39.5166C62.139+39.6542+62.0992+39.8377+62.0196+39.9754C61.94+40.113+61.7809+40.2048+61.6615+40.1589C61.6217+40.1589+61.5819+40.1589+61.5024+40.113C61.1841+40.113+60.9056+40.2506+60.6668+40.5258C60.4281+40.8011+60.3087+41.1681+60.3087+41.5809C60.3087+41.9937+60.4281+42.3607+60.7066+42.6359C60.7862+42.7277+60.826+42.8653+60.826+43.0029C60.826+43.1405+60.7464+43.2781+60.627+43.324C60.2291+43.5992+59.9507+44.1038+59.9507+44.6084C59.9507+45.3423+60.4281+45.9846+61.0249+46.0763C61.184+46.0763+61.3432+46.2598+61.383+46.4432C61.4228+46.6267+61.3432+46.8561+61.184+46.9478C60.7464+47.2231+60.5076+47.6818+60.5076+48.2322C60.5076+49.0579+61.0249+49.7001+61.6615+49.7001C61.7013+49.7001+61.7411+49.7001+61.7411+49.7001C61.8604+49.7001+61.9798+49.746+62.0594+49.8836C62.139+49.9754+62.1787+50.1589+62.139+50.2965L62.0992+50.4341C62.0992+50.4799+62.0992+50.5717+62.0992+50.6175C62.0992+51.4433+62.6562+52.0854+63.2928+52.0854C63.4519+52.0854+63.6509+52.0396+63.8498+51.902C63.9294+51.8562+64.009+51.8104+64.0488+51.8104Z"/>
<path d="M65.5962+39.4172L65.5962+39.4172C64.5617+39.4172+63.6467+38.5021+63.6467+37.4676C63.6467+37.2289+63.8058+37.0697+64.0446+37.0697C64.2833+37.0697+64.4424+37.2289+64.4424+37.4676C64.4424+38.0644+65.0392+38.6214+65.6361+38.6214C65.8748+38.6214+66.034+38.7806+66.034+39.0193C65.9941+39.2182+65.7952+39.4172+65.5962+39.4172Z" opacity="1" fill="#193651"/>
<path fill="#193651" d="M60.627+43.324C60.3883+43.324+60.2291+43.1648+60.2291+42.9261C60.2291+42.6873+60.3883+42.5282+60.627+42.5282L60.627+42.5282C61.1045+42.5282+61.6615+42.3292+62.0594+42.0109C62.2981+41.812+62.7357+41.4142+62.7357+40.8969C62.7357+40.6582+62.8949+40.499+63.1336+40.499L63.1336+40.499C63.3724+40.499+63.5315+40.6582+63.5315+40.8969C63.5315+41.5335+63.1734+42.1701+62.5368+42.6475C61.9798+43.0853+61.2636+43.324+60.627+43.324Z" opacity="1"/>
<path d="M66.877+46.9396C66.8949+46.7015+67.0655+46.5547+67.3036+46.5726C68.6129+46.671+69.6036+47.8228+69.5051+49.132C69.4872+49.3701+69.3166+49.5169+69.0785+49.499C68.8405+49.4811+68.6937+49.3105+68.7116+49.0724C68.7772+48.1995+68.1167+47.4317+67.2439+47.3661C67.0059+47.3483+66.8591+47.1776+66.877+46.9396Z" opacity="1" fill="#193651"/>
<path d="M65.2563+49.3263C65.0176+49.3263+64.8584+49.1672+64.8584+48.9284C64.8584+47.6154+65.9327+46.5412+67.2456+46.5412C67.4844+46.5412+67.6435+46.7004+67.6435+46.9391C67.6435+47.1778+67.4844+47.337+67.2456+47.337C66.3703+47.337+65.6542+48.0532+65.6542+48.9285C65.6542+49.1672+65.495+49.3263+65.2563+49.3263Z" opacity="1" fill="#193651"/>
<path d="M66.7276+44.4915C66.4889+44.4915+66.3297+44.3324+66.3297+44.0937C66.3297+43.4969+65.733+42.9398+65.1361+42.9398C64.8974+42.9398+64.7382+42.7807+64.7382+42.5419C64.7382+42.3032+64.8974+42.144+65.1361+42.144C66.1706+42.144+67.1255+43.0591+67.1255+44.0936C67.1255+44.3324+66.9266+44.4915+66.7276+44.4915Z" opacity="1" fill="#193651"/>
<path d="M67.7005+44.4915C67.9392+44.4915+68.0984+44.3324+68.0984+44.0937C68.0984+43.4969+68.6951+42.9398+69.292+42.9398C69.5307+42.9398+69.6899+42.7807+69.6899+42.5419C69.6899+42.3032+69.5307+42.144+69.292+42.144C68.2575+42.144+67.3026+43.0591+67.3026+44.0936C67.3026+44.3324+67.5015+44.4915+67.7005+44.4915Z" opacity="1" fill="#193651"/>
<path d="M63.7876+47.1609L63.7876+47.1609C63.7602+46.9237+63.5839+46.7839+63.3467+46.8113C62.0029+46.9664+61.1137+48.6311+61.2688+49.9749L61.2688+49.9749C61.2962+50.212+61.4726+50.3519+61.7097+50.3245C61.9469+50.2971+62.0867+50.1208+62.0594+49.8836L62.0594+49.8836C61.9498+48.935+62.5685+47.7021+63.438+47.6017C63.6356+47.579+63.815+47.3981+63.7876+47.1609Z" fill="#193651" opacity="1"/>
</g>
</g>
<g opacity="1">
<path opacity="1" fill="#808080" d="M45.2064+94.0459L45.2064+83.4626L49.9195+83.4626C50.5592+83.4626+51.1095+83.6954+51.5705+84.1611C52.0315+84.6267+52.2619+85.1794+52.2619+85.8191L52.2619+86.9903C52.2619+87.63+52.0315+88.1827+51.5705+88.6484C51.1095+89.1141+50.5592+89.3469+49.9195+89.3469L47.5629+89.3469L47.5629+94.0459L45.2064+94.0459ZM47.5629+88.1616L48.7342+88.1616C49.0634+88.1616+49.3433+88.0463+49.5738+87.8158C49.8043+87.5854+49.9195+87.3102+49.9195+86.9903L49.9195+85.8191C49.9195+85.4899+49.8043+85.21+49.5738+84.9795C49.3433+84.749+49.0634+84.6338+48.7342+84.6338L47.5629+84.6338L47.5629+88.1616Z"/>
<path d="M59.3316+89.3469L59.3316+88.1616C59.3316+87.8417+59.2164+87.5665+58.9859+87.3361C58.7554+87.1056+58.4755+86.9903+58.1463+86.9903L56.9751+86.9903C56.2789+86.9903+55.8885+87.3807+55.8038+88.1616L54.6185+88.1616C54.8066+86.5999+55.5922+85.8191+56.9751+85.8191L59.3316+85.8191C59.9713+85.8191+60.5216+86.0496+60.9826+86.5106C61.4436+86.9715+61.6741+87.5219+61.6741+88.1616L61.6741+94.0459L59.3316+94.0459L59.3316+92.8747C59.2375+93.6555+58.8424+94.0459+58.1463+94.0459L56.9751+94.0459C56.3354+94.0459+55.7827+93.8154+55.317+93.3545C54.8513+92.8935+54.6185+92.3385+54.6185+91.6893C54.6185+91.0496+54.8513+90.4993+55.317+90.0383C55.7827+89.5774+56.3354+89.3469+56.9751+89.3469L59.3316+89.3469ZM59.3316+90.5181L58.1463+90.5181C57.8264+90.5181+57.5513+90.6334+57.3208+90.8638C57.0903+91.0943+56.9751+91.3695+56.9751+91.6893C56.9751+92.0092+57.0903+92.2867+57.3208+92.5219C57.5513+92.7571+57.8264+92.8747+58.1463+92.8747C58.4755+92.8747+58.7554+92.7571+58.9859+92.5219C59.2164+92.2867+59.3316+92.0092+59.3316+91.6893L59.3316+90.5181Z" opacity="1" fill="#808080"/>
<path fill="#808080" d="M64.0306+94.0459L64.0306+85.8191L66.3872+85.8191L66.3872+86.9903C66.4342+86.5952+66.5565+86.3012+66.7541+86.1084C66.9516+85.9155+67.2197+85.8191+67.5584+85.8191L68.7437+85.8191C69.3834+85.8191+69.9338+86.0496+70.3947+86.5106C70.8557+86.9715+71.0862+87.5219+71.0862+88.1616L71.0862+94.0459L68.7437+94.0459L68.7437+88.1616C68.7437+87.8417+68.6285+87.5665+68.398+87.3361C68.1675+87.1056+67.8877+86.9903+67.5584+86.9903C67.2385+86.9903+66.9634+87.1056+66.7329+87.3361C66.5024+87.5665+66.3872+87.8417+66.3872+88.1616L66.3872+94.0459L64.0306+94.0459Z" opacity="1"/>
<path d="M80.4983+90.5181L75.7993+90.5181L75.7993+91.6893C75.7993+92.0092+75.9145+92.2867+76.145+92.5219C76.3755+92.7571+76.6507+92.8747+76.9705+92.8747L78.1558+92.8747C78.9367+92.8747+79.3271+92.4796+79.3271+91.6893L80.4983+91.6893C80.3196+93.2604+79.5387+94.0459+78.1558+94.0459L75.7993+94.0459C75.1596+94.0459+74.6069+93.8154+74.1412+93.3545C73.6756+92.8935+73.4427+92.3385+73.4427+91.6893L73.4427+88.1616C73.4427+87.5219+73.6756+86.9715+74.1412+86.5106C74.6069+86.0496+75.1596+85.8191+75.7993+85.8191L78.1558+85.8191C78.7956+85.8191+79.3459+86.0496+79.8068+86.5106C80.2678+86.9715+80.4983+87.5219+80.4983+88.1616L80.4983+90.5181ZM75.7993+89.3469L78.1558+89.3469L78.1558+88.1616C78.1558+87.8417+78.0406+87.5665+77.8101+87.3361C77.5796+87.1056+77.2998+86.9903+76.9705+86.9903C76.6507+86.9903+76.3755+87.1056+76.145+87.3361C75.9145+87.5665+75.7993+87.8417+75.7993+88.1616L75.7993+89.3469Z" fill="#808080" opacity="1"/>
<path opacity="1" d="M82.8549+94.0459L82.8549+83.4626L85.2114+83.4626L85.2114+94.0459L82.8549+94.0459Z" fill="#808080"/>
</g>
<g opacity="1">
<path fill="#808080" d="M37.911+102.255L36.7398+102.255C36.6363+101.464+36.2647+101.069+35.625+101.069C35.2111+101.069+34.9006+101.168+34.6937+101.366C34.4867+101.563+34.3832+101.86+34.3832+102.255C34.3832+102.546+34.4961+102.824+34.7219+103.087L37.2196+105.881C37.6805+106.399+37.911+106.954+37.911+107.546L37.911+108.125C37.911+108.765+37.6805+109.317+37.2196+109.783C36.7586+110.249+36.2036+110.481+35.5545+110.481L34.3832+110.481C33.6024+110.481+33.0145+110.286+32.6193+109.896C32.2242+109.505+32.0267+108.915+32.0267+108.125L33.212+108.125C33.212+108.21+33.212+108.275+33.212+108.322C33.212+108.642+33.3343+108.887+33.5789+109.056C33.8235+109.226+34.0916+109.31+34.3832+109.31C34.7972+109.31+35.0958+109.209+35.2793+109.007C35.4627+108.805+35.5545+108.511+35.5545+108.125C35.5545+107.824+35.4416+107.546+35.2158+107.292L32.7181+104.498C32.2572+103.99+32.0267+103.435+32.0267+102.833L32.0267+102.255C32.0267+101.615+32.2572+101.062+32.7181+100.597C33.1791+100.131+33.7341+99.8982+34.3832+99.8982L35.5545+99.8982C37.0314+99.8982+37.8169+100.684+37.911+102.255Z" opacity="1"/>
<path d="M47.309+106.954L42.61+106.954L42.61+108.125C42.61+108.445+42.7253+108.722+42.9557+108.957C43.1862+109.193+43.4614+109.31+43.7812+109.31L44.9666+109.31C45.7474+109.31+46.1378+108.915+46.1378+108.125L47.309+108.125C47.1303+109.696+46.3495+110.481+44.9666+110.481L42.61+110.481C41.9703+110.481+41.4176+110.251+40.952+109.79C40.4863+109.329+40.2535+108.774+40.2535+108.125L40.2535+104.597C40.2535+103.957+40.4863+103.407+40.952+102.946C41.4176+102.485+41.9703+102.255+42.61+102.255L44.9666+102.255C45.6063+102.255+46.1566+102.485+46.6176+102.946C47.0785+103.407+47.309+103.957+47.309+104.597L47.309+106.954ZM42.61+105.782L44.9666+105.782L44.9666+104.597C44.9666+104.277+44.8513+104.002+44.6208+103.772C44.3904+103.541+44.1105+103.426+43.7812+103.426C43.4614+103.426+43.1862+103.541+42.9557+103.772C42.7253+104.002+42.61+104.277+42.61+104.597L42.61+105.782Z" fill="#808080" opacity="1"/>
<path opacity="1" fill="#808080" d="M55.5499+104.597L54.3787+104.597C54.2752+103.816+53.9036+103.426+53.2639+103.426C52.85+103.426+52.5395+103.508+52.3326+103.673C52.1256+103.838+52.0221+104.08+52.0221+104.4C52.0221+104.738+52.5913+105.213+53.7296+105.825C54.6609+106.323+55.1971+106.737+55.3382+107.067C55.4794+107.396+55.5499+107.749+55.5499+108.125C55.5499+108.774+55.3194+109.329+54.8585+109.79C54.3975+110.251+53.8425+110.481+53.1934+110.481L52.0221+110.481C50.4511+110.481+49.6656+109.696+49.6656+108.125L50.8509+108.125C50.945+108.915+51.3119+109.31+51.9516+109.31C52.3749+109.31+52.6901+109.228+52.897+109.063C53.104+108.899+53.2075+108.652+53.2075+108.322C53.2075+107.993+52.6383+107.523+51.5+106.911C50.5687+106.413+50.0301+105.999+49.8843+105.67C49.7385+105.34+49.6656+104.988+49.6656+104.611C49.6656+103.962+49.8984+103.407+50.3641+102.946C50.8297+102.485+51.3824+102.255+52.0221+102.255L53.1934+102.255C54.6703+102.255+55.4558+103.036+55.5499+104.597Z"/>
<path fill="#808080" opacity="1" d="M63.7767+104.597L62.6055+104.597C62.502+103.816+62.1304+103.426+61.4907+103.426C61.0768+103.426+60.7663+103.508+60.5594+103.673C60.3524+103.838+60.2489+104.08+60.2489+104.4C60.2489+104.738+60.8181+105.213+61.9564+105.825C62.8877+106.323+63.4239+106.737+63.565+107.067C63.7061+107.396+63.7767+107.749+63.7767+108.125C63.7767+108.774+63.5462+109.329+63.0853+109.79C62.6243+110.251+62.0693+110.481+61.4201+110.481L60.2489+110.481C58.6779+110.481+57.8924+109.696+57.8924+108.125L59.0777+108.125C59.1718+108.915+59.5387+109.31+60.1784+109.31C60.6017+109.31+60.9168+109.228+61.1238+109.063C61.3308+108.899+61.4343+108.652+61.4343+108.322C61.4343+107.993+60.8651+107.523+59.7268+106.911C58.7955+106.413+58.2569+105.999+58.1111+105.67C57.9653+105.34+57.8924+104.988+57.8924+104.611C57.8924+103.962+58.1252+103.407+58.5909+102.946C59.0565+102.485+59.6092+102.255+60.2489+102.255L61.4201+102.255C62.8971+102.255+63.6826+103.036+63.7767+104.597Z"/>
<path opacity="1" d="M66.1191+101.069L66.1191+99.8982L68.4757+99.8982L68.4757+101.069L66.1191+101.069ZM66.1191+110.481L66.1191+102.255L68.4757+102.255L68.4757+110.481L66.1191+110.481Z" fill="#808080"/>
<path fill="#808080" d="M73.1747+102.255L75.5313+102.255C76.171+102.255+76.7213+102.485+77.1823+102.946C77.6432+103.407+77.8737+103.957+77.8737+104.597L77.8737+108.125C77.8737+108.765+77.6432+109.317+77.1823+109.783C76.7213+110.249+76.171+110.481+75.5313+110.481L73.1747+110.481C72.535+110.481+71.9823+110.251+71.5166+109.79C71.051+109.329+70.8181+108.774+70.8181+108.125L70.8181+104.597C70.8181+103.957+71.051+103.407+71.5166+102.946C71.9823+102.485+72.535+102.255+73.1747+102.255ZM73.1747+104.597L73.1747+108.125C73.1747+108.445+73.2899+108.722+73.5204+108.957C73.7509+109.193+74.0261+109.31+74.3459+109.31C74.6752+109.31+74.9551+109.193+75.1855+108.957C75.416+108.722+75.5313+108.445+75.5313+108.125L75.5313+104.597C75.5313+104.277+75.416+104.002+75.1855+103.772C74.9551+103.541+74.6752+103.426+74.3459+103.426C74.0261+103.426+73.7509+103.541+73.5204+103.772C73.2899+104.002+73.1747+104.277+73.1747+104.597Z" opacity="1"/>
<path d="M80.2303+110.481L80.2303+102.255L82.5868+102.255L82.5868+103.426C82.6339+103.031+82.7562+102.737+82.9537+102.544C83.1513+102.351+83.4194+102.255+83.758+102.255L84.9434+102.255C85.5831+102.255+86.1334+102.485+86.5944+102.946C87.0553+103.407+87.2858+103.957+87.2858+104.597L87.2858+110.481L84.9434+110.481L84.9434+104.597C84.9434+104.277+84.8281+104.002+84.5977+103.772C84.3672+103.541+84.0873+103.426+83.758+103.426C83.4382+103.426+83.163+103.541+82.9325+103.772C82.7021+104.002+82.5868+104.277+82.5868+104.597L82.5868+110.481L80.2303+110.481Z" opacity="1" fill="#808080"/>
<path d="M95.5267+104.597L94.3555+104.597C94.252+103.816+93.8804+103.426+93.2407+103.426C92.8268+103.426+92.5163+103.508+92.3094+103.673C92.1024+103.838+91.9989+104.08+91.9989+104.4C91.9989+104.738+92.5681+105.213+93.7064+105.825C94.6377+106.323+95.1739+106.737+95.3151+107.067C95.4562+107.396+95.5267+107.749+95.5267+108.125C95.5267+108.774+95.2962+109.329+94.8353+109.79C94.3743+110.251+93.8193+110.481+93.1702+110.481L91.9989+110.481C90.4279+110.481+89.6424+109.696+89.6424+108.125L90.8277+108.125C90.9218+108.915+91.2887+109.31+91.9284+109.31C92.3517+109.31+92.6669+109.228+92.8738+109.063C93.0808+108.899+93.1843+108.652+93.1843+108.322C93.1843+107.993+92.6151+107.523+91.4768+106.911C90.5455+106.413+90.0069+105.999+89.8611+105.67C89.7153+105.34+89.6424+104.988+89.6424+104.611C89.6424+103.962+89.8752+103.407+90.3409+102.946C90.8065+102.485+91.3592+102.255+91.9989+102.255L93.1702+102.255C94.6471+102.255+95.4326+103.036+95.5267+104.597Z" fill="#808080" opacity="1"/>
</g>
</g>
</svg>
