<?xml version="1.0" encoding="UTF-8" standalone="no"?>
<svg
   version="1.1"
   id="Layer_1"
   x="0px"
   y="0px"
   viewBox="0 0 228 228"
   xml:space="preserve"
   sodipodi:docname="twitter-logo.svg"
   width="228"
   height="228"
   inkscape:version="1.1.1 (c3084ef, 2021-09-22)"
   xmlns:inkscape="http://www.inkscape.org/namespaces/inkscape"
   xmlns:sodipodi="http://sodipodi.sourceforge.net/DTD/sodipodi-0.dtd"
   xmlns="http://www.w3.org/2000/svg"
   xmlns:svg="http://www.w3.org/2000/svg"
   xmlns:rdf="http://www.w3.org/1999/02/22-rdf-syntax-ns#"
   xmlns:cc="http://creativecommons.org/ns#"
   xmlns:dc="http://purl.org/dc/elements/1.1/"><metadata
   id="metadata39"><rdf:RDF><cc:Work
       rdf:about=""><dc:format>image/svg+xml</dc:format><dc:type
         rdf:resource="http://purl.org/dc/dcmitype/StillImage" /></cc:Work></rdf:RDF></metadata><defs
   id="defs37" /><sodipodi:namedview
   pagecolor="#ffffff"
   bordercolor="#666666"
   borderopacity="1"
   objecttolerance="10"
   gridtolerance="10"
   guidetolerance="10"
   inkscape:pageopacity="1"
   inkscape:pageshadow="2"
   inkscape:window-width="1296"
   inkscape:window-height="949"
   id="namedview35"
   showgrid="false"
   inkscape:zoom="2.2055439"
   inkscape:cx="106.32298"
   inkscape:cy="124.4591"
   inkscape:window-x="0"
   inkscape:window-y="25"
   inkscape:window-maximized="0"
   inkscape:current-layer="Layer_1"
   inkscape:pagecheckerboard="0" />

<g
   id="g4">
</g>
<g
   id="g6">
</g>
<g
   id="g8">
</g>
<g
   id="g10">
</g>
<g
   id="g12">
</g>
<g
   id="g14">
</g>
<g
   id="g16">
</g>
<g
   id="g18">
</g>
<g
   id="g20">
</g>
<g
   id="g22">
</g>
<g
   id="g24">
</g>
<g
   id="g26">
</g>
<g
   id="g28">
</g>
<g
   id="g30">
</g>
<g
   id="g32">
</g>
<circle
   style="opacity:0.997;fill:#666ac2;fill-opacity:1;stroke:none;stroke-width:2;stroke-miterlimit:10"
   id="path841"
   cx="114.5014"
   cy="114.50139"
   r="114" /><g
   id="XMLID_826_"
   transform="matrix(0.48586591,0,0,0.48586591,43.323715,41.26577)"
   style="fill:#ffffff;fill-opacity:1">
	<path
   id="XMLID_827_"
   d="m 302.973,57.388 c -4.87,2.16 -9.877,3.983 -14.993,5.463 6.057,-6.85 10.675,-14.91 13.494,-23.73 0.632,-1.977 -0.023,-4.141 -1.648,-5.434 -1.623,-1.294 -3.878,-1.449 -5.665,-0.39 -10.865,6.444 -22.587,11.075 -34.878,13.783 -12.381,-12.098 -29.197,-18.983 -46.581,-18.983 -36.695,0 -66.549,29.853 -66.549,66.547 0,2.89 0.183,5.764 0.545,8.598 C 101.163,99.244 58.83,76.863 29.76,41.204 c -1.036,-1.271 -2.632,-1.956 -4.266,-1.825 -1.635,0.128 -3.104,1.05 -3.93,2.467 -5.896,10.117 -9.013,21.688 -9.013,33.461 0,16.035 5.725,31.249 15.838,43.137 -3.075,-1.065 -6.059,-2.396 -8.907,-3.977 -1.529,-0.851 -3.395,-0.838 -4.914,0.033 -1.52,0.871 -2.473,2.473 -2.513,4.224 -0.007,0.295 -0.007,0.59 -0.007,0.889 0,23.935 12.882,45.484 32.577,57.229 -1.692,-0.169 -3.383,-0.414 -5.063,-0.735 -1.732,-0.331 -3.513,0.276 -4.681,1.597 -1.17,1.32 -1.557,3.16 -1.018,4.84 7.29,22.76 26.059,39.501 48.749,44.605 -18.819,11.787 -40.34,17.961 -62.932,17.961 -4.714,0 -9.455,-0.277 -14.095,-0.826 -2.305,-0.274 -4.509,1.087 -5.294,3.279 -0.785,2.193 0.047,4.638 2.008,5.895 29.023,18.609 62.582,28.445 97.047,28.445 67.754,0 110.139,-31.95 133.764,-58.753 29.46,-33.421 46.356,-77.658 46.356,-121.367 0,-1.826 -0.028,-3.67 -0.084,-5.508 11.623,-8.757 21.63,-19.355 29.773,-31.536 1.237,-1.85 1.103,-4.295 -0.33,-5.998 -1.431,-1.704 -3.816,-2.255 -5.852,-1.353 z"
   style="fill:#ffffff;fill-opacity:1" />
</g></svg>
