<?xml version="1.0" encoding="UTF-8" standalone="no"?>
<svg
   version="1.1"
   id="Layer_1"
   x="0px"
   y="0px"
   viewBox="0 0 300 300"
   xml:space="preserve"
   sodipodi:docname="www-logo.svg"
   width="300"
   height="300"
   inkscape:version="1.1.1 (c3084ef, 2021-09-22)"
   xmlns:inkscape="http://www.inkscape.org/namespaces/inkscape"
   xmlns:sodipodi="http://sodipodi.sourceforge.net/DTD/sodipodi-0.dtd"
   xmlns="http://www.w3.org/2000/svg"
   xmlns:svg="http://www.w3.org/2000/svg"
   xmlns:rdf="http://www.w3.org/1999/02/22-rdf-syntax-ns#"
   xmlns:cc="http://creativecommons.org/ns#"
   xmlns:dc="http://purl.org/dc/elements/1.1/"><metadata
   id="metadata59"><rdf:RDF><cc:Work
       rdf:about=""><dc:format>image/svg+xml</dc:format><dc:type
         rdf:resource="http://purl.org/dc/dcmitype/StillImage" /></cc:Work></rdf:RDF></metadata><defs
   id="defs57" /><sodipodi:namedview
   pagecolor="#ffffff"
   bordercolor="#666666"
   borderopacity="1"
   objecttolerance="10"
   gridtolerance="10"
   guidetolerance="10"
   inkscape:pageopacity="1"
   inkscape:pageshadow="2"
   inkscape:window-width="1296"
   inkscape:window-height="949"
   id="namedview55"
   showgrid="false"
   inkscape:zoom="1.2489683"
   inkscape:cx="155.72854"
   inkscape:cy="206.17017"
   inkscape:window-x="0"
   inkscape:window-y="25"
   inkscape:window-maximized="0"
   inkscape:current-layer="Layer_1"
   inkscape:pagecheckerboard="0" />

<rect
   x="145.13771"
   y="4.8726606"
   width="11.576601"
   height="280.29807"
   id="rect4"
   style="fill:#666ac2;fill-opacity:1;stroke-width:0.811773" />
<rect
   x="11.295961"
   y="142.72905"
   width="282.46933"
   height="11.576667"
   id="rect6"
   style="fill:#666ac2;fill-opacity:1;stroke-width:0.811775" />
<path
   d="m 150.9641,115.17035 c -73.706653,0 -103.098967,-46.696916 -104.315754,-49.312643 L 59.850842,45.121334 c 0.0073,0 0.01102,0.0083 0.0073,0.01456 l -5.464609,9.107684 c -1.401855,2.336417 32.467069,50.347182 96.577877,50.347182 64.49697,0 95.59424,-49.166827 95.84196,-49.713288 l 9.60315,9.71972 c -1.18764,2.586582 -31.70931,50.573138 -105.4524,50.573138 z"
   id="path8"
   style="fill:#666ac2;fill-opacity:1;stroke-width:0.910768"
   sodipodi:nodetypes="sccsssccss" />

<path
   d="m 147.11693,295.9105 c -2.78332,-2.54286 -64.089053,-63.26561 -64.089053,-145.9998 0,-82.872626 62.806673,-141.3512382 65.655573,-143.799384 l 9.51569,11.038512 c -0.64846,0.561033 -64.591684,56.68622 -64.591684,132.768152 0,76.38796 62.711864,134.66986 63.345754,135.25274 z"
   id="path12"
   style="fill:#666ac2;fill-opacity:1;stroke-width:0.910768"
   sodipodi:nodetypes="csccscc" />
<path
   d="m 155.15371,295.91779 -9.84358,-10.74707 c 0.63391,-0.58288 63.35304,-59.04692 63.35304,-135.25274 0,-76.2568 -63.93593,-132.207119 -64.5844,-132.760866 l 9.50842,-11.045798 c 2.84889,2.4481458 65.65557,60.926758 65.65557,143.799384 0,82.74876 -61.30574,143.47151 -64.08905,146.00709 z"
   id="path14"
   style="fill:#666ac2;fill-opacity:1;stroke-width:0.910768"
   sodipodi:nodetypes="ccsccsc" />

<g
   id="g24">
</g>
<g
   id="g26">
</g>
<g
   id="g28">
</g>
<g
   id="g30">
</g>
<g
   id="g32">
</g>
<g
   id="g34">
</g>
<g
   id="g36">
</g>
<g
   id="g38">
</g>
<g
   id="g40">
</g>
<g
   id="g42">
</g>
<g
   id="g44">
</g>
<g
   id="g46">
</g>
<g
   id="g48">
</g>
<g
   id="g50">
</g>
<g
   id="g52">
</g>
<path
   d="m 149.80824,185.52654 c -73.706658,0 -103.098973,46.69691 -104.31576,49.31264 l 13.202499,20.73637 c 0.0073,0 0.01102,-0.009 0.0073,-0.0145 l -5.46461,-9.10769 c -1.401855,-2.33641 32.467069,-50.34718 96.577871,-50.34718 64.49697,0 95.59424,49.16684 95.84198,49.71329 l 9.60313,-9.71972 c -1.18765,-2.58663 -31.70932,-50.5732 -105.45241,-50.5732 z"
   id="path8-0"
   style="fill:#666ac2;fill-opacity:1;stroke-width:0.910768"
   sodipodi:nodetypes="sccsssccss" /><ellipse
   style="fill:none;fill-opacity:1;stroke:#666bc2;stroke-width:32.4807;stroke-miterlimit:4;stroke-dasharray:none;stroke-opacity:1"
   cx="151.13167"
   cy="149.76347"
   id="circle2"
   rx="131.295"
   ry="131.29524" /></svg>
