<?xml version="1.0" encoding="UTF-8" standalone="no"?>
<svg
   version="1.1"
   id="Layer_1"
   x="0px"
   y="0px"
   viewBox="0 0 300 300"
   xml:space="preserve"
   sodipodi:docname="youtube-logo.svg"
   width="300"
   height="300"
   inkscape:version="1.1.1 (c3084ef, 2021-09-22)"
   xmlns:inkscape="http://www.inkscape.org/namespaces/inkscape"
   xmlns:sodipodi="http://sodipodi.sourceforge.net/DTD/sodipodi-0.dtd"
   xmlns="http://www.w3.org/2000/svg"
   xmlns:svg="http://www.w3.org/2000/svg"
   xmlns:rdf="http://www.w3.org/1999/02/22-rdf-syntax-ns#"
   xmlns:cc="http://creativecommons.org/ns#"
   xmlns:dc="http://purl.org/dc/elements/1.1/"><metadata
   id="metadata45"><rdf:RDF><cc:Work
       rdf:about=""><dc:format>image/svg+xml</dc:format><dc:type
         rdf:resource="http://purl.org/dc/dcmitype/StillImage" /></cc:Work></rdf:RDF></metadata><defs
   id="defs43" /><sodipodi:namedview
   pagecolor="#ffffff"
   bordercolor="#666666"
   borderopacity="1"
   objecttolerance="10"
   gridtolerance="10"
   guidetolerance="10"
   inkscape:pageopacity="1"
   inkscape:pageshadow="2"
   inkscape:window-width="1680"
   inkscape:window-height="949"
   id="namedview41"
   showgrid="false"
   inkscape:zoom="1.4092723"
   inkscape:cx="98.987255"
   inkscape:cy="127.3707"
   inkscape:window-x="0"
   inkscape:window-y="25"
   inkscape:window-maximized="0"
   inkscape:current-layer="Layer_1"
   inkscape:document-rotation="0"
   inkscape:pagecheckerboard="0" />
<circle
   style="fill:#666ac2;stroke-width:0.628236;fill-opacity:1"
   cx="150.54329"
   cy="150.54329"
   r="148.87059"
   id="circle2" />
<path
   style="fill:#666ac2;stroke-width:0.628236;fill-opacity:1"
   d="m 255.8055,45.259718 c 58.1376,58.142622 58.14263,152.405682 0,210.548302 -58.13759,58.13759 -152.40567,58.14011 -210.548295,0 z"
   id="path4" />
<path
   style="fill:#484cb3;stroke-width:0.628236;fill-opacity:1"
   d="m 296.42097,180.35938 -73.68079,-73.67827 -86.89887,9.89409 -52.563886,81.37667 98.219686,98.21717 c 57.74746,-12.21605 103.14694,-57.89509 114.92386,-115.80966 z"
   id="path6" />
<path
   style="fill:#ffffff;stroke-width:0.628236"
   d="m 228.44771,121.81531 c 0,-12.47991 -10.11021,-22.595139 -22.5832,-22.595139 H 99.911231 c -12.470486,0 -22.578805,10.117749 -22.578805,22.595139 v 60.5896 c 0,12.47991 10.110203,22.59514 22.578805,22.59514 H 205.86262 c 12.47551,0 22.5832,-10.11774 22.5832,-22.59514 v -60.5896 z m -90.67394,55.85522 v -56.90814 l 43.15667,28.45532 z"
   id="path8" />
<g
   id="g10">
</g>
<g
   id="g12">
</g>
<g
   id="g14">
</g>
<g
   id="g16">
</g>
<g
   id="g18">
</g>
<g
   id="g20">
</g>
<g
   id="g22">
</g>
<g
   id="g24">
</g>
<g
   id="g26">
</g>
<g
   id="g28">
</g>
<g
   id="g30">
</g>
<g
   id="g32">
</g>
<g
   id="g34">
</g>
<g
   id="g36">
</g>
<g
   id="g38">
</g>
</svg>
